<?xml version="1.0" encoding="UTF-8"?>
<!DOCTYPE svg PUBLIC "-//W3C//DTD SVG 1.1//EN" "http://www.w3.org/Graphics/SVG/1.1/DTD/svg11.dtd">
<svg xmlns="http://www.w3.org/2000/svg" version="1.1" width="2388px" height="1520px" style="shape-rendering:geometricPrecision; text-rendering:geometricPrecision; image-rendering:optimizeQuality; fill-rule:evenodd; clip-rule:evenodd" xmlns:xlink="http://www.w3.org/1999/xlink">
<g><path style="opacity:1" fill="#fefefe" d="M -0.5,-0.5 C 795.5,-0.5 1591.5,-0.5 2387.5,-0.5C 2387.5,506.167 2387.5,1012.83 2387.5,1519.5C 1591.5,1519.5 795.5,1519.5 -0.5,1519.5C -0.5,1012.83 -0.5,506.167 -0.5,-0.5 Z"/></g>
<g><path style="opacity:1" fill="#4385f4" d="M 1121.5,93.5 C 1129.89,92.6929 1135.89,96.0263 1139.5,103.5C 1140.38,104.251 1141.38,104.751 1142.5,105C 1161.32,106.344 1180.16,107.51 1199,108.5C 1224.2,107.254 1249.36,105.587 1274.5,103.5C 1281.86,91.3859 1290.52,90.3859 1300.5,100.5C 1303,100.833 1305.5,101.167 1308,101.5C 1320.83,100.463 1333.66,99.9631 1346.5,100C 1351,101.833 1354.17,105 1356,109.5C 1354.73,145.77 1357.06,181.77 1363,217.5C 1367.37,264.35 1366.04,311.017 1359,357.5C 1352.86,493.293 1358.19,628.627 1375,763.5C 1380.55,806.935 1389.55,849.602 1402,891.5C 1407.45,908.723 1414.78,925.056 1424,940.5C 1428,945.167 1432,949.833 1436,954.5C 1437.98,963.593 1434.81,970.093 1426.5,974C 1277.17,974.667 1127.83,974.667 978.5,974C 970.189,970.093 967.023,963.593 969,954.5C 983.433,938.982 993.766,920.982 1000,900.5C 1014.21,855.8 1024.21,810.134 1030,763.5C 1046.2,633.299 1051.87,502.632 1047,371.5C 1044.2,349.565 1041.87,327.565 1040,305.5C 1037.31,260.768 1040.31,216.435 1049,172.5C 1050.12,151.487 1051.46,130.487 1053,109.5C 1054.83,105 1058,101.833 1062.5,100C 1079.16,100.844 1095.82,101.51 1112.5,102C 1114.74,98.2574 1117.74,95.424 1121.5,93.5 Z"/></g>
<g><path style="opacity:1" fill="#fafcfe" d="M 1080.5,129.5 C 1091.17,130.122 1101.84,130.789 1112.5,131.5C 1112.5,142.833 1112.5,154.167 1112.5,165.5C 1101.16,164.928 1089.83,164.261 1078.5,163.5C 1078.6,152.124 1079.27,140.791 1080.5,129.5 Z"/></g>
<g><path style="opacity:1" fill="#fdfefe" d="M 1314.5,129.5 C 1318.83,129.5 1323.17,129.5 1327.5,129.5C 1327.5,140.833 1327.5,152.167 1327.5,163.5C 1319.49,163.644 1311.49,163.977 1303.5,164.5C 1303.5,153.167 1303.5,141.833 1303.5,130.5C 1307.37,130.815 1311.04,130.482 1314.5,129.5 Z"/></g>
<g><path style="opacity:1" fill="#fcfcfe" d="M 1268.5,132.5 C 1270.5,132.5 1272.5,132.5 1274.5,132.5C 1274.5,144.167 1274.5,155.833 1274.5,167.5C 1249.49,168.501 1224.49,169.834 1199.5,171.5C 1180.14,170.744 1160.81,169.577 1141.5,168C 1140.51,156.581 1140.18,145.081 1140.5,133.5C 1160,134.722 1179.5,136.056 1199,137.5C 1222.34,136.156 1245.51,134.489 1268.5,132.5 Z"/></g>
<g><path style="opacity:1" fill="#4687f4" d="M 1197.5,138.5 C 1206.29,137.477 1212.79,140.81 1217,148.5C 1218.83,164 1212,170.833 1196.5,169C 1186.36,162.921 1184.19,154.755 1190,144.5C 1192.48,142.361 1194.98,140.361 1197.5,138.5 Z"/></g>
<g><path style="opacity:1" fill="#f8fafe" d="M 1293.5,205.5 C 1293.5,205.167 1293.5,204.833 1293.5,204.5C 1298.1,202.398 1301.1,198.898 1302.5,194C 1311.8,192.796 1321.13,191.963 1330.5,191.5C 1331.24,195.119 1331.58,198.785 1331.5,202.5C 1318.83,203.5 1306.17,204.5 1293.5,205.5 Z"/></g>
<g><path style="opacity:1" fill="#fefefe" d="M 1286.5,205.5 C 1286.5,205.833 1286.5,206.167 1286.5,206.5C 1258.68,203.83 1248.18,216.163 1255,243.5C 1260.95,287.288 1285.79,311.622 1329.5,316.5C 1330.92,317.451 1332.59,317.784 1334.5,317.5C 1334.5,318.833 1334.5,320.167 1334.5,321.5C 1331.7,340.051 1329.87,358.718 1329,377.5C 1324.48,509.005 1330.48,640.005 1347,770.5C 1351.69,799.95 1357.02,829.283 1363,858.5C 1369.9,888.69 1380.06,917.69 1393.5,945.5C 1335.17,945.5 1276.83,945.5 1218.5,945.5C 1218.5,943.833 1218.5,942.167 1218.5,940.5C 1227.54,819.959 1234.37,699.293 1239,578.5C 1239.67,542.5 1239.67,506.5 1239,470.5C 1238.27,458.431 1236.93,446.431 1235,434.5C 1228.81,400.529 1222.81,366.529 1217,332.5C 1211.07,321.987 1202.9,319.82 1192.5,326C 1190.57,328.258 1189.07,330.758 1188,333.5C 1182.09,367.185 1176.09,400.852 1170,434.5C 1168.07,446.431 1166.73,458.431 1166,470.5C 1164.83,533.535 1165.83,596.535 1169,659.5C 1173.88,753.232 1179.71,846.898 1186.5,940.5C 1186.5,942.167 1186.5,943.833 1186.5,945.5C 1128.17,945.5 1069.83,945.5 1011.5,945.5C 1024.94,917.69 1035.1,888.69 1042,858.5C 1058.4,779.991 1068.56,700.658 1072.5,620.5C 1104.64,620.83 1129.81,607.83 1148,581.5C 1151.96,574.079 1150.79,567.579 1144.5,562C 1123.91,548.304 1101.25,540.47 1076.5,538.5C 1077.43,493.503 1077.6,448.503 1077,403.5C 1076.49,374.301 1073.99,345.301 1069.5,316.5C 1114.36,313.144 1140.19,289.144 1147,244.5C 1147.67,235.833 1147.67,227.167 1147,218.5C 1145.56,214.725 1143.06,211.892 1139.5,210C 1133.23,208.71 1126.89,207.71 1120.5,207C 1104.88,205.265 1089.21,204.098 1073.5,203.5C 1073.25,200.091 1073.58,196.758 1074.5,193.5C 1076.83,193.167 1079.17,192.833 1081.5,192.5C 1091.83,193.309 1102.16,193.976 1112.5,194.5C 1115.77,204.564 1122.43,207.73 1132.5,204C 1135.36,202.636 1137.36,200.47 1138.5,197.5C 1140,197.167 1141.5,196.833 1143,196.5C 1162.15,198.141 1181.31,199.475 1200.5,200.5C 1225.18,198.856 1249.85,197.356 1274.5,196C 1276.6,201.606 1280.6,204.772 1286.5,205.5 Z"/></g>
<g><path style="opacity:1" fill="#b1ccfa" d="M 1293.5,204.5 C 1293.5,204.833 1293.5,205.167 1293.5,205.5C 1291.28,206.369 1288.95,206.702 1286.5,206.5C 1286.5,206.167 1286.5,205.833 1286.5,205.5C 1288.9,205.552 1291.24,205.219 1293.5,204.5 Z"/></g>
<g><path style="opacity:1" fill="#4686f4" d="M 1196.5,216.5 C 1213.34,215.501 1219.84,223.168 1216,239.5C 1207.97,249.339 1199.3,250.006 1190,241.5C 1183.97,230.929 1186.13,222.596 1196.5,216.5 Z"/></g>
<g><path style="opacity:1" fill="#fdfefe" d="M 1072.5,287.5 C 1071.17,287.5 1069.83,287.5 1068.5,287.5C 1068.5,274.833 1068.5,262.167 1068.5,249.5C 1069.07,243.516 1069.41,237.516 1069.5,231.5C 1085.85,232.593 1102.19,233.926 1118.5,235.5C 1118.26,260.526 1106.6,277.359 1083.5,286C 1079.89,286.936 1076.22,287.436 1072.5,287.5 Z"/></g>
<g><path style="opacity:1" fill="#fdfefe" d="M 1336.5,249.5 C 1336.5,262.167 1336.5,274.833 1336.5,287.5C 1333.5,287.5 1330.5,287.5 1327.5,287.5C 1306.6,284.77 1292.77,273.437 1286,253.5C 1284.41,247.601 1283.57,241.601 1283.5,235.5C 1300.79,233.606 1318.12,232.273 1335.5,231.5C 1335.59,237.516 1335.93,243.516 1336.5,249.5 Z"/></g>
<g><path style="opacity:1" fill="#4686f4" d="M 1198.5,260.5 C 1215.16,261.641 1220.66,269.975 1215,285.5C 1206.95,293.081 1198.61,293.414 1190,286.5C 1183.75,274.758 1186.58,266.091 1198.5,260.5 Z"/></g>
<g><path style="opacity:1" fill="#b8d0fb" d="M 1336.5,249.5 C 1337.5,262.323 1337.83,275.323 1337.5,288.5C 1333.96,288.813 1330.62,288.479 1327.5,287.5C 1330.5,287.5 1333.5,287.5 1336.5,287.5C 1336.5,274.833 1336.5,262.167 1336.5,249.5 Z"/></g>
<g><path style="opacity:1" fill="#b5cefa" d="M 1068.5,249.5 C 1068.5,262.167 1068.5,274.833 1068.5,287.5C 1069.83,287.5 1071.17,287.5 1072.5,287.5C 1071.08,288.451 1069.41,288.784 1067.5,288.5C 1067.17,275.323 1067.5,262.323 1068.5,249.5 Z"/></g>
<g><path style="opacity:1" fill="#a8c6fa" d="M 1329.5,316.5 C 1331.5,316.5 1333.5,316.5 1335.5,316.5C 1335.78,318.415 1335.45,320.081 1334.5,321.5C 1334.5,320.167 1334.5,318.833 1334.5,317.5C 1332.59,317.784 1330.92,317.451 1329.5,316.5 Z"/></g>
<g><path style="opacity:1" fill="#bbd2fb" d="M 1203.5,421.5 C 1202.83,421.5 1202.17,421.5 1201.5,421.5C 1202.17,416.167 1202.83,416.167 1203.5,421.5 Z"/></g>
<g><path style="opacity:1" fill="#f9fafe" d="M 1201.5,421.5 C 1202.17,421.5 1202.83,421.5 1203.5,421.5C 1205.65,432.087 1207.49,442.753 1209,453.5C 1210.93,475.955 1211.76,498.455 1211.5,521C 1210.06,592.216 1207.39,663.383 1203.5,734.5C 1202.83,734.5 1202.17,734.5 1201.5,734.5C 1197.48,661.222 1194.82,587.888 1193.5,514.5C 1193.11,483.196 1195.77,452.196 1201.5,421.5 Z"/></g>
<g><path style="opacity:1" fill="#fcfcfe" d="M 1075.5,567.5 C 1088.76,568.648 1101.42,571.981 1113.5,577.5C 1102.28,587.019 1089.28,592.019 1074.5,592.5C 1074.48,584.149 1074.81,575.816 1075.5,567.5 Z"/></g>
<g><path style="opacity:1" fill="#a8c6f9" d="M 1201.5,734.5 C 1202.17,734.5 1202.83,734.5 1203.5,734.5C 1202.83,745.167 1202.17,745.167 1201.5,734.5 Z"/></g>
<g><path style="opacity:1" fill="#6b9ff6" d="M 1186.5,940.5 C 1187.46,942.265 1187.79,944.265 1187.5,946.5C 1128.1,946.833 1069.43,946.5 1011.5,945.5C 1069.83,945.5 1128.17,945.5 1186.5,945.5C 1186.5,943.833 1186.5,942.167 1186.5,940.5 Z"/></g>
<g><path style="opacity:1" fill="#6b9ff6" d="M 1218.5,940.5 C 1218.5,942.167 1218.5,943.833 1218.5,945.5C 1276.83,945.5 1335.17,945.5 1393.5,945.5C 1335.57,946.5 1276.9,946.833 1217.5,946.5C 1217.21,944.265 1217.54,942.265 1218.5,940.5 Z"/></g>
</svg>
