<?xml version="1.0" encoding="UTF-8"?>
<!DOCTYPE svg PUBLIC "-//W3C//DTD SVG 1.1//EN" "http://www.w3.org/Graphics/SVG/1.1/DTD/svg11.dtd">
<svg xmlns="http://www.w3.org/2000/svg" version="1.1" width="2388px" height="1520px" style="shape-rendering:geometricPrecision; text-rendering:geometricPrecision; image-rendering:optimizeQuality; fill-rule:evenodd; clip-rule:evenodd" xmlns:xlink="http://www.w3.org/1999/xlink">
<g><path style="opacity:1" fill="#fefefe" d="M -0.5,-0.5 C 795.5,-0.5 1591.5,-0.5 2387.5,-0.5C 2387.5,506.167 2387.5,1012.83 2387.5,1519.5C 1591.5,1519.5 795.5,1519.5 -0.5,1519.5C -0.5,1012.83 -0.5,506.167 -0.5,-0.5 Z"/></g>
<g><path style="opacity:1" fill="#4787f4" d="M 1058.5,246.5 C 1060.65,246.372 1062.65,246.872 1064.5,248C 1090.69,267.773 1120.02,275.106 1152.5,270C 1161.97,267.509 1170.97,263.843 1179.5,259C 1181.5,258.333 1183.5,258.333 1185.5,259C 1195.99,271.133 1203.49,284.967 1208,300.5C 1208.9,311.596 1208.23,322.596 1206,333.5C 1204.43,338.875 1202.1,343.875 1199,348.5C 1197.24,355.074 1195.9,361.741 1195,368.5C 1194.17,369.333 1193.33,370.167 1192.5,371C 1114.17,371.667 1035.83,371.667 957.5,371C 932.565,369.243 908.565,363.576 885.5,354C 881.25,351.626 877.084,349.126 873,346.5C 870.562,337.323 869.896,327.989 871,318.5C 876.065,305.7 885.565,298.867 899.5,298C 915.109,295.294 930.776,292.961 946.5,291C 967.288,286.737 987.288,280.071 1006.5,271C 1024.05,263.058 1041.38,254.892 1058.5,246.5 Z"/></g>
<g><path style="opacity:1" fill="#f7f9fe" d="M 1058.5,258.5 C 1061.94,260.055 1065.27,261.888 1068.5,264C 1057.96,272.774 1046.29,279.774 1033.5,285C 1010,294.418 985.829,301.584 961,306.5C 958.511,304.681 956.011,302.848 953.5,301C 958.554,300.047 963.554,298.88 968.5,297.5C 970.556,298.048 972.223,299.214 973.5,301C 979.667,301.663 982.334,298.83 981.5,292.5C 984.807,291.519 988.14,290.519 991.5,289.5C 993.556,290.048 995.223,291.214 996.5,293C 1003.08,293.589 1005.42,290.755 1003.5,284.5C 1006.26,283.035 1009.1,281.701 1012,280.5C 1013.77,281.27 1015.27,282.437 1016.5,284C 1020,285.12 1022.83,284.287 1025,281.5C 1024.95,279.064 1025.11,276.731 1025.5,274.5C 1027.84,273.077 1030.34,272.077 1033,271.5C 1034.97,271.468 1036.47,272.302 1037.5,274C 1044.42,275.08 1047.25,272.247 1046,265.5C 1050.31,263.266 1054.48,260.932 1058.5,258.5 Z"/></g>
<g><path style="opacity:1" fill="#f4f7fe" d="M 1077.5,269.5 C 1104.81,283.259 1133.31,286.259 1163,278.5C 1165.46,279.628 1167.29,281.461 1168.5,284C 1135.3,295.209 1103.63,291.875 1073.5,274C 1075.19,272.693 1076.53,271.193 1077.5,269.5 Z"/></g>
<g><path style="opacity:1" fill="#f2f6fe" d="M 1180.5,270.5 C 1183.97,274.762 1186.97,279.429 1189.5,284.5C 1189,284.833 1188.5,285.167 1188,285.5C 1181.86,283.366 1177.86,279.366 1176,273.5C 1177.65,272.601 1179.15,271.601 1180.5,270.5 Z"/></g>
<g><path style="opacity:1" fill="#fcfdfe" d="M 1062.5,281.5 C 1070.28,285.557 1078.28,289.39 1086.5,293C 1116.75,304.113 1147.08,304.28 1177.5,293.5C 1183.23,295.727 1189.23,297.06 1195.5,297.5C 1198.72,311.83 1197.56,325.83 1192,339.5C 1191.5,340 1191,340.5 1190.5,341C 1155,341.167 1119.5,341.333 1084,341.5C 1043.15,341.617 1002.32,341.117 961.5,340C 957.775,323.521 947.775,313.188 931.5,309C 929.939,308.059 928.605,306.892 927.5,305.5C 930.986,304.724 934.486,304.058 938,303.5C 944.267,307.39 950.1,311.89 955.5,317C 991.702,312.601 1026.04,301.934 1058.5,285C 1060.09,284.051 1061.43,282.885 1062.5,281.5 Z"/></g>
<g><path style="opacity:1" fill="#f3f6fe" d="M 913.5,306.5 C 915.776,306.756 916.943,308.09 917,310.5C 918.833,313 921,315.167 923.5,317C 928.833,319.333 934.167,321.667 939.5,324C 943.809,328.145 947.142,332.979 949.5,338.5C 946.914,339.48 944.247,339.813 941.5,339.5C 938.562,331.386 933.229,325.219 925.5,321C 914.343,315.975 902.677,312.975 890.5,312C 898.254,309.977 905.92,308.144 913.5,306.5 Z"/></g>
<g><path style="opacity:1" fill="#fcfdfe" d="M 881.5,323.5 C 894.28,323.111 906.613,325.278 918.5,330C 926.641,333.137 931.474,338.97 933,347.5C 933.903,348.701 935.069,349.535 936.5,350C 956.812,351.17 977.145,351.836 997.5,352C 1060.5,352.5 1123.5,352.667 1186.5,352.5C 1185.91,355.127 1185.58,357.794 1185.5,360.5C 1106.15,360.945 1026.82,360.445 947.5,359C 925.385,356.768 904.385,350.768 884.5,341C 883.975,340.308 883.308,339.808 882.5,339.5C 881.505,334.208 881.172,328.875 881.5,323.5 Z"/></g>
</svg>
