<?xml version="1.0" encoding="UTF-8"?>
<!DOCTYPE svg PUBLIC "-//W3C//DTD SVG 1.1//EN" "http://www.w3.org/Graphics/SVG/1.1/DTD/svg11.dtd">
<svg xmlns="http://www.w3.org/2000/svg" version="1.1" width="2388px" height="1520px" style="shape-rendering:geometricPrecision; text-rendering:geometricPrecision; image-rendering:optimizeQuality; fill-rule:evenodd; clip-rule:evenodd" xmlns:xlink="http://www.w3.org/1999/xlink">
<g><path style="opacity:1" fill="#fefefe" d="M -0.5,-0.5 C 795.5,-0.5 1591.5,-0.5 2387.5,-0.5C 2387.5,506.167 2387.5,1012.83 2387.5,1519.5C 1591.5,1519.5 795.5,1519.5 -0.5,1519.5C -0.5,1012.83 -0.5,506.167 -0.5,-0.5 Z"/></g>
<g><path style="opacity:1" fill="#4686f4" d="M 1113.5,23.5 C 1188.83,18.5737 1245.66,48.2403 1284,112.5C 1301.97,149.135 1308.47,187.801 1303.5,228.5C 1303.65,247.587 1303.15,266.587 1302,285.5C 1270.62,318.877 1239.96,352.877 1210,387.5C 1205.97,390.596 1201.47,392.763 1196.5,394C 1183.8,396.396 1172.13,394.062 1161.5,387C 1142.85,370.173 1121.18,358.84 1096.5,353C 1033.47,340.564 971.474,344.564 910.5,365C 899.659,365.664 893.992,360.497 893.5,349.5C 893.515,347.366 894.015,345.366 895,343.5C 918.562,315.39 941.895,287.057 965,258.5C 965.333,230.833 965.667,203.167 966,175.5C 975.878,106.971 1012.71,59.4708 1076.5,33C 1088.84,29.3318 1101.18,26.1651 1113.5,23.5 Z"/></g>
<g><path style="opacity:1" fill="#fefefe" d="M 1289.5,186.5 C 1289.83,214.005 1289.5,241.338 1288.5,268.5C 1201.02,230.983 1110.35,220.483 1016.5,237C 1004.17,239.388 992.171,242.888 980.5,247.5C 979.334,223.507 979.167,199.507 980,175.5C 990.205,110.636 1026.04,66.8025 1087.5,44C 1142.03,29.1726 1191.37,39.1726 1235.5,74C 1269.46,103.747 1287.46,141.247 1289.5,186.5 Z"/></g>
<g><path style="opacity:1" fill="#6099f6" d="M 1289.5,186.5 C 1290.83,214.003 1290.83,241.67 1289.5,269.5C 1288.89,269.376 1288.56,269.043 1288.5,268.5C 1289.5,241.338 1289.83,214.005 1289.5,186.5 Z"/></g>
<g><path style="opacity:1" fill="#fefefe" d="M 1076.5,243.5 C 1149.1,240.209 1218.44,253.375 1284.5,283C 1256.17,314.667 1227.83,346.333 1199.5,378C 1191.63,380.895 1183.63,381.228 1175.5,379C 1167.11,372.28 1158.45,365.947 1149.5,360C 1112.48,339.76 1072.81,330.26 1030.5,331.5C 988.659,331.337 947.993,338.003 908.5,351.5C 907.479,350.998 907.312,350.332 908,349.5C 929.811,323.868 951.145,297.868 972,271.5C 975.167,268.333 978.333,265.167 981.5,262C 994.732,256.608 1008.4,252.608 1022.5,250C 1040.53,246.829 1058.53,244.662 1076.5,243.5 Z"/></g>
</svg>
