<?xml version="1.0" encoding="UTF-8"?>
<!DOCTYPE svg PUBLIC "-//W3C//DTD SVG 1.1//EN" "http://www.w3.org/Graphics/SVG/1.1/DTD/svg11.dtd">
<svg xmlns="http://www.w3.org/2000/svg" version="1.1" width="2388px" height="1520px" style="shape-rendering:geometricPrecision; text-rendering:geometricPrecision; image-rendering:optimizeQuality; fill-rule:evenodd; clip-rule:evenodd" xmlns:xlink="http://www.w3.org/1999/xlink">
<g><path style="opacity:1" fill="#fefefe" d="M -0.5,-0.5 C 795.5,-0.5 1591.5,-0.5 2387.5,-0.5C 2387.5,506.167 2387.5,1012.83 2387.5,1519.5C 1591.5,1519.5 795.5,1519.5 -0.5,1519.5C -0.5,1012.83 -0.5,506.167 -0.5,-0.5 Z"/></g>
<g><path style="opacity:1" fill="#4486f4" d="M 1385.5,467.5 C 1385.01,466.527 1384.51,465.527 1384,464.5C 1383.2,467.696 1383.36,470.696 1384.5,473.5C 1386.66,544.994 1384.16,616.328 1377,687.5C 1375.26,694.48 1371.43,699.98 1365.5,704C 1357.88,707.986 1349.88,710.986 1341.5,713C 1311.74,718.235 1281.74,720.402 1251.5,719.5C 1183.57,719.617 1116.24,713.451 1049.5,701C 1037.7,698.467 1026.03,695.467 1014.5,692C 1006.27,689.219 998.271,685.885 990.5,682C 986.58,679.584 984.58,676.084 984.5,671.5C 984.758,610.518 984.925,549.518 985,488.5C 984.132,480.482 983.132,472.482 982,464.5C 963.744,500.011 945.744,535.678 928,571.5C 920.211,592.874 912.045,614.041 903.5,635C 899.106,637.374 894.44,638.041 889.5,637C 867.266,629.256 845.266,620.923 823.5,612C 820.865,610.039 819.031,607.539 818,604.5C 822.968,563.032 830.634,522.032 841,481.5C 858.627,406.952 881.294,333.952 909,262.5C 920.498,235.17 933.831,208.837 949,183.5C 960.333,168.167 971.667,152.833 983,137.5C 996.663,122.16 1012.83,110.327 1031.5,102C 1059.73,92.8618 1088.06,84.1952 1116.5,76C 1148.92,47.8511 1185.59,40.8511 1226.5,55C 1235.25,60.0701 1244.25,64.7368 1253.5,69C 1285.64,77.2674 1316.97,87.9341 1347.5,101C 1355.18,105.014 1362.02,110.181 1368,116.5C 1402.23,170.29 1431.23,226.957 1455,286.5C 1486.55,369.491 1513.89,453.824 1537,539.5C 1540.99,567.434 1544.49,595.434 1547.5,623.5C 1548.46,629.744 1546.13,634.244 1540.5,637C 1513.5,640.833 1486.5,644.666 1459.5,648.5C 1455.46,647.968 1452.29,645.968 1450,642.5C 1435.72,581.488 1414.22,523.154 1385.5,467.5 Z"/></g>
<g><path style="opacity:1" fill="#fefefe" d="M 1176.5,71.5 C 1182.84,71.3338 1189.18,71.5005 1195.5,72C 1201.82,73.2482 1208.15,74.4148 1214.5,75.5C 1218.24,97.3454 1219.74,119.345 1219,141.5C 1208.19,168.793 1196.02,195.46 1182.5,221.5C 1164.17,185.688 1150.67,148.021 1142,108.5C 1140.48,101.184 1140.31,93.8505 1141.5,86.5C 1151.99,78.5645 1163.66,73.5645 1176.5,71.5 Z"/></g>
<g><path style="opacity:1" fill="#fbfcfe" d="M 1239.5,88.5 C 1244.15,90.1628 1248.82,91.8295 1253.5,93.5C 1254.77,115.57 1253.94,137.57 1251,159.5C 1239.25,195.007 1224.75,229.34 1207.5,262.5C 1204.68,256.187 1201.34,250.187 1197.5,244.5C 1213.64,213.55 1228.14,181.883 1241,149.5C 1242.7,142.101 1243.53,134.601 1243.5,127C 1242.99,114.069 1241.66,101.235 1239.5,88.5 Z"/></g>
<g><path style="opacity:1" fill="#fefefe" d="M 1277.5,100.5 C 1300.01,106.394 1321.68,114.56 1342.5,125C 1345.3,126.793 1347.8,128.96 1350,131.5C 1391.69,198.217 1425.36,268.883 1451,343.5C 1469.55,395.801 1486.88,448.468 1503,501.5C 1514.38,538.972 1520.88,577.305 1522.5,616.5C 1505.01,618.879 1487.51,621.213 1470,623.5C 1469.5,623.167 1469,622.833 1468.5,622.5C 1454,563.171 1432.5,506.504 1404,452.5C 1397.08,440.32 1389.41,428.653 1381,417.5C 1380.67,394.167 1380.33,370.833 1380,347.5C 1374.35,339.669 1367.68,338.669 1360,344.5C 1358.56,346.275 1357.56,348.275 1357,350.5C 1356.33,368.167 1356.33,385.833 1357,403.5C 1359.86,446.453 1361.69,489.453 1362.5,532.5C 1360.91,579.208 1358.58,625.874 1355.5,672.5C 1312.71,662.202 1269.71,652.869 1226.5,644.5C 1228.61,638.377 1229.61,632.043 1229.5,625.5C 1227.7,610.846 1225.87,596.179 1224,581.5C 1225.09,564.206 1225.43,546.872 1225,529.5C 1222.93,514.517 1221.1,499.517 1219.5,484.5C 1220.56,475.014 1221.56,465.514 1222.5,456C 1221.08,438.743 1218.92,421.576 1216,404.5C 1217.19,386.88 1217.52,369.214 1217,351.5C 1214.67,334.195 1213,316.862 1212,299.5C 1215.82,295.186 1219.16,290.519 1222,285.5C 1241.4,248.702 1258.07,210.702 1272,171.5C 1274.37,163.671 1275.7,155.671 1276,147.5C 1277.09,131.851 1277.59,116.185 1277.5,100.5 Z"/></g>
<g><path style="opacity:1" fill="#fdfdfe" d="M 1114.5,100.5 C 1115.5,100.5 1116.5,100.5 1117.5,100.5C 1121.82,128.982 1129.32,156.648 1140,183.5C 1145.94,198.663 1152.28,213.663 1159,228.5C 1165.67,238.5 1172.33,248.5 1179,258.5C 1182.19,263.554 1184.86,268.888 1187,274.5C 1188.02,301.946 1190.35,329.279 1194,356.5C 1194.68,369.221 1194.18,381.888 1192.5,394.5C 1194.37,415.173 1196.37,435.84 1198.5,456.5C 1197.72,464.841 1196.72,473.175 1195.5,481.5C 1197.34,498.545 1199.51,515.545 1202,532.5C 1202.73,545.231 1202.23,557.898 1200.5,570.5C 1201.38,588.574 1203.05,606.574 1205.5,624.5C 1205.82,630.553 1204.48,636.22 1201.5,641.5C 1192.86,642.498 1184.19,642.831 1175.5,642.5C 1171.72,525.126 1166.89,407.793 1161,290.5C 1150.42,257.343 1137.09,225.343 1121,194.5C 1110.79,165.362 1102.96,135.862 1097.5,106C 1103.43,104.609 1109.1,102.776 1114.5,100.5 Z"/></g>
<g><path style="opacity:1" fill="#fefefe" d="M 1070.5,113.5 C 1071.83,113.5 1073.17,113.5 1074.5,113.5C 1080.76,142.618 1088.59,171.285 1098,199.5C 1113.81,230.124 1127.15,261.791 1138,294.5C 1143.62,411.469 1148.46,528.469 1152.5,645.5C 1104.46,649.426 1056.46,653.759 1008.5,658.5C 1008.34,611.996 1008.67,565.496 1009.5,519C 1008.96,497.131 1007.46,475.298 1005,453.5C 1003.47,404.51 1003.14,355.51 1004,306.5C 1004.61,297.144 1005.45,287.811 1006.5,278.5C 1003.83,267.833 997.5,264.667 987.5,269C 985.383,270.731 983.883,272.898 983,275.5C 981.811,287.483 980.811,299.483 980,311.5C 979.667,346.5 979.333,381.5 979,416.5C 954.938,465.624 930.605,514.624 906,563.5C 900.228,579.835 893.894,595.835 887,611.5C 872.445,606.139 857.945,600.639 843.5,595C 842.903,593.938 842.57,592.772 842.5,591.5C 858.804,498.285 882.304,406.951 913,317.5C 926.717,278.01 943.717,240.01 964,203.5C 975.599,185.969 987.932,168.969 1001,152.5C 1010.8,141.86 1021.97,133.027 1034.5,126C 1046.57,121.7 1058.57,117.533 1070.5,113.5 Z"/></g>
<g><path style="opacity:1" fill="#a2c2f9" d="M 1385.5,467.5 C 1384.54,469.265 1384.21,471.265 1384.5,473.5C 1383.36,470.696 1383.2,467.696 1384,464.5C 1384.51,465.527 1385.01,466.527 1385.5,467.5 Z"/></g>
<g><path style="opacity:1" fill="#4485f4" d="M 1125.5,497.5 C 1132.27,496.698 1137.1,499.365 1140,505.5C 1142.14,543.481 1143.47,581.481 1144,619.5C 1142.93,624.235 1140.1,627.402 1135.5,629C 1106.48,630.203 1077.48,631.703 1048.5,633.5C 1042.65,634.157 1038.48,631.824 1036,626.5C 1035.01,586.749 1035.35,547.082 1037,507.5C 1040.44,502.919 1044.94,501.419 1050.5,503C 1055.89,507.362 1061.89,510.695 1068.5,513C 1089.42,514.635 1108.42,509.468 1125.5,497.5 Z"/></g>
<g><path style="opacity:1" fill="#4486f4" d="M 1239.5,509.5 C 1242.85,509.335 1246.18,509.502 1249.5,510C 1270,519.684 1291,521.018 1312.5,514C 1319.88,507.84 1327.04,508.006 1334,514.5C 1335.65,551.082 1335.99,587.749 1335,624.5C 1334.17,629.333 1331.33,632.167 1326.5,633C 1298.77,632.485 1271.11,630.818 1243.5,628C 1239.51,626.01 1237.01,622.843 1236,618.5C 1234.76,584.171 1234.1,549.837 1234,515.5C 1235.36,512.977 1237.19,510.977 1239.5,509.5 Z"/></g>
<g><path style="opacity:1" fill="#fdfefe" d="M 1117.5,527.5 C 1118.97,553.658 1119.97,579.991 1120.5,606.5C 1099.84,607.57 1079.17,608.57 1058.5,609.5C 1058.5,584.5 1058.5,559.5 1058.5,534.5C 1079.1,539.762 1098.77,537.429 1117.5,527.5 Z"/></g>
<g><path style="opacity:1" fill="#fefefe" d="M 1311.5,539.5 C 1311.5,562.5 1311.5,585.5 1311.5,608.5C 1307.5,608.5 1303.5,608.5 1299.5,608.5C 1285.94,607.652 1272.44,606.652 1259,605.5C 1258.29,583.17 1257.79,560.837 1257.5,538.5C 1275.43,543.275 1293.43,543.608 1311.5,539.5 Z"/></g>
<g><path style="opacity:1" fill="#caddfb" d="M 1299.5,608.5 C 1303.5,608.5 1307.5,608.5 1311.5,608.5C 1311.5,585.5 1311.5,562.5 1311.5,539.5C 1312.5,562.092 1312.83,585.425 1312.5,609.5C 1307.97,609.818 1303.63,609.485 1299.5,608.5 Z"/></g>
<g><path style="opacity:1" fill="#fbfcfe" d="M 1172.5,665.5 C 1186.17,665.333 1199.84,665.5 1213.5,666C 1252.84,672.8 1291.84,681.134 1330.5,691C 1313.97,693.99 1297.31,695.657 1280.5,696C 1217.56,696.797 1154.9,693.13 1092.5,685C 1080.09,683.037 1067.75,680.703 1055.5,678C 1094.7,674.215 1133.7,670.048 1172.5,665.5 Z"/></g>
</svg>
