<?xml version="1.0" encoding="UTF-8"?>
<!DOCTYPE svg PUBLIC "-//W3C//DTD SVG 1.1//EN" "http://www.w3.org/Graphics/SVG/1.1/DTD/svg11.dtd">
<svg xmlns="http://www.w3.org/2000/svg" version="1.1" width="2388px" height="1520px" style="shape-rendering:geometricPrecision; text-rendering:geometricPrecision; image-rendering:optimizeQuality; fill-rule:evenodd; clip-rule:evenodd" xmlns:xlink="http://www.w3.org/1999/xlink">
<g><path style="opacity:1" fill="#fefefe" d="M -0.5,-0.5 C 795.5,-0.5 1591.5,-0.5 2387.5,-0.5C 2387.5,506.167 2387.5,1012.83 2387.5,1519.5C 1591.5,1519.5 795.5,1519.5 -0.5,1519.5C -0.5,1012.83 -0.5,506.167 -0.5,-0.5 Z"/></g>
<g><path style="opacity:1" fill="#4485f4" d="M 1019.5,93.5 C 1140.83,93.3333 1262.17,93.5 1383.5,94C 1389.16,94.9956 1392.99,98.1622 1395,103.5C 1395.93,119.489 1396.6,135.489 1397,151.5C 1401.46,177.475 1405.79,203.475 1410,229.5C 1410.33,259.5 1410.67,289.5 1411,319.5C 1415.8,364.817 1420.47,410.15 1425,455.5C 1425.66,494.182 1426.66,532.849 1428,571.5C 1436.63,644.13 1444.97,716.797 1453,789.5C 1453.33,817.5 1453.67,845.5 1454,873.5C 1456.8,900.328 1459.63,927.162 1462.5,954C 1462.57,960.863 1459.57,965.863 1453.5,969C 1398.21,971.058 1342.88,972.891 1287.5,974.5C 1284.74,974.458 1282.07,973.958 1279.5,973C 1277.67,971.167 1275.83,969.333 1274,967.5C 1264.75,921.892 1255.75,876.226 1247,830.5C 1238.67,814.5 1230.33,798.5 1222,782.5C 1224.37,753.82 1227.2,725.154 1230.5,696.5C 1230.33,695.167 1230.17,693.833 1230,692.5C 1220.39,673.623 1211.06,654.623 1202,635.5C 1201.33,632.833 1201.33,630.167 1202,627.5C 1205.78,608.72 1209.28,589.886 1212.5,571C 1208.83,544.142 1205,517.309 1201,490.5C 1189.87,533.363 1179.2,576.363 1169,619.5C 1168.76,652.169 1168.76,684.836 1169,717.5C 1159.4,746.808 1149.9,776.142 1140.5,805.5C 1142.89,824.996 1145.22,844.496 1147.5,864C 1143.48,891.454 1139.65,918.954 1136,946.5C 1134.79,953.957 1133.13,961.291 1131,968.5C 1129.06,971.106 1126.56,972.939 1123.5,974C 1118,974.167 1112.5,974.333 1107,974.5C 1056.18,972.598 1005.35,971.098 954.5,970C 950.291,968.813 947.124,966.313 945,962.5C 943.357,932.895 943.024,903.228 944,873.5C 948.333,860.5 952.667,847.5 957,834.5C 957.648,787.166 958.315,739.833 959,692.5C 968.081,625.765 974.748,558.765 979,491.5C 982.572,437.495 986.238,383.495 990,329.5C 990.333,302.833 990.667,276.167 991,249.5C 996.118,218.126 1001.45,186.793 1007,155.5C 1007.48,138.826 1008.15,122.159 1009,105.5C 1010.94,100.068 1014.44,96.0678 1019.5,93.5 Z"/></g>
<g><path style="opacity:1" fill="#fefefe" d="M 1037.5,122.5 C 1147.5,122.5 1257.5,122.5 1367.5,122.5C 1367.5,127.833 1367.5,133.167 1367.5,138.5C 1257.5,138.5 1147.5,138.5 1037.5,138.5C 1037.5,133.167 1037.5,127.833 1037.5,122.5 Z"/></g>
<g><path style="opacity:1" fill="#b8d0fb" d="M 1037.5,122.5 C 1037.5,127.833 1037.5,133.167 1037.5,138.5C 1147.5,138.5 1257.5,138.5 1367.5,138.5C 1257.33,139.499 1147,139.833 1036.5,139.5C 1036.18,133.642 1036.51,127.975 1037.5,122.5 Z"/></g>
<g><path style="opacity:1" fill="#b0cbfa" d="M 1189.5,209.5 C 1189.5,195.833 1189.5,182.167 1189.5,168.5C 1168.5,168.5 1147.5,168.5 1126.5,168.5C 1126.83,187.674 1126.5,206.674 1125.5,225.5C 1125.5,206.167 1125.5,186.833 1125.5,167.5C 1147.17,167.5 1168.83,167.5 1190.5,167.5C 1190.83,181.677 1190.5,195.677 1189.5,209.5 Z"/></g>
<g><path style="opacity:1" fill="#fdfdfe" d="M 1034.5,167.5 C 1055.5,167.5 1076.5,167.5 1097.5,167.5C 1097.83,183.181 1097.5,198.848 1096.5,214.5C 1071.37,226.732 1046.04,238.398 1020.5,249.5C 1024.74,222.06 1029.41,194.726 1034.5,167.5 Z"/></g>
<g><path style="opacity:1" fill="#fefefe" d="M 1189.5,209.5 C 1188.67,277.875 1188.84,346.208 1190,414.5C 1173.17,481.47 1156.51,548.47 1140,615.5C 1140,648.167 1140,680.833 1140,713.5C 1129.99,743.362 1120.49,773.362 1111.5,803.5C 1113.83,823.505 1116.17,843.505 1118.5,863.5C 1114.46,890.787 1110.79,918.12 1107.5,945.5C 1062.27,944.157 1017.11,942.824 972,941.5C 971.333,921.167 971.333,900.833 972,880.5C 976.667,866.5 981.333,852.5 986,838.5C 986.295,784.797 987.461,731.131 989.5,677.5C 1013.15,679.898 1036.82,682.232 1060.5,684.5C 1066.38,684.932 1071.21,682.932 1075,678.5C 1077.17,672.317 1078.84,665.984 1080,659.5C 1090.41,605.707 1100.57,551.874 1110.5,498C 1109.87,491.691 1106.54,487.358 1100.5,485C 1069.82,482.583 1039.15,480.083 1008.5,477.5C 1011.76,429.487 1015.26,381.487 1019,333.5C 1019.5,315.836 1019.67,298.17 1019.5,280.5C 1027.35,278.243 1035.02,275.41 1042.5,272C 1068.29,259.939 1093.96,247.606 1119.5,235C 1122.94,232.727 1124.94,229.56 1125.5,225.5C 1126.5,206.674 1126.83,187.674 1126.5,168.5C 1147.5,168.5 1168.5,168.5 1189.5,168.5C 1189.5,182.167 1189.5,195.833 1189.5,209.5 Z"/></g>
<g><path style="opacity:1" fill="#fefefe" d="M 1234.5,168.5 C 1234.67,201.835 1234.5,235.168 1234,268.5C 1232.1,277.732 1227.1,284.732 1219,289.5C 1218.5,255.502 1218.33,221.502 1218.5,187.5C 1219.49,181.355 1219.82,175.022 1219.5,168.5C 1224.5,168.5 1229.5,168.5 1234.5,168.5 Z"/></g>
<g><path style="opacity:1" fill="#fefefe" d="M 1263.5,167.5 C 1269.17,167.5 1274.83,167.5 1280.5,167.5C 1280.33,186.836 1280.5,206.17 1281,225.5C 1281.72,227.949 1282.72,230.283 1284,232.5C 1315.78,249.224 1348.12,264.891 1381,279.5C 1381.33,292.5 1381.67,305.5 1382,318.5C 1386.4,363.198 1391.07,407.865 1396,452.5C 1396.5,460.827 1396.67,469.16 1396.5,477.5C 1364.8,479.503 1333.13,482.003 1301.5,485C 1295.67,487.835 1292.67,492.502 1292.5,499C 1302.98,558.696 1314.48,618.196 1327,677.5C 1329.76,681.922 1333.76,684.255 1339,684.5C 1363.16,681.973 1387.32,679.64 1411.5,677.5C 1415.58,713.167 1419.74,748.833 1424,784.5C 1423.31,837.045 1426.14,889.379 1432.5,941.5C 1387.84,943.276 1343.18,944.443 1298.5,945C 1289.97,903.279 1281.8,861.445 1274,819.5C 1266.92,805.674 1259.59,792.008 1252,778.5C 1251.33,773.5 1251.33,768.5 1252,763.5C 1255.27,737.891 1257.61,712.225 1259,686.5C 1250,668.5 1241,650.5 1232,632.5C 1231.33,629.5 1231.33,626.5 1232,623.5C 1235.26,606.348 1238.43,589.181 1241.5,572C 1233.91,517.84 1226.41,463.673 1219,409.5C 1217.61,381.178 1217.28,352.845 1218,324.5C 1224.56,319.607 1231.4,315.107 1238.5,311C 1252.74,300.027 1260.91,285.527 1263,267.5C 1263.5,234.168 1263.67,200.835 1263.5,167.5 Z"/></g>
<g><path style="opacity:1" fill="#fcfdfe" d="M 1309.5,167.5 C 1330.08,167.173 1350.58,167.507 1371,168.5C 1374.42,188.821 1377.75,209.154 1381,229.5C 1381.5,235.491 1381.67,241.491 1381.5,247.5C 1357.51,237.338 1333.84,226.338 1310.5,214.5C 1309.5,198.848 1309.17,183.181 1309.5,167.5 Z"/></g>
<g><path style="opacity:1" fill="#a7c5fa" d="M 1234.5,168.5 C 1229.5,168.5 1224.5,168.5 1219.5,168.5C 1219.82,175.022 1219.49,181.355 1218.5,187.5C 1218.5,180.833 1218.5,174.167 1218.5,167.5C 1224.03,167.179 1229.36,167.512 1234.5,168.5 Z"/></g>
<g><path style="opacity:1" fill="#fdfdfe" d="M 1006.5,506.5 C 1030.51,508.056 1054.51,509.723 1078.5,511.5C 1076.04,525.804 1073.71,540.137 1071.5,554.5C 1048.48,554.422 1025.48,553.756 1002.5,552.5C 1003.88,537.172 1005.21,521.839 1006.5,506.5 Z"/></g>
<g><path style="opacity:1" fill="#fdfefe" d="M 1389.5,506.5 C 1391.83,506.5 1394.17,506.5 1396.5,506.5C 1396.19,510.042 1396.52,513.375 1397.5,516.5C 1397.5,528.5 1397.5,540.5 1397.5,552.5C 1375.5,553.167 1353.5,553.833 1331.5,554.5C 1328.83,540.165 1326.17,525.832 1323.5,511.5C 1345.51,509.922 1367.51,508.255 1389.5,506.5 Z"/></g>
<g><path style="opacity:1" fill="#b8d0fb" d="M 1389.5,506.5 C 1391.95,505.527 1394.61,505.194 1397.5,505.5C 1397.5,509.167 1397.5,512.833 1397.5,516.5C 1396.52,513.375 1396.19,510.042 1396.5,506.5C 1394.17,506.5 1391.83,506.5 1389.5,506.5 Z"/></g>
<g><path style="opacity:1" fill="#fcfdfe" d="M 1000.5,581.5 C 1006.5,581.5 1012.5,581.5 1018.5,581.5C 1017.11,604.521 1015.44,627.521 1013.5,650.5C 1006.85,649.946 1000.18,649.612 993.5,649.5C 996.313,626.89 998.646,604.224 1000.5,581.5 Z"/></g>
<g><path style="opacity:1" fill="#fcfdfe" d="M 1407.5,644.5 C 1407.5,645.833 1407.5,647.167 1407.5,648.5C 1405.9,648.232 1404.57,648.566 1403.5,649.5C 1398.85,649.998 1394.18,650.331 1389.5,650.5C 1387.65,627.479 1385.65,604.479 1383.5,581.5C 1389.17,581.5 1394.83,581.5 1400.5,581.5C 1402.77,602.507 1405.11,623.507 1407.5,644.5 Z"/></g>
<g><path style="opacity:1" fill="#9cbef9" d="M 1344.5,583.5 C 1347.96,582.518 1351.63,582.185 1355.5,582.5C 1355.5,583.833 1355.5,585.167 1355.5,586.5C 1354.6,585.791 1354.26,584.791 1354.5,583.5C 1351.17,583.5 1347.83,583.5 1344.5,583.5 Z"/></g>
<g><path style="opacity:1" fill="#fafcfe" d="M 1047.5,583.5 C 1053.54,583.171 1059.54,583.504 1065.5,584.5C 1060.14,607.65 1055.8,630.983 1052.5,654.5C 1049.17,654.5 1045.83,654.5 1042.5,654.5C 1043.56,630.79 1045.23,607.124 1047.5,583.5 Z"/></g>
<g><path style="opacity:1" fill="#fafcfe" d="M 1344.5,583.5 C 1347.83,583.5 1351.17,583.5 1354.5,583.5C 1354.26,584.791 1354.6,585.791 1355.5,586.5C 1357.28,609.158 1358.94,631.825 1360.5,654.5C 1357.17,654.5 1353.83,654.5 1350.5,654.5C 1346.3,630.811 1341.96,607.144 1337.5,583.5C 1339.83,583.5 1342.17,583.5 1344.5,583.5 Z"/></g>
<g><path style="opacity:1" fill="#abc7fa" d="M 1407.5,644.5 C 1408.45,645.919 1408.78,647.585 1408.5,649.5C 1406.83,649.5 1405.17,649.5 1403.5,649.5C 1404.57,648.566 1405.9,648.232 1407.5,648.5C 1407.5,647.167 1407.5,645.833 1407.5,644.5 Z"/></g>
</svg>
