<?xml version="1.0" encoding="UTF-8"?>
<!DOCTYPE svg PUBLIC "-//W3C//DTD SVG 1.1//EN" "http://www.w3.org/Graphics/SVG/1.1/DTD/svg11.dtd">
<svg xmlns="http://www.w3.org/2000/svg" version="1.1" width="2388px" height="1520px" style="shape-rendering:geometricPrecision; text-rendering:geometricPrecision; image-rendering:optimizeQuality; fill-rule:evenodd; clip-rule:evenodd" xmlns:xlink="http://www.w3.org/1999/xlink">
<g><path style="opacity:1" fill="#fefefe" d="M -0.5,-0.5 C 795.5,-0.5 1591.5,-0.5 2387.5,-0.5C 2387.5,506.167 2387.5,1012.83 2387.5,1519.5C 1591.5,1519.5 795.5,1519.5 -0.5,1519.5C -0.5,1012.83 -0.5,506.167 -0.5,-0.5 Z"/></g>
<g><path style="opacity:1" fill="#4486f4" d="M 1168.5,49.5 C 1192.53,47.2733 1215.2,51.7733 1236.5,63C 1248.57,73.883 1260.9,84.5497 1273.5,95C 1283.22,102.389 1293.22,109.389 1303.5,116C 1305.38,117.543 1306.88,119.376 1308,121.5C 1308.04,125.563 1308.87,129.397 1310.5,133C 1328.04,141.939 1345.71,150.605 1363.5,159C 1364.33,159.833 1365.17,160.667 1366,161.5C 1432.05,300.638 1480.71,445.638 1512,596.5C 1515.49,616.14 1518.83,635.807 1522,655.5C 1522.67,659.833 1522.67,664.167 1522,668.5C 1521.65,670.848 1520.49,672.681 1518.5,674C 1486.22,679.184 1453.88,684.184 1421.5,689C 1417.04,689.867 1412.71,689.534 1408.5,688C 1404.79,683.542 1402.62,678.376 1402,672.5C 1394.32,636.084 1386.32,599.751 1378,563.5C 1377.67,612.5 1377.33,661.5 1377,710.5C 1375.83,715 1373,717.833 1368.5,719C 1244.17,719.667 1119.83,719.667 995.5,719C 991.572,717.407 989.072,714.573 988,710.5C 987.667,661.5 987.333,612.5 987,563.5C 978.452,601.454 970.119,639.454 962,677.5C 960.083,687.936 953.917,691.769 943.5,689C 912.52,684.547 881.52,680.214 850.5,676C 844.271,673.877 841.604,669.544 842.5,663C 853.346,586.138 870.179,510.638 893,436.5C 921.852,342.267 957.186,250.6 999,161.5C 999.833,160.667 1000.67,159.833 1001.5,159C 1019.71,149.728 1038.04,140.728 1056.5,132C 1058.1,128.733 1058.93,125.233 1059,121.5C 1060.46,119.04 1062.29,116.873 1064.5,115C 1084.84,102.977 1103.17,88.3102 1119.5,71C 1133.97,59.4596 1150.3,52.293 1168.5,49.5 Z"/></g>
<g><path style="opacity:1" fill="#fdfefe" d="M 1171.5,71.5 C 1191.04,69.7743 1209.37,73.6076 1226.5,83C 1244.77,101.28 1264.77,117.28 1286.5,131C 1289.4,148.036 1291.74,165.202 1293.5,182.5C 1275.83,182.333 1258.16,182.5 1240.5,183C 1232.48,186.872 1230.65,192.706 1235,200.5C 1248.41,209.79 1261.91,218.957 1275.5,228C 1225.66,255.754 1175.66,283.254 1125.5,310.5C 1125.17,310.333 1124.83,310.167 1124.5,310C 1167.43,245.987 1205.93,179.154 1240,109.5C 1239.99,99.1683 1234.82,95.0017 1224.5,97C 1222.71,97.7845 1221.21,98.9512 1220,100.5C 1206.26,128.309 1191.76,155.642 1176.5,182.5C 1162.45,158.089 1155.28,131.755 1155,103.5C 1150.01,95.8704 1143.68,94.537 1136,99.5C 1135.58,100.672 1134.91,101.672 1134,102.5C 1132.89,128.718 1137.89,153.718 1149,177.5C 1153.46,186.92 1158.29,196.086 1163.5,205C 1152.64,224.565 1141.14,243.731 1129,262.5C 1114.83,251.667 1100.67,240.833 1086.5,230C 1101,220.167 1115.5,210.333 1130,200.5C 1133.99,192.815 1132.16,186.981 1124.5,183C 1107.17,182.5 1089.84,182.333 1072.5,182.5C 1075.33,165.539 1077.83,148.539 1080,131.5C 1090.78,124.388 1101.28,116.888 1111.5,109C 1122.17,99.6667 1132.83,90.3333 1143.5,81C 1152.57,76.6991 1161.9,73.5324 1171.5,71.5 Z"/></g>
<g><path style="opacity:1" fill="#fdfefe" d="M 1051.5,158.5 C 1052.5,158.47 1053.16,158.97 1053.5,160C 1051.9,170.791 1050.56,181.624 1049.5,192.5C 1048.74,197.821 1050.74,201.654 1055.5,204C 1064.83,204.333 1074.17,204.667 1083.5,205C 1074.72,210.78 1066.22,216.946 1058,223.5C 1055.24,229.585 1056.4,234.752 1061.5,239C 1080.29,252.624 1098.62,266.79 1116.5,281.5C 1104.08,301.353 1090.91,320.687 1077,339.5C 1076.5,458.5 1076.33,577.5 1076.5,696.5C 1054.17,696.5 1031.83,696.5 1009.5,696.5C 1009.33,616.499 1009.5,536.499 1010,456.5C 1021.25,409.419 1031.25,362.086 1040,314.5C 1043.93,286.53 1044.27,258.53 1041,230.5C 1040.55,224.854 1038.39,220.02 1034.5,216C 1026.39,212.39 1020.56,214.557 1017,222.5C 1018.64,230.683 1019.97,239.017 1021,247.5C 1021.57,272.594 1020.24,297.594 1017,322.5C 991.937,437.219 966.771,551.886 941.5,666.5C 916.136,663.019 890.803,659.353 865.5,655.5C 882.849,547.107 910.682,441.44 949,338.5C 969.016,283.468 991.516,229.468 1016.5,176.5C 1028.35,170.741 1040.02,164.741 1051.5,158.5 Z"/></g>
<g><path style="opacity:1" fill="#fefefe" d="M 1283.5,206.5 C 1291.83,205.833 1300.17,205.167 1308.5,204.5C 1312.81,203.931 1315.65,201.598 1317,197.5C 1316.42,184.77 1315.42,172.103 1314,159.5C 1324.98,164.825 1335.98,170.159 1347,175.5C 1349.83,179.143 1352.16,183.143 1354,187.5C 1409.18,307.868 1451.85,432.535 1482,561.5C 1488.9,592.644 1494.73,623.977 1499.5,655.5C 1473.93,659.552 1448.26,662.885 1422.5,665.5C 1399.07,554.365 1374.9,443.365 1350,332.5C 1345.1,304.036 1343.1,275.369 1344,246.5C 1344.85,239.179 1346.35,232.013 1348.5,225C 1346.7,216.165 1341.37,212.831 1332.5,215C 1327.22,218.717 1324.39,223.884 1324,230.5C 1320.48,262.225 1321.15,293.892 1326,325.5C 1335.78,369.827 1345.44,414.16 1355,458.5C 1355.5,537.833 1355.67,617.166 1355.5,696.5C 1269.83,696.5 1184.17,696.5 1098.5,696.5C 1098.33,581.166 1098.5,465.833 1099,350.5C 1167.26,312.619 1235.76,275.119 1304.5,238C 1308.59,233.717 1309.42,228.884 1307,223.5C 1299.58,217.212 1291.75,211.545 1283.5,206.5 Z"/></g>
<g><path style="opacity:1" fill="#c8dbfb" d="M 1308.5,204.5 C 1300.17,205.167 1291.83,205.833 1283.5,206.5C 1282.71,206.217 1282.04,205.717 1281.5,205C 1290.49,204.5 1299.49,204.334 1308.5,204.5 Z"/></g>
<g><path style="opacity:1" fill="#4586f4" d="M 1134.5,383.5 C 1144.96,381.485 1153.12,384.818 1159,393.5C 1162.31,411.522 1154.81,420.355 1136.5,420C 1124.72,414.351 1120.88,405.185 1125,392.5C 1127.41,388.592 1130.57,385.592 1134.5,383.5 Z"/></g>
<g><path style="opacity:1" fill="#4687f4" d="M 1229.5,383.5 C 1238.44,381.648 1245.94,383.981 1252,390.5C 1258.46,403.783 1254.96,413.616 1241.5,420C 1223.84,420.662 1216.34,412.162 1219,394.5C 1221.36,389.645 1224.86,385.979 1229.5,383.5 Z"/></g>
<g><path style="opacity:1" fill="#4686f4" d="M 1135.5,465.5 C 1155.83,464.658 1163.33,473.991 1158,493.5C 1151.02,502.829 1142.19,504.996 1131.5,500C 1123.05,492.614 1121.22,483.781 1126,473.5C 1128.77,470.217 1131.94,467.55 1135.5,465.5 Z"/></g>
<g><path style="opacity:1" fill="#4586f4" d="M 1230.5,465.5 C 1247.68,463.855 1255.85,471.522 1255,488.5C 1249.4,501.88 1239.9,505.714 1226.5,500C 1218.14,492.575 1216.31,483.742 1221,473.5C 1223.77,470.217 1226.94,467.55 1230.5,465.5 Z"/></g>
<g><path style="opacity:1" fill="#4787f4" d="M 1136.5,547.5 C 1147.29,546.452 1155.12,550.786 1160,560.5C 1161.42,577.072 1153.92,585.239 1137.5,585C 1124.08,579.077 1120.24,569.243 1126,555.5C 1128.94,551.963 1132.44,549.297 1136.5,547.5 Z"/></g>
<g><path style="opacity:1" fill="#4787f4" d="M 1231.5,547.5 C 1242.27,546.483 1250.11,550.816 1255,560.5C 1256.52,576.976 1249.02,585.142 1232.5,585C 1219.08,579.077 1215.24,569.243 1221,555.5C 1223.94,551.963 1227.44,549.297 1231.5,547.5 Z"/></g>
</svg>
