<?xml version="1.0" encoding="UTF-8"?>
<!DOCTYPE svg PUBLIC "-//W3C//DTD SVG 1.1//EN" "http://www.w3.org/Graphics/SVG/1.1/DTD/svg11.dtd">
<svg xmlns="http://www.w3.org/2000/svg" version="1.1" width="2388px" height="1520px" style="shape-rendering:geometricPrecision; text-rendering:geometricPrecision; image-rendering:optimizeQuality; fill-rule:evenodd; clip-rule:evenodd" xmlns:xlink="http://www.w3.org/1999/xlink">
<g><path style="opacity:1" fill="#fefefe" d="M -0.5,-0.5 C 795.5,-0.5 1591.5,-0.5 2387.5,-0.5C 2387.5,506.167 2387.5,1012.83 2387.5,1519.5C 1591.5,1519.5 795.5,1519.5 -0.5,1519.5C -0.5,1012.83 -0.5,506.167 -0.5,-0.5 Z"/></g>
<g><path style="opacity:1" fill="#4887f4" d="M 1060.5,223.5 C 1073.37,226.8 1086.37,229.634 1099.5,232C 1124.44,235.561 1148.77,233.228 1172.5,225C 1174.83,224.333 1177.17,224.333 1179.5,225C 1182.38,230.28 1184.88,235.78 1187,241.5C 1191.8,262.892 1198.8,283.559 1208,303.5C 1211.74,321.267 1207.24,336.433 1194.5,349C 1188.17,353.443 1181.17,356.11 1173.5,357C 1149.5,357.333 1125.5,357.667 1101.5,358C 1088.07,358.042 1075.07,360.375 1062.5,365C 1013.77,392.963 961.774,401.296 906.5,390C 893.993,387.666 883.493,381.832 875,372.5C 869.506,361.95 869.173,351.283 874,340.5C 878.151,335.683 883.318,332.517 889.5,331C 925.243,335.851 957.91,328.185 987.5,308C 1007.03,288.136 1026.2,267.969 1045,247.5C 1049.93,239.302 1055.09,231.302 1060.5,223.5 Z"/></g>
<g><path style="opacity:1" fill="#f4f8fe" d="M 1065.5,235.5 C 1101.09,247.054 1136.76,247.387 1172.5,236.5C 1173.36,237.736 1174.02,239.069 1174.5,240.5C 1165.78,245.183 1156.44,248.016 1146.5,249C 1118.67,252.167 1091.34,249.833 1064.5,242C 1063.69,241.692 1063.03,241.192 1062.5,240.5C 1063.26,238.64 1064.26,236.973 1065.5,235.5 Z"/></g>
<g><path style="opacity:1" fill="#fefefe" d="M 1055.5,250.5 C 1086.1,260.355 1117.44,263.522 1149.5,260C 1159.18,258.58 1168.51,256.247 1177.5,253C 1181.52,264.064 1185.36,275.231 1189,286.5C 1191.06,291.62 1193.39,296.62 1196,301.5C 1197.53,309.436 1197.86,317.436 1197,325.5C 1196.26,327.221 1195.43,328.887 1194.5,330.5C 1183.66,323.246 1172.99,315.746 1162.5,308C 1158.19,306.461 1155.53,307.794 1154.5,312C 1154.7,314.406 1155.7,316.406 1157.5,318C 1167.86,324.845 1177.86,332.178 1187.5,340C 1183.66,342.952 1179.33,344.952 1174.5,346C 1149.83,346.333 1125.17,346.667 1100.5,347C 1084.9,347.089 1069.9,350.089 1055.5,356C 1015.85,379.431 973.179,387.931 927.5,381.5C 936.08,369.432 938.913,356.099 936,341.5C 958.058,336.885 978.225,328.052 996.5,315C 1009.97,300.529 1023.8,286.362 1038,272.5C 1044.57,265.652 1050.41,258.319 1055.5,250.5 Z"/></g>
<g><path style="opacity:1" fill="#fdfdfe" d="M 891.5,341.5 C 902.187,341.168 912.854,341.501 923.5,342.5C 927.924,355.831 925.591,367.831 916.5,378.5C 904.398,379.537 893.898,375.871 885,367.5C 881.669,361.618 880.669,355.285 882,348.5C 884.529,345.115 887.696,342.782 891.5,341.5 Z"/></g>
</svg>
