<?xml version="1.0" encoding="UTF-8"?>
<!DOCTYPE svg PUBLIC "-//W3C//DTD SVG 1.1//EN" "http://www.w3.org/Graphics/SVG/1.1/DTD/svg11.dtd">
<svg xmlns="http://www.w3.org/2000/svg" version="1.1" width="2388px" height="1520px" style="shape-rendering:geometricPrecision; text-rendering:geometricPrecision; image-rendering:optimizeQuality; fill-rule:evenodd; clip-rule:evenodd" xmlns:xlink="http://www.w3.org/1999/xlink">
<g><path style="opacity:1" fill="#fefefe" d="M -0.5,-0.5 C 795.5,-0.5 1591.5,-0.5 2387.5,-0.5C 2387.5,506.167 2387.5,1012.83 2387.5,1519.5C 1591.5,1519.5 795.5,1519.5 -0.5,1519.5C -0.5,1012.83 -0.5,506.167 -0.5,-0.5 Z"/></g>
<g><path style="opacity:1" fill="#4586f4" d="M 1087.5,50.5 C 1138.6,49.1132 1174.1,71.7799 1194,118.5C 1198.73,134.462 1200.73,150.795 1200,167.5C 1204.89,172.7 1210.72,176.534 1217.5,179C 1226.95,182.446 1236.62,185.113 1246.5,187C 1285.95,191.848 1325.29,197.515 1364.5,204C 1381.86,207.56 1397.86,214.227 1412.5,224C 1431.72,241.635 1435.89,262.468 1425,286.5C 1420.03,296.472 1413.2,304.972 1404.5,312C 1385.6,324.278 1365.27,333.612 1343.5,340C 1289.63,353.311 1234.96,361.645 1179.5,365C 1093.46,370.077 1007.79,366.411 922.5,354C 889.779,348.87 857.779,340.87 826.5,330C 808.038,323.36 792.205,312.86 779,298.5C 767.062,281.593 764.062,263.259 770,243.5C 776.167,232 785,223.167 796.5,217C 817.232,207.733 838.899,201.733 861.5,199C 894.292,195.565 926.959,191.231 959.5,186C 965.12,183.078 970.787,180.078 976.5,177C 979.757,175.957 983.09,175.457 986.5,175.5C 987.074,165.685 990.907,157.351 998,150.5C 1004.93,96.4127 1034.77,63.0793 1087.5,50.5 Z"/></g>
<g><path style="opacity:1" fill="#fefefe" d="M 1086.5,72.5 C 1130.53,69.9191 1160.03,89.2525 1175,130.5C 1177.41,141.376 1178.08,152.376 1177,163.5C 1174.59,165.956 1171.76,167.789 1168.5,169C 1145.48,176.836 1121.82,180.169 1097.5,179C 1092.09,175.313 1086.09,173.48 1079.5,173.5C 1078.9,158.461 1071.57,148.294 1057.5,143C 1047.29,141.625 1038.79,144.792 1032,152.5C 1029.04,149.601 1025.54,147.601 1021.5,146.5C 1021.17,145.667 1020.83,144.833 1020.5,144C 1028.57,107.108 1050.57,83.2748 1086.5,72.5 Z"/></g>
<g><path style="opacity:1" fill="#fbfcfe" d="M 1050.5,164.5 C 1053.81,163.974 1055.97,165.307 1057,168.5C 1058.21,175.087 1058.88,181.754 1059,188.5C 1059.78,190.286 1060.95,191.786 1062.5,193C 1069.06,194.255 1075.73,194.922 1082.5,195C 1088.45,197.189 1089.61,200.689 1086,205.5C 1068.01,214.777 1068.01,224.111 1086,233.5C 1088.07,235.455 1088.74,237.788 1088,240.5C 1085.7,242.068 1083.2,243.235 1080.5,244C 1074.83,244.333 1069.17,244.667 1063.5,245C 1062,246.5 1060.5,248 1059,249.5C 1058.67,255.167 1058.33,260.833 1058,266.5C 1057.24,269.196 1056.07,271.696 1054.5,274C 1051.79,274.738 1049.45,274.071 1047.5,272C 1045.29,268.414 1042.96,264.914 1040.5,261.5C 1036.7,259.578 1032.7,259.078 1028.5,260C 1024.5,265.333 1020.5,270.667 1016.5,276C 1011.45,276.97 1008.62,274.803 1008,269.5C 1007.34,265.304 1007.5,261.138 1008.5,257C 1007.96,251.895 1005.29,248.562 1000.5,247C 994.833,246.667 989.167,246.333 983.5,246C 979.23,245.088 977.396,242.588 978,238.5C 981.973,234.682 986.306,231.349 991,228.5C 993.753,224.667 994.086,220.667 992,216.5C 987.667,213.167 983.333,209.833 979,206.5C 977.813,204.956 977.48,203.289 978,201.5C 983.498,196.598 989.831,195.265 997,197.5C 1001.45,197.276 1004.79,195.276 1007,191.5C 1007.33,185.5 1007.67,179.5 1008,173.5C 1009.07,168.743 1011.9,166.909 1016.5,168C 1020.23,171.463 1023.23,175.463 1025.5,180C 1030.17,183.333 1034.83,183.333 1039.5,180C 1042.05,176.41 1044.21,172.577 1046,168.5C 1047.4,166.93 1048.9,165.596 1050.5,164.5 Z"/></g>
<g><path style="opacity:1" fill="#fcfdfe" d="M 1176.5,188.5 C 1177.82,197.675 1177.82,207.008 1176.5,216.5C 1171.46,219.187 1166.13,221.02 1160.5,222C 1142.98,225.351 1125.31,227.017 1107.5,227C 1105.71,224.586 1104.04,222.086 1102.5,219.5C 1107.08,214.347 1109.41,208.347 1109.5,201.5C 1127.1,200.867 1144.43,198.367 1161.5,194C 1166.86,192.829 1171.86,190.996 1176.5,188.5 Z"/></g>
<g><path style="opacity:1" fill="#fefefe" d="M 1199.5,194.5 C 1211.22,200.351 1223.56,204.517 1236.5,207C 1273.78,212.692 1311.11,218.026 1348.5,223C 1365.45,225.569 1381.45,230.903 1396.5,239C 1406.97,245.723 1410.8,255.223 1408,267.5C 1405.84,279.652 1399.67,289.152 1389.5,296C 1374.32,305.752 1357.99,313.085 1340.5,318C 1306.76,327.536 1272.43,334.203 1237.5,338C 1119.47,351.559 1002.14,347.226 885.5,325C 859.785,320.096 835.452,311.429 812.5,299C 793.491,288.649 785.991,272.816 790,251.5C 793.167,245.667 797.667,241.167 803.5,238C 818.052,230.622 833.385,225.622 849.5,223C 885.524,218.33 921.524,213.497 957.5,208.5C 958.139,213.445 960.139,217.778 963.5,221.5C 955.596,231.737 954.429,242.737 960,254.5C 966.681,263.257 975.514,267.924 986.5,268.5C 987.073,281.491 993.073,290.991 1004.5,297C 1015.85,299.941 1025.85,297.441 1034.5,289.5C 1043.8,296.095 1053.8,297.262 1064.5,293C 1074.33,286.503 1079.33,277.336 1079.5,265.5C 1091.83,265.337 1101.16,260.004 1107.5,249.5C 1125.26,248.328 1142.92,246.494 1160.5,244C 1170.65,242.06 1180.32,238.727 1189.5,234C 1194.25,230.586 1197.42,226.086 1199,220.5C 1199.5,211.84 1199.67,203.173 1199.5,194.5 Z"/></g>
<g><path style="opacity:1" fill="#4586f4" d="M 1027.5,194.5 C 1050.35,194.563 1060.52,205.896 1058,228.5C 1049.76,245.36 1036.92,250.194 1019.5,243C 1007.45,234.037 1004.28,222.537 1010,208.5C 1014.26,201.721 1020.1,197.054 1027.5,194.5 Z"/></g>
<g><path style="opacity:1" fill="#f2f6fe" d="M 1030.5,216.5 C 1037,216.138 1038.67,218.638 1035.5,224C 1028.74,224.756 1027.08,222.256 1030.5,216.5 Z"/></g>
</svg>
