<?xml version="1.0" encoding="UTF-8"?>
<!DOCTYPE svg PUBLIC "-//W3C//DTD SVG 1.1//EN" "http://www.w3.org/Graphics/SVG/1.1/DTD/svg11.dtd">
<svg xmlns="http://www.w3.org/2000/svg" version="1.1" width="2388px" height="1520px" style="shape-rendering:geometricPrecision; text-rendering:geometricPrecision; image-rendering:optimizeQuality; fill-rule:evenodd; clip-rule:evenodd" xmlns:xlink="http://www.w3.org/1999/xlink">
<g><path style="opacity:1" fill="#fefefe" d="M -0.5,-0.5 C 795.5,-0.5 1591.5,-0.5 2387.5,-0.5C 2387.5,506.167 2387.5,1012.83 2387.5,1519.5C 1591.5,1519.5 795.5,1519.5 -0.5,1519.5C -0.5,1012.83 -0.5,506.167 -0.5,-0.5 Z"/></g>
<g><path style="opacity:1" fill="#4586f4" d="M 1124.5,338.5 C 1125.45,337.081 1125.78,335.415 1125.5,333.5C 1118.17,333.5 1110.83,333.5 1103.5,333.5C 1103.22,335.415 1103.55,337.081 1104.5,338.5C 1104.94,346.943 1104.44,355.277 1103,363.5C 1101.79,365.049 1100.29,366.215 1098.5,367C 1093.51,367.499 1088.51,367.666 1083.5,367.5C 1075.77,415.067 1048.44,444.567 1001.5,456C 954.308,462.483 918.141,445.65 893,405.5C 886.437,393.645 882.603,380.978 881.5,367.5C 876.489,367.666 871.489,367.499 866.5,367C 863.667,365.5 861.5,363.333 860,360.5C 859.886,353.421 859.219,346.421 858,339.5C 855.106,333.938 851.439,328.938 847,324.5C 846.048,313.735 846.381,303.068 848,292.5C 849.167,291.333 850.333,290.167 851.5,289C 863.086,288.291 874.419,286.291 885.5,283C 913.039,261.543 944.373,251.377 979.5,252.5C 1014.07,250.47 1045.4,259.304 1073.5,279C 1085.49,288.826 1094.16,300.993 1099.5,315.5C 1109.5,316.833 1119.5,316.833 1129.5,315.5C 1141.98,286.191 1163.65,267.357 1194.5,259C 1228.82,250.409 1263.16,250.409 1297.5,259C 1314.41,263.617 1329.41,271.617 1342.5,283C 1353.89,286.62 1365.55,288.62 1377.5,289C 1379.38,290.543 1380.88,292.376 1382,294.5C 1382.67,304.5 1382.67,314.5 1382,324.5C 1377.56,328.938 1373.89,333.938 1371,339.5C 1369.78,346.421 1369.11,353.421 1369,360.5C 1367.5,363.333 1365.33,365.5 1362.5,367C 1357.51,367.499 1352.51,367.666 1347.5,367.5C 1343.15,401.707 1326.15,427.541 1296.5,445C 1249.14,467.443 1206.98,460.276 1170,423.5C 1156.11,407.388 1147.95,388.722 1145.5,367.5C 1140.49,367.666 1135.49,367.499 1130.5,367C 1128.71,366.215 1127.21,365.049 1126,363.5C 1124.56,355.277 1124.06,346.943 1124.5,338.5 Z"/></g>
<g><path style="opacity:1" fill="#f8fafe" d="M 864.5,318.5 C 863.985,313.52 864.652,308.854 866.5,304.5C 876.402,303.48 886.068,301.313 895.5,298C 919.762,278.078 947.762,268.578 979.5,269.5C 1004.83,268.774 1028.83,273.941 1051.5,285C 1075.82,299.469 1087.82,320.969 1087.5,349.5C 1086.5,349.5 1085.5,349.5 1084.5,349.5C 1082.11,318.549 1066.78,296.716 1038.5,284C 1001.95,270.406 965.28,270.073 928.5,283C 898.889,295.403 882.889,317.569 880.5,349.5C 879.5,349.5 878.5,349.5 877.5,349.5C 877.233,337.339 872.899,327.006 864.5,318.5 Z"/></g>
<g><path style="opacity:1" fill="#f8fafe" d="M 1360.5,304.5 C 1361.57,305.434 1362.9,305.768 1364.5,305.5C 1364.5,309.833 1364.5,314.167 1364.5,318.5C 1356.1,327.006 1351.77,337.339 1351.5,349.5C 1350.5,349.5 1349.5,349.5 1348.5,349.5C 1344.64,312.459 1324.64,288.959 1288.5,279C 1256.07,270.59 1224.07,271.924 1192.5,283C 1163.14,295.529 1147.14,317.696 1144.5,349.5C 1143.5,349.5 1142.5,349.5 1141.5,349.5C 1141.83,316.347 1157.16,293.181 1187.5,280C 1226.79,266.045 1266.13,266.045 1305.5,280C 1316.3,285.148 1326.3,291.482 1335.5,299C 1343.65,301.691 1351.98,303.524 1360.5,304.5 Z"/></g>
<g><path style="opacity:1" fill="#fefefe" d="M 970.5,291.5 C 994.309,289.745 1016.98,293.912 1038.5,304C 1054.24,312.97 1063.41,326.47 1066,344.5C 1069.01,390.673 1048.85,421.506 1005.5,437C 964.364,446.295 932.197,433.461 909,398.5C 896.939,377.147 894.606,354.814 902,331.5C 908.957,315.877 920.457,305.044 936.5,299C 947.623,294.882 958.956,292.382 970.5,291.5 Z"/></g>
<g><path style="opacity:1" fill="#fefefe" d="M 1234.5,291.5 C 1254.32,290.308 1273.65,292.808 1292.5,299C 1323.28,313.046 1335.78,336.88 1330,370.5C 1321.08,409.548 1296.91,432.715 1257.5,440C 1214.34,442.51 1184.17,424.01 1167,384.5C 1161.03,366.153 1161.03,347.82 1167,329.5C 1176.86,310.629 1192.36,299.129 1213.5,295C 1220.61,293.607 1227.61,292.44 1234.5,291.5 Z"/></g>
<g><path style="opacity:1" fill="#7caaf7" d="M 866.5,304.5 C 864.652,308.854 863.985,313.52 864.5,318.5C 863.514,314.03 863.181,309.363 863.5,304.5C 864.5,304.5 865.5,304.5 866.5,304.5 Z"/></g>
<g><path style="opacity:1" fill="#80adf7" d="M 1360.5,304.5 C 1362.17,304.5 1363.83,304.5 1365.5,304.5C 1365.82,309.363 1365.49,314.03 1364.5,318.5C 1364.5,314.167 1364.5,309.833 1364.5,305.5C 1362.9,305.768 1361.57,305.434 1360.5,304.5 Z"/></g>
<g><path style="opacity:1" fill="#74a5f7" d="M 1124.5,338.5 C 1124.5,337.167 1124.5,335.833 1124.5,334.5C 1117.83,334.5 1111.17,334.5 1104.5,334.5C 1104.5,335.833 1104.5,337.167 1104.5,338.5C 1103.55,337.081 1103.22,335.415 1103.5,333.5C 1110.83,333.5 1118.17,333.5 1125.5,333.5C 1125.78,335.415 1125.45,337.081 1124.5,338.5 Z"/></g>
</svg>
