<?xml version="1.0" encoding="UTF-8"?>
<!DOCTYPE svg PUBLIC "-//W3C//DTD SVG 1.1//EN" "http://www.w3.org/Graphics/SVG/1.1/DTD/svg11.dtd">
<svg xmlns="http://www.w3.org/2000/svg" version="1.1" width="2388px" height="1520px" style="shape-rendering:geometricPrecision; text-rendering:geometricPrecision; image-rendering:optimizeQuality; fill-rule:evenodd; clip-rule:evenodd" xmlns:xlink="http://www.w3.org/1999/xlink">
<g><path style="opacity:1" fill="#fefefe" d="M -0.5,-0.5 C 795.5,-0.5 1591.5,-0.5 2387.5,-0.5C 2387.5,506.167 2387.5,1012.83 2387.5,1519.5C 1591.5,1519.5 795.5,1519.5 -0.5,1519.5C -0.5,1012.83 -0.5,506.167 -0.5,-0.5 Z"/></g>
<g><path style="opacity:1" fill="#4586f4" d="M 1231.5,104.5 C 1231.17,139.506 1231.5,174.506 1232.5,209.5C 1233.11,209.376 1233.44,209.043 1233.5,208.5C 1238.27,206.618 1242.93,204.452 1247.5,202C 1261.81,190.844 1276.48,180.177 1291.5,170C 1302.47,162.847 1314.47,160.513 1327.5,163C 1361.98,174.815 1384.15,198.315 1394,233.5C 1398.05,273.363 1385.22,306.529 1355.5,333C 1328.4,354.382 1298.07,369.716 1264.5,379C 1228.56,389.211 1191.9,394.878 1154.5,396C 1093.25,399.763 1032.25,397.43 971.5,389C 934.377,382.071 899.377,369.405 866.5,351C 845.048,338.548 827.882,321.715 815,300.5C 789.438,247.219 800.938,204.052 849.5,171C 868.01,160.102 886.677,159.769 905.5,170C 919.856,179.845 933.856,190.179 947.5,201C 952.642,204.904 958.309,207.738 964.5,209.5C 964.56,210.043 964.893,210.376 965.5,210.5C 966.5,175.173 966.833,139.84 966.5,104.5C 971.102,67.0581 990.769,40.8915 1025.5,26C 1037.81,20.7342 1050.47,19.4008 1063.5,22C 1070.71,33.2079 1080.37,41.5412 1092.5,47C 1100.1,48.044 1107.1,46.3773 1113.5,42C 1121.82,35.6811 1129.48,28.6811 1136.5,21C 1179.13,21.0565 1208.96,40.5565 1226,79.5C 1229.26,87.5332 1231.09,95.8665 1231.5,104.5 Z"/></g>
<g><path style="opacity:1" fill="#fefefe" d="M 1042.5,40.5 C 1046.55,40.1758 1050.55,40.5091 1054.5,41.5C 1063.7,53.8848 1075.7,62.0515 1090.5,66C 1104.62,67.4065 1117.28,63.7398 1128.5,55C 1133.8,50.7002 1138.8,46.0336 1143.5,41C 1171.2,42.2715 1191.7,55.1048 1205,79.5C 1208.13,86.2316 1210.47,93.2316 1212,100.5C 1212.67,132.167 1212.67,163.833 1212,195.5C 1143.99,219.12 1075.16,221.62 1005.5,203C 999.129,200.932 992.796,198.765 986.5,196.5C 985.333,164.172 985.167,131.838 986,99.5C 993.513,68.8234 1012.35,49.1568 1042.5,40.5 Z"/></g>
<g><path style="opacity:1" fill="#91b8f8" d="M 966.5,104.5 C 966.833,139.84 966.5,175.173 965.5,210.5C 964.893,210.376 964.56,210.043 964.5,209.5C 965.167,174.5 965.833,139.5 966.5,104.5 Z"/></g>
<g><path style="opacity:1" fill="#b1ccfa" d="M 1231.5,104.5 C 1232.17,139.167 1232.83,173.833 1233.5,208.5C 1233.44,209.043 1233.11,209.376 1232.5,209.5C 1231.5,174.506 1231.17,139.506 1231.5,104.5 Z"/></g>
<g><path style="opacity:1" fill="#fefefe" d="M 872.5,181.5 C 880.413,180.416 887.747,181.916 894.5,186C 911.167,198 927.833,210 944.5,222C 950.927,226.197 957.927,228.697 965.5,229.5C 965.334,235.842 965.5,242.175 966,248.5C 967.588,253.052 970.755,255.885 975.5,257C 1015.07,272.15 1056.07,279.317 1098.5,278.5C 1143.43,278.598 1186.76,270.432 1228.5,254C 1229.7,253.097 1230.53,251.931 1231,250.5C 1231.19,243.253 1231.69,236.087 1232.5,229C 1239.82,227.173 1246.82,224.506 1253.5,221C 1266.52,212.155 1279.19,202.822 1291.5,193C 1296.83,189.667 1302.17,186.333 1307.5,183C 1321.73,180.183 1334.39,183.516 1345.5,193C 1359.34,204.827 1369.17,219.327 1375,236.5C 1378.03,271.589 1365.87,300.089 1338.5,322C 1319.39,336.389 1298.39,347.389 1275.5,355C 1244.47,366.089 1212.47,372.756 1179.5,375C 1127.86,379.226 1076.2,379.56 1024.5,376C 970.252,373.424 919.585,358.757 872.5,332C 852.372,320.208 837.538,303.708 828,282.5C 821.965,267.73 819.965,252.396 822,236.5C 830.741,210.598 847.574,192.265 872.5,181.5 Z"/></g>
<g><path style="opacity:1" fill="#fcfdfe" d="M 985.5,216.5 C 1036.58,233.281 1088.91,238.447 1142.5,232C 1166.32,228.865 1189.65,223.699 1212.5,216.5C 1212.67,224.174 1212.5,231.841 1212,239.5C 1190.64,248.036 1168.48,253.536 1145.5,256C 1091.57,263.768 1038.91,258.768 987.5,241C 985.551,233.106 984.884,224.939 985.5,216.5 Z"/></g>
</svg>
