<?xml version="1.0" encoding="UTF-8"?>
<!DOCTYPE svg PUBLIC "-//W3C//DTD SVG 1.1//EN" "http://www.w3.org/Graphics/SVG/1.1/DTD/svg11.dtd">
<svg xmlns="http://www.w3.org/2000/svg" version="1.1" width="2388px" height="1520px" style="shape-rendering:geometricPrecision; text-rendering:geometricPrecision; image-rendering:optimizeQuality; fill-rule:evenodd; clip-rule:evenodd" xmlns:xlink="http://www.w3.org/1999/xlink">
<g><path style="opacity:1" fill="#fefefe" d="M -0.5,-0.5 C 795.5,-0.5 1591.5,-0.5 2387.5,-0.5C 2387.5,506.167 2387.5,1012.83 2387.5,1519.5C 1591.5,1519.5 795.5,1519.5 -0.5,1519.5C -0.5,1012.83 -0.5,506.167 -0.5,-0.5 Z"/></g>
<g><path style="opacity:1" fill="#4486f4" d="M 1451.5,667.5 C 1449.83,667.5 1448.17,667.5 1446.5,667.5C 1446.5,681.833 1446.5,696.167 1446.5,710.5C 1445.82,714.02 1443.82,716.52 1440.5,718C 1416.41,718.98 1392.41,718.646 1368.5,717C 1366.38,715.269 1364.88,713.102 1364,710.5C 1363.5,696.171 1363.33,681.837 1363.5,667.5C 1358.83,667.245 1355.66,664.911 1354,660.5C 1353.67,594.167 1353.33,527.833 1353,461.5C 1350.9,458.3 1349.07,454.967 1347.5,451.5C 1347.22,450.711 1346.72,450.044 1346,449.5C 1345.5,529.499 1345.33,609.499 1345.5,689.5C 1344.98,694.372 1342.32,697.205 1337.5,698C 1233.83,698.667 1130.17,698.667 1026.5,698C 1022.51,696.512 1020.18,693.678 1019.5,689.5C 1019.67,609.499 1019.5,529.499 1019,449.5C 1018.28,450.044 1017.78,450.711 1017.5,451.5C 1015.93,454.967 1014.1,458.3 1012,461.5C 1011.67,527.833 1011.33,594.167 1011,660.5C 1009.39,664.892 1006.23,667.225 1001.5,667.5C 1001.67,681.837 1001.5,696.171 1001,710.5C 1000.12,713.102 998.617,715.269 996.5,717C 972.588,718.646 948.588,718.98 924.5,718C 921.183,716.52 919.183,714.02 918.5,710.5C 918.5,696.167 918.5,681.833 918.5,667.5C 916.5,667.5 914.5,667.5 912.5,667.5C 908.662,666.654 906.162,664.321 905,660.5C 901.055,576.108 902.055,491.775 908,407.5C 910.808,370.7 916.474,334.367 925,298.5C 929.801,277.903 938.134,258.903 950,241.5C 962.11,205.071 984.276,176.571 1016.5,156C 1023.05,152.556 1029.72,149.389 1036.5,146.5C 1047.27,125.958 1057.77,105.291 1068,84.5C 1075.78,76.4083 1084.95,70.2416 1095.5,66C 1152.35,44.3578 1209.35,44.0244 1266.5,65C 1278.45,68.8817 1288.62,75.3817 1297,84.5C 1307.4,105.625 1318.06,126.625 1329,147.5C 1355.57,157.395 1376.9,174.062 1393,197.5C 1402.44,211.051 1409.78,225.718 1415,241.5C 1426.27,257.628 1434.27,275.295 1439,294.5C 1446.16,322.101 1451.16,350.101 1454,378.5C 1460.49,439.658 1463.32,500.991 1462.5,562.5C 1462.67,595.196 1461.83,627.863 1460,660.5C 1458.65,664.598 1455.81,666.931 1451.5,667.5 Z"/></g>
<g><path style="opacity:1" fill="#fdfdfe" d="M 1160.5,71.5 C 1200.51,68.4439 1238.51,75.6106 1274.5,93C 1276,93.8333 1277.17,95 1278,96.5C 1278.67,101.167 1278.67,105.833 1278,110.5C 1275.05,121.408 1270.71,131.742 1265,141.5C 1260.65,129.318 1251.98,123.984 1239,125.5C 1235.5,125.667 1232,125.833 1228.5,126C 1195.23,137.269 1161.9,137.269 1128.5,126C 1115.88,122.685 1105.38,125.851 1097,135.5C 1090.48,123.936 1086.81,111.603 1086,98.5C 1088.2,94.6412 1091.36,91.8079 1095.5,90C 1116.42,80.8515 1138.09,74.6849 1160.5,71.5 Z"/></g>
<g><path style="opacity:1" fill="#fdfdfe" d="M 1116.5,146.5 C 1119.19,146.336 1121.85,146.503 1124.5,147C 1151.24,155.589 1178.57,157.922 1206.5,154C 1215.89,151.986 1225.22,149.653 1234.5,147C 1237.48,146.502 1240.48,146.335 1243.5,146.5C 1243.61,151.33 1242.78,155.997 1241,160.5C 1238.04,167.414 1235.37,174.414 1233,181.5C 1222.41,189.212 1211.91,197.045 1201.5,205C 1194.2,212.794 1187.87,221.294 1182.5,230.5C 1177.13,221.294 1170.8,212.794 1163.5,205C 1155.7,198.265 1147.36,192.265 1138.5,187C 1124.51,177.19 1117.18,163.69 1116.5,146.5 Z"/></g>
<g><path style="opacity:1" fill="#fefefe" d="M 1035.5,170.5 C 1036.5,170.414 1037.33,170.748 1038,171.5C 1045.73,186.564 1056.9,198.398 1071.5,207C 1040.58,232.981 1017.58,264.814 1002.5,302.5C 1000.77,298.136 998.933,293.802 997,289.5C 990.958,282.847 984.958,282.847 979,289.5C 977.008,294.922 977.341,300.256 980,305.5C 986.209,321.36 995.209,335.36 1007,347.5C 1004.28,370.999 1005.45,394.332 1010.5,417.5C 1004.22,430.731 997.383,443.731 990,456.5C 989.5,519.499 989.333,582.499 989.5,645.5C 968.167,645.5 946.833,645.5 925.5,645.5C 923.85,579.817 924.35,514.15 927,448.5C 929.388,402.725 935.055,357.392 944,312.5C 947.623,294.963 953.623,278.296 962,262.5C 968.559,254.184 973.226,244.851 976,234.5C 988.466,206.204 1008.3,184.871 1035.5,170.5 Z"/></g>
<g><path style="opacity:1" fill="#fefefe" d="M 1327.5,170.5 C 1349.83,180.663 1367.33,196.329 1380,217.5C 1386.82,229.292 1392.49,241.625 1397,254.5C 1402.34,261.174 1406.67,268.507 1410,276.5C 1419.34,304.194 1426.01,332.527 1430,361.5C 1437.92,428.09 1441.42,494.923 1440.5,562C 1440.32,589.837 1439.99,617.67 1439.5,645.5C 1418.17,645.5 1396.83,645.5 1375.5,645.5C 1375.67,582.499 1375.5,519.499 1375,456.5C 1367.62,443.731 1360.78,430.731 1354.5,417.5C 1359.55,394.332 1360.72,370.999 1358,347.5C 1372.27,332.717 1382.11,315.384 1387.5,295.5C 1386.19,286.832 1381.19,283.665 1372.5,286C 1370.71,286.785 1369.21,287.951 1368,289.5C 1366.26,293.577 1364.42,297.577 1362.5,301.5C 1350.76,274.338 1335.26,249.672 1316,227.5C 1309.1,219.928 1301.6,213.095 1293.5,207C 1308.49,198.183 1319.82,186.016 1327.5,170.5 Z"/></g>
<g><path style="opacity:1" fill="#fdfefe" d="M 1042.5,552.5 C 1041.83,516.833 1041.17,481.167 1040.5,445.5C 1032.36,421.888 1028.03,397.554 1027.5,372.5C 1028.2,361.454 1029.03,350.454 1030,339.5C 1025.51,335.341 1021.34,330.841 1017.5,326C 1031.31,282.663 1055.98,246.996 1091.5,219C 1092.61,218.362 1093.78,217.862 1095,217.5C 1103.98,219.406 1112.14,223.073 1119.5,228.5C 1109.31,249.604 1106.81,271.604 1112,294.5C 1116.96,308.744 1121.62,323.077 1126,337.5C 1126.82,350.201 1126.49,362.868 1125,375.5C 1122.75,386.005 1119.91,396.338 1116.5,406.5C 1118.71,417.104 1124.71,419.937 1134.5,415C 1144.33,395.597 1148.99,374.93 1148.5,353C 1148.76,344.056 1147.93,335.223 1146,326.5C 1141.38,313.595 1137.05,300.595 1133,287.5C 1130.17,272.801 1131.33,258.468 1136.5,244.5C 1138.38,247.751 1140.38,250.918 1142.5,254C 1147.43,257.265 1152.43,257.265 1157.5,254C 1160.24,250.239 1161.08,246.072 1160,241.5C 1149.67,223.174 1134.84,209.674 1115.5,201C 1094.93,196.469 1077.43,186.636 1063,171.5C 1059.86,167.387 1057.36,162.887 1055.5,158C 1059.94,148.282 1064.78,138.782 1070,129.5C 1084.57,165.828 1108.4,194.328 1141.5,215C 1156.44,226.698 1165.94,241.865 1170,260.5C 1170.5,324.499 1170.67,388.499 1170.5,452.5C 1143.16,452.333 1115.83,452.5 1088.5,453C 1086,454.167 1084.17,456 1083,458.5C 1076.84,484.981 1067.51,510.314 1055,534.5C 1051.07,540.703 1046.9,546.703 1042.5,552.5 Z"/></g>
<g><path style="opacity:1" fill="#fdfefe" d="M 1324.5,445.5 C 1323.83,481.167 1323.17,516.833 1322.5,552.5C 1313.97,541.433 1306.8,529.433 1301,516.5C 1293.25,497.597 1286.92,478.264 1282,458.5C 1280.75,455.619 1278.58,453.786 1275.5,453C 1248.5,452.5 1221.5,452.333 1194.5,452.5C 1194.33,388.499 1194.5,324.499 1195,260.5C 1199.06,241.865 1208.56,226.698 1223.5,215C 1256.12,193.958 1279.96,165.458 1295,129.5C 1300.22,138.782 1305.06,148.282 1309.5,158C 1301.73,174.438 1289.39,186.105 1272.5,193C 1248.44,198.937 1228.27,211.103 1212,229.5C 1208.15,234.209 1205.65,239.542 1204.5,245.5C 1206.43,256.551 1212.43,259.385 1222.5,254C 1224.46,251.252 1226.29,248.418 1228,245.5C 1230.74,250.098 1232.4,255.098 1233,260.5C 1233.81,269.546 1233.47,278.546 1232,287.5C 1227.95,300.595 1223.62,313.595 1219,326.5C 1213.3,355.781 1216.3,384.115 1228,411.5C 1233.81,419.161 1240.15,419.495 1247,412.5C 1247.98,410.634 1248.48,408.634 1248.5,406.5C 1244.13,394.847 1240.97,382.847 1239,370.5C 1238.33,359.5 1238.33,348.5 1239,337.5C 1243.38,323.077 1248.04,308.744 1253,294.5C 1258.19,271.604 1255.69,249.604 1245.5,228.5C 1252.62,223.356 1260.45,219.69 1269,217.5C 1270.63,217.625 1272.13,218.125 1273.5,219C 1309.02,246.996 1333.69,282.663 1347.5,326C 1343.66,330.841 1339.49,335.341 1335,339.5C 1340.12,375.679 1336.62,411.012 1324.5,445.5 Z"/></g>
<g><path style="opacity:1" fill="#aac8f9" d="M 1040.5,445.5 C 1041.17,481.167 1041.83,516.833 1042.5,552.5C 1042.44,553.043 1042.11,553.376 1041.5,553.5C 1040.5,517.506 1040.17,481.506 1040.5,445.5 Z"/></g>
<g><path style="opacity:1" fill="#abc8fa" d="M 1324.5,445.5 C 1324.83,481.506 1324.5,517.506 1323.5,553.5C 1322.89,553.376 1322.56,553.043 1322.5,552.5C 1323.17,516.833 1323.83,481.167 1324.5,445.5 Z"/></g>
<g><path style="opacity:1" fill="#b9d2fa" d="M 1019.5,689.5 C 1018.83,610.167 1018.17,530.833 1017.5,451.5C 1017.78,450.711 1018.28,450.044 1019,449.5C 1019.5,529.499 1019.67,609.499 1019.5,689.5 Z"/></g>
<g><path style="opacity:1" fill="#b9d2fa" d="M 1347.5,451.5 C 1346.83,530.833 1346.17,610.167 1345.5,689.5C 1345.33,609.499 1345.5,529.499 1346,449.5C 1346.72,450.044 1347.22,450.711 1347.5,451.5 Z"/></g>
<g><path style="opacity:1" fill="#fefefe" d="M 1101.5,473.5 C 1124.5,473.5 1147.5,473.5 1170.5,473.5C 1170.5,524.5 1170.5,575.5 1170.5,626.5C 1133.93,626.83 1097.43,626.496 1061,625.5C 1055.44,610.721 1049.61,596.054 1043.5,581.5C 1056.95,570.263 1067.78,556.929 1076,541.5C 1087.17,519.834 1095.67,497.167 1101.5,473.5 Z"/></g>
<g><path style="opacity:1" fill="#fefefe" d="M 1194.5,473.5 C 1217.51,473.167 1240.51,473.5 1263.5,474.5C 1271.35,507.183 1284.85,537.183 1304,564.5C 1309.71,570.376 1315.54,576.042 1321.5,581.5C 1315.35,596.292 1309.35,611.125 1303.5,626C 1267.17,626.5 1230.83,626.667 1194.5,626.5C 1194.5,575.5 1194.5,524.5 1194.5,473.5 Z"/></g>
<g><path style="opacity:1" fill="#a9c7f9" d="M 1042.5,637.5 C 1041.5,650.323 1041.17,663.323 1041.5,676.5C 1040.34,662.339 1040.17,648.006 1041,633.5C 1041.41,634.901 1041.91,636.234 1042.5,637.5 Z"/></g>
<g><path style="opacity:1" fill="#a9c7f9" d="M 1323.5,676.5 C 1323.83,663.323 1323.5,650.323 1322.5,637.5C 1323.09,636.234 1323.59,634.901 1324,633.5C 1324.83,648.006 1324.66,662.339 1323.5,676.5 Z"/></g>
<g><path style="opacity:1" fill="#fefefe" d="M 1042.5,637.5 C 1043.45,642.289 1046.12,645.789 1050.5,648C 1090.5,648.5 1130.5,648.667 1170.5,648.5C 1170.5,657.833 1170.5,667.167 1170.5,676.5C 1127.5,676.5 1084.5,676.5 1041.5,676.5C 1041.17,663.323 1041.5,650.323 1042.5,637.5 Z"/></g>
<g><path style="opacity:1" fill="#fefefe" d="M 1322.5,637.5 C 1323.5,650.323 1323.83,663.323 1323.5,676.5C 1280.5,676.5 1237.5,676.5 1194.5,676.5C 1194.5,667.167 1194.5,657.833 1194.5,648.5C 1234.17,648.667 1273.83,648.5 1313.5,648C 1318.46,646.205 1321.46,642.705 1322.5,637.5 Z"/></g>
<g><path style="opacity:1" fill="#9fc0f9" d="M 912.5,667.5 C 914.5,667.5 916.5,667.5 918.5,667.5C 918.5,681.833 918.5,696.167 918.5,710.5C 917.504,696.677 917.171,682.677 917.5,668.5C 915.585,668.784 913.919,668.451 912.5,667.5 Z"/></g>
<g><path style="opacity:1" fill="#fefefe" d="M 979.5,668.5 C 979.5,677.833 979.5,687.167 979.5,696.5C 966.5,696.5 953.5,696.5 940.5,696.5C 940.5,687.167 940.5,677.833 940.5,668.5C 953.5,668.5 966.5,668.5 979.5,668.5 Z"/></g>
<g><path style="opacity:1" fill="#fefefe" d="M 1385.5,668.5 C 1398.5,668.5 1411.5,668.5 1424.5,668.5C 1424.5,677.833 1424.5,687.167 1424.5,696.5C 1411.5,696.5 1398.5,696.5 1385.5,696.5C 1385.5,687.167 1385.5,677.833 1385.5,668.5 Z"/></g>
<g><path style="opacity:1" fill="#9dbff9" d="M 1451.5,667.5 C 1450.43,668.434 1449.1,668.768 1447.5,668.5C 1447.83,682.677 1447.5,696.677 1446.5,710.5C 1446.5,696.167 1446.5,681.833 1446.5,667.5C 1448.17,667.5 1449.83,667.5 1451.5,667.5 Z"/></g>
<g><path style="opacity:1" fill="#adc9fa" d="M 979.5,668.5 C 966.5,668.5 953.5,668.5 940.5,668.5C 940.5,677.833 940.5,687.167 940.5,696.5C 953.5,696.5 966.5,696.5 979.5,696.5C 966.344,697.496 953.01,697.829 939.5,697.5C 939.5,687.5 939.5,677.5 939.5,667.5C 953.01,667.171 966.344,667.504 979.5,668.5 Z"/></g>
<g><path style="opacity:1" fill="#b0cbfa" d="M 1385.5,668.5 C 1398.66,667.504 1411.99,667.171 1425.5,667.5C 1425.5,677.5 1425.5,687.5 1425.5,697.5C 1411.99,697.829 1398.66,697.496 1385.5,696.5C 1398.5,696.5 1411.5,696.5 1424.5,696.5C 1424.5,687.167 1424.5,677.833 1424.5,668.5C 1411.5,668.5 1398.5,668.5 1385.5,668.5 Z"/></g>
</svg>
