<?xml version="1.0" encoding="UTF-8"?>
<!DOCTYPE svg PUBLIC "-//W3C//DTD SVG 1.1//EN" "http://www.w3.org/Graphics/SVG/1.1/DTD/svg11.dtd">
<svg xmlns="http://www.w3.org/2000/svg" version="1.1" width="2388px" height="1520px" style="shape-rendering:geometricPrecision; text-rendering:geometricPrecision; image-rendering:optimizeQuality; fill-rule:evenodd; clip-rule:evenodd" xmlns:xlink="http://www.w3.org/1999/xlink">
<g><path style="opacity:1" fill="#fefefe" d="M -0.5,-0.5 C 795.5,-0.5 1591.5,-0.5 2387.5,-0.5C 2387.5,506.167 2387.5,1012.83 2387.5,1519.5C 1591.5,1519.5 795.5,1519.5 -0.5,1519.5C -0.5,1012.83 -0.5,506.167 -0.5,-0.5 Z"/></g>
<g><path style="opacity:1" fill="#4486f4" d="M 1359.5,515.5 C 1359.16,513.146 1358.66,510.813 1358,508.5C 1357.5,555.832 1357.33,603.165 1357.5,650.5C 1356.39,654.779 1353.72,657.613 1349.5,659C 1237.83,659.667 1126.17,659.667 1014.5,659C 1010.86,657.195 1008.52,654.362 1007.5,650.5C 1007.67,603.165 1007.5,555.832 1007,508.5C 1006.34,510.813 1005.84,513.146 1005.5,515.5C 997.167,579.173 988.667,642.84 980,706.5C 978.334,716.683 972.334,720.683 962,718.5C 927.499,717.015 892.999,715.515 858.5,714C 855.063,712.895 852.563,710.728 851,707.5C 850.362,700.792 850.695,694.126 852,687.5C 878.163,514.193 904.163,340.86 930,167.5C 941.017,146.815 956.517,130.315 976.5,118C 1009.12,98.6806 1044.12,85.6806 1081.5,79C 1091.83,69.3333 1102.17,59.6667 1112.5,50C 1159.17,49.3333 1205.83,49.3333 1252.5,50C 1263.17,60 1273.83,70 1284.5,80C 1321.53,86.3405 1356.19,99.0072 1388.5,118C 1408.48,130.315 1423.98,146.815 1435,167.5C 1460.84,340.859 1486.84,514.192 1513,687.5C 1514.3,694.126 1514.64,700.792 1514,707.5C 1512.44,710.728 1509.94,712.895 1506.5,714C 1468.18,716.09 1429.85,717.424 1391.5,718C 1387.47,715.239 1385.3,711.406 1385,706.5C 1376.34,642.848 1367.84,579.181 1359.5,515.5 Z"/></g>
<g><path style="opacity:1" fill="#b6d0fa" d="M 1233.5,73.5 C 1217.18,72.1672 1200.51,71.5005 1183.5,71.5C 1166.49,71.5005 1149.82,72.1672 1133.5,73.5C 1132.6,72.791 1132.26,71.791 1132.5,70.5C 1166.5,70.5 1200.5,70.5 1234.5,70.5C 1234.74,71.791 1234.4,72.791 1233.5,73.5 Z"/></g>
<g><path style="opacity:1" fill="#fdfdfe" d="M 1233.5,73.5 C 1230.45,86.7495 1227.78,100.083 1225.5,113.5C 1199.5,113.667 1173.5,113.5 1147.5,113C 1142.54,99.94 1137.87,86.7733 1133.5,73.5C 1149.82,72.1672 1166.49,71.5005 1183.5,71.5C 1200.51,71.5005 1217.18,72.1672 1233.5,73.5 Z"/></g>
<g><path style="opacity:1" fill="#fdfefe" d="M 1113.5,86.5 C 1115.14,87.7489 1116.3,89.4156 1117,91.5C 1147.43,178.806 1177.43,266.139 1207,353.5C 1150.29,306.614 1093.45,259.948 1036.5,213.5C 1061.93,170.973 1087.59,128.639 1113.5,86.5 Z"/></g>
<g><path style="opacity:1" fill="#fdfefe" d="M 1251.5,92.5 C 1253.22,94.2528 1254.72,96.2528 1256,98.5C 1269.99,125.648 1283.82,152.815 1297.5,180C 1275.99,238.024 1253.99,295.858 1231.5,353.5C 1223.24,332.047 1215.57,310.381 1208.5,288.5C 1222.84,223.148 1237.17,157.815 1251.5,92.5 Z"/></g>
<g><path style="opacity:1" fill="#fefefe" d="M 1334.5,502.5 C 1335.5,547.33 1335.83,592.33 1335.5,637.5C 1293.49,637.833 1251.49,637.5 1209.5,636.5C 1220.41,554.905 1230.91,473.239 1241,391.5C 1266.77,321.956 1293.1,252.623 1320,183.5C 1320.67,180.5 1320.67,177.5 1320,174.5C 1307.24,150.657 1294.74,126.657 1282.5,102.5C 1318.52,107.567 1351.86,120.067 1382.5,140C 1395.09,149.251 1405.59,160.418 1414,173.5C 1440.35,346.786 1466.18,520.119 1491.5,693.5C 1462.83,694.367 1434.16,695.367 1405.5,696.5C 1389.72,577.777 1373.56,459.111 1357,340.5C 1349.79,332.175 1343.13,332.508 1337,341.5C 1336.67,385.167 1336.33,428.833 1336,472.5C 1317,488.833 1298,505.167 1279,521.5C 1276.04,528.634 1277.88,534.134 1284.5,538C 1287.59,538.652 1290.59,538.318 1293.5,537C 1307.2,525.492 1320.86,513.992 1334.5,502.5 Z"/></g>
<g><path style="opacity:1" fill="#fefefe" d="M 1029.5,637.5 C 1029.17,590.997 1029.5,544.664 1030.5,498.5C 1046.63,511.455 1062.63,524.621 1078.5,538C 1090.41,538.314 1094.75,532.814 1091.5,521.5C 1070.81,503.646 1049.98,485.979 1029,468.5C 1028.67,426.167 1028.33,383.833 1028,341.5C 1021.75,332.68 1015.08,332.347 1008,340.5C 991.443,459.13 975.277,577.797 959.5,696.5C 930.844,695.197 902.177,694.197 873.5,693.5C 898.824,520.065 924.657,346.731 951,173.5C 963.029,154.803 978.862,140.303 998.5,130C 1023.68,116.384 1050.35,107.384 1078.5,103C 1056.33,139.167 1034.17,175.333 1012,211.5C 1011.03,215.782 1011.7,219.782 1014,223.5C 1082.31,278.978 1150.48,334.644 1218.5,390.5C 1218.83,391.333 1219.17,392.167 1219.5,393C 1208.54,474.476 1197.88,555.976 1187.5,637.5C 1134.83,637.5 1082.17,637.5 1029.5,637.5 Z"/></g>
<g><path style="opacity:1" fill="#cddefb" d="M 1219.5,137.5 C 1209.19,136.168 1198.52,135.501 1187.5,135.5C 1176.66,135.5 1165.99,135.833 1155.5,136.5C 1154.96,136.44 1154.62,136.107 1154.5,135.5C 1176.49,134.5 1198.49,134.167 1220.5,134.5C 1220.74,135.791 1220.4,136.791 1219.5,137.5 Z"/></g>
<g><path style="opacity:1" fill="#fefefe" d="M 1219.5,137.5 C 1211.44,174.84 1203.28,212.173 1195,249.5C 1181.73,211.848 1168.56,174.181 1155.5,136.5C 1165.99,135.833 1176.66,135.5 1187.5,135.5C 1198.52,135.501 1209.19,136.168 1219.5,137.5 Z"/></g>
<g><path style="opacity:1" fill="#d6e4fc" d="M 1030.5,498.5 C 1029.5,544.664 1029.17,590.997 1029.5,637.5C 1028.34,590.668 1028.17,543.668 1029,496.5C 1029.72,497.044 1030.22,497.711 1030.5,498.5 Z"/></g>
<g><path style="opacity:1" fill="#d6e4fc" d="M 1334.5,502.5 C 1334.56,501.957 1334.89,501.624 1335.5,501.5C 1336.83,546.998 1336.83,592.332 1335.5,637.5C 1335.83,592.33 1335.5,547.33 1334.5,502.5 Z"/></g>
<g><path style="opacity:1" fill="#aecafa" d="M 1007.5,650.5 C 1006.83,605.5 1006.17,560.5 1005.5,515.5C 1005.84,513.146 1006.34,510.813 1007,508.5C 1007.5,555.832 1007.67,603.165 1007.5,650.5 Z"/></g>
<g><path style="opacity:1" fill="#aecafa" d="M 1359.5,515.5 C 1358.83,560.5 1358.17,605.5 1357.5,650.5C 1357.33,603.165 1357.5,555.832 1358,508.5C 1358.66,510.813 1359.16,513.146 1359.5,515.5 Z"/></g>
</svg>
