<?xml version="1.0" encoding="UTF-8"?>
<!DOCTYPE svg PUBLIC "-//W3C//DTD SVG 1.1//EN" "http://www.w3.org/Graphics/SVG/1.1/DTD/svg11.dtd">
<svg xmlns="http://www.w3.org/2000/svg" version="1.1" width="2388px" height="1520px" style="shape-rendering:geometricPrecision; text-rendering:geometricPrecision; image-rendering:optimizeQuality; fill-rule:evenodd; clip-rule:evenodd" xmlns:xlink="http://www.w3.org/1999/xlink">
<g><path style="opacity:1" fill="#fefefe" d="M -0.5,-0.5 C 795.5,-0.5 1591.5,-0.5 2387.5,-0.5C 2387.5,506.167 2387.5,1012.83 2387.5,1519.5C 1591.5,1519.5 795.5,1519.5 -0.5,1519.5C -0.5,1012.83 -0.5,506.167 -0.5,-0.5 Z"/></g>
<g><path style="opacity:1" fill="#4486f4" d="M 1098.5,49.5 C 1109.41,48.8001 1120.08,49.9668 1130.5,53C 1174.19,55.0453 1217.86,54.8786 1261.5,52.5C 1274.52,51.8332 1286.18,55.3332 1296.5,63C 1303.31,70.1449 1310.97,76.1449 1319.5,81C 1336.59,89.5473 1353.93,97.5473 1371.5,105C 1383.69,110.252 1394.69,117.252 1404.5,126C 1431.33,149.825 1451.5,178.325 1465,211.5C 1483.69,265.888 1501.35,320.555 1518,375.5C 1519.49,381.13 1520.82,386.797 1522,392.5C 1523.41,415.485 1523.75,438.485 1523,461.5C 1512.81,513.98 1500.47,565.98 1486,617.5C 1469.79,640.546 1452.62,662.879 1434.5,684.5C 1430.7,686.422 1426.7,686.922 1422.5,686C 1402.91,676.62 1383.41,667.12 1364,657.5C 1363.23,657.645 1362.56,657.978 1362,658.5C 1358.84,676.28 1355.18,693.946 1351,711.5C 1349.06,714.106 1346.56,715.939 1343.5,717C 1231.17,718.818 1118.84,718.818 1006.5,717C 1003.9,716.117 1001.73,714.617 1000,712.5C 994.389,692.664 989.389,672.664 985,652.5C 984.667,644.833 984.333,637.167 984,629.5C 961.25,607.085 938.917,584.418 917,561.5C 886.689,526.568 864.356,486.901 850,442.5C 843.625,420.925 840.959,398.925 842,376.5C 846.197,360.576 851.197,344.91 857,329.5C 871.138,294.753 885.471,260.086 900,225.5C 908.74,209.756 919.407,195.423 932,182.5C 943.891,161.611 957.724,142.111 973.5,124C 981.234,118.604 989.234,113.604 997.5,109C 1021.13,96.6821 1045.13,85.1821 1069.5,74.5C 1075.84,62.1506 1085.51,53.8173 1098.5,49.5 Z"/></g>
<g><path style="opacity:1" fill="#f6f9fe" d="M 1101.5,71.5 C 1107.94,70.3644 1109.6,72.3644 1106.5,77.5C 1102.18,79.6622 1097.84,81.8289 1093.5,84C 1092.36,84.7494 1091.36,84.5827 1090.5,83.5C 1092.83,78.1752 1096.5,74.1752 1101.5,71.5 Z"/></g>
<g><path style="opacity:1" fill="#fdfefe" d="M 1131.5,75.5 C 1172.18,76.505 1212.84,76.505 1253.5,75.5C 1247.35,104.157 1230.35,123.324 1202.5,133C 1179.73,142.91 1160.56,138.41 1145,119.5C 1139.42,111.336 1134.08,103.003 1129,94.5C 1126.48,87.689 1127.31,81.3557 1131.5,75.5 Z"/></g>
<g><path style="opacity:1" fill="#f5f8fe" d="M 1275.5,76.5 C 1279.71,78.5307 1283.54,81.1974 1287,84.5C 1287.92,88.7112 1287.42,92.7112 1285.5,96.5C 1281.52,93.6908 1277.69,90.6908 1274,87.5C 1274.32,83.8641 1274.82,80.1974 1275.5,76.5 Z"/></g>
<g><path style="opacity:1" fill="#fefefe" d="M 1066.5,99.5 C 1067.5,99.5 1068.5,99.5 1069.5,99.5C 1073.84,126.987 1086.18,150.154 1106.5,169C 1127.63,185.832 1151.8,193.665 1179,192.5C 1211.31,193.653 1241.14,185.82 1268.5,169C 1291.18,151.814 1304.18,128.98 1307.5,100.5C 1331.8,110.989 1355.8,122.156 1379.5,134C 1407.88,156.92 1429.38,185.087 1444,218.5C 1464.29,276.695 1482.95,335.362 1500,394.5C 1501.39,415.15 1501.73,435.817 1501,456.5C 1492.34,504.485 1481.17,551.819 1467.5,598.5C 1440.55,584.69 1413.88,570.357 1387.5,555.5C 1396.58,530.089 1404.75,504.422 1412,478.5C 1413.07,460.948 1419.73,445.948 1432,433.5C 1436.74,425.226 1434.9,419.059 1426.5,415C 1422.02,413.989 1418.18,415.156 1415,418.5C 1410.64,424.026 1406.47,429.693 1402.5,435.5C 1386.93,419.951 1380.59,401.118 1383.5,379C 1384.7,348.8 1386.54,318.633 1389,288.5C 1389.67,280.5 1389.67,272.5 1389,264.5C 1380.65,255.902 1373.65,256.902 1368,267.5C 1362.16,335.036 1359.82,402.703 1361,470.5C 1359.67,520.88 1357.51,571.213 1354.5,621.5C 1351.46,624.688 1347.79,626.855 1343.5,628C 1334.53,629.827 1325.53,631.493 1316.5,633C 1287.56,635.805 1258.56,637.805 1229.5,639C 1155.15,639.91 1080.82,639.41 1006.5,637.5C 1006.19,635.076 1006.53,632.743 1007.5,630.5C 1028.08,616.749 1048.25,602.416 1068,587.5C 1068.81,585.577 1069.31,583.577 1069.5,581.5C 1061.89,564.94 1053.72,548.607 1045,532.5C 1037.83,513.673 1029.5,495.34 1020,477.5C 1019.67,475.833 1019.33,474.167 1019,472.5C 1017.96,456.854 1017.46,441.188 1017.5,425.5C 1018.67,394.841 1019.17,364.175 1019,333.5C 1017.39,317.161 1015.72,300.828 1014,284.5C 1011.06,277.622 1005.9,275.122 998.5,277C 996,278.167 994.167,280 993,282.5C 992.333,287.5 992.333,292.5 993,297.5C 994.809,311.82 996.142,326.153 997,340.5C 984.309,356.357 971.809,372.357 959.5,388.5C 948.459,389.482 937.459,388.982 926.5,387C 924.28,381.714 922.78,376.214 922,370.5C 915.297,362.601 908.63,362.601 902,370.5C 900.006,383.998 903.84,395.498 913.5,405C 915.5,406 917.5,407 919.5,408C 930.105,409.789 940.772,410.956 951.5,411.5C 951.898,416.193 953.398,420.526 956,424.5C 979.88,450.918 998.713,480.585 1012.5,513.5C 989.429,526.877 966.763,541.043 944.5,556C 943.365,556.749 942.365,556.583 941.5,555.5C 905.594,517.706 881.094,473.372 868,422.5C 861.419,400.883 862.086,379.549 870,358.5C 885.504,317.827 901.837,277.493 919,237.5C 926.8,222.236 936.8,208.569 949,196.5C 959.676,178.476 971.342,161.143 984,144.5C 992.961,137.546 1002.46,131.379 1012.5,126C 1030.56,117.05 1048.56,108.217 1066.5,99.5 Z"/></g>
<g><path style="opacity:1" fill="#fafbfe" d="M 1104.5,102.5 C 1106.14,102.286 1107.64,102.62 1109,103.5C 1111.97,108.602 1114.8,113.769 1117.5,119C 1113.99,124.009 1109.66,128.176 1104.5,131.5C 1099.36,123.909 1096.36,115.742 1095.5,107C 1098.84,105.997 1101.84,104.497 1104.5,102.5 Z"/></g>
<g><path style="opacity:1" fill="#f4f7fe" d="M 1264.5,109.5 C 1269.84,111.934 1274.67,115.267 1279,119.5C 1278.99,122.863 1277.83,125.863 1275.5,128.5C 1271.13,124.294 1267.3,119.628 1264,114.5C 1263.36,112.735 1263.53,111.068 1264.5,109.5 Z"/></g>
<g><path style="opacity:1" fill="#f8fafe" d="M 1247.5,130.5 C 1252.29,135.396 1256.63,140.73 1260.5,146.5C 1255.74,150.915 1250.41,154.581 1244.5,157.5C 1242.26,151.603 1239.92,145.769 1237.5,140C 1241.07,137.056 1244.4,133.889 1247.5,130.5 Z"/></g>
<g><path style="opacity:1" fill="#f8fafe" d="M 1130.5,137.5 C 1132.96,139.779 1135.63,141.946 1138.5,144C 1140.12,145.117 1141.12,146.617 1141.5,148.5C 1139.51,152.803 1137.51,157.136 1135.5,161.5C 1129.26,158.245 1123.59,154.245 1118.5,149.5C 1122.53,145.493 1126.53,141.493 1130.5,137.5 Z"/></g>
<g><path style="opacity:1" fill="#f7f9fe" d="M 1216.5,150.5 C 1217.75,150.577 1218.58,151.244 1219,152.5C 1220.85,156.708 1221.85,161.041 1222,165.5C 1216,167.306 1209.83,168.306 1203.5,168.5C 1202.92,164.19 1202.59,159.857 1202.5,155.5C 1207.53,154.602 1212.2,152.935 1216.5,150.5 Z"/></g>
<g><path style="opacity:1" fill="#f7fafe" d="M 1161.5,157.5 C 1167.7,159.183 1174.03,159.849 1180.5,159.5C 1180.72,163.179 1181.06,166.846 1181.5,170.5C 1173.47,170.656 1165.47,170.323 1157.5,169.5C 1158.23,165.303 1159.57,161.303 1161.5,157.5 Z"/></g>
<g><path style="opacity:1" fill="#fbfcfe" d="M 996.5,402.5 C 995.833,414.167 995.167,425.833 994.5,437.5C 988.822,429.498 982.655,421.832 976,414.5C 974.456,412.532 973.289,410.365 972.5,408C 980.454,397.924 988.288,387.757 996,377.5C 996.5,385.827 996.666,394.16 996.5,402.5 Z"/></g>
<g><path style="opacity:1" fill="#79a8f7" d="M 996.5,402.5 C 996.667,414.838 996.5,427.171 996,439.5C 995.283,438.956 994.783,438.289 994.5,437.5C 995.167,425.833 995.833,414.167 996.5,402.5 Z"/></g>
<g><path style="opacity:1" fill="#f6f8fe" d="M 1383.5,498.5 C 1382.53,496.393 1382.2,494.059 1382.5,491.5C 1382.29,477.141 1382.79,462.808 1384,448.5C 1386,451.833 1388.67,454.5 1392,456.5C 1392.25,461.514 1391.92,466.514 1391,471.5C 1388.34,480.464 1385.84,489.464 1383.5,498.5 Z"/></g>
<g><path style="opacity:1" fill="#8db5f8" d="M 1382.5,491.5 C 1382.2,494.059 1382.53,496.393 1383.5,498.5C 1383.29,499.922 1382.79,501.255 1382,502.5C 1381.19,498.642 1381.36,494.976 1382.5,491.5 Z"/></g>
<g><path style="opacity:1" fill="#f3f7fe" d="M 1019.5,533.5 C 1020.5,533.414 1021.33,533.748 1022,534.5C 1029.2,549.564 1036.37,564.564 1043.5,579.5C 1041.41,579.439 1039.91,578.439 1039,576.5C 1031.39,563.897 1023.39,551.564 1015,539.5C 1014.25,538.365 1014.42,537.365 1015.5,536.5C 1016.9,535.479 1018.23,534.479 1019.5,533.5 Z"/></g>
<g><path style="opacity:1" fill="#f5f8fe" d="M 994.5,549.5 C 996.074,549.937 997.241,550.937 998,552.5C 1006.3,565.599 1014.47,578.766 1022.5,592C 1021.11,595.362 1018.78,596.529 1015.5,595.5C 1006.83,581.5 998.167,567.5 989.5,553.5C 991.21,552.113 992.877,550.779 994.5,549.5 Z"/></g>
<g><path style="opacity:1" fill="#f6f9fe" d="M 969.5,565.5 C 970.496,565.414 971.329,565.748 972,566.5C 980.333,580.167 988.667,593.833 997,607.5C 997.749,608.635 997.583,609.635 996.5,610.5C 984.181,598.681 972.014,586.681 960,574.5C 959.493,573.004 959.993,571.837 961.5,571C 964.407,569.391 967.073,567.558 969.5,565.5 Z"/></g>
<g><path style="opacity:1" fill="#f9fbfe" d="M 1379.5,619.5 C 1378.51,614.36 1378.18,609.026 1378.5,603.5C 1378.18,594.915 1378.52,586.415 1379.5,578C 1384.29,579.385 1388.95,581.385 1393.5,584C 1395.33,584.899 1396.66,586.233 1397.5,588C 1391.69,598.636 1385.69,609.136 1379.5,619.5 Z"/></g>
<g><path style="opacity:1" fill="#fbfcfe" d="M 1417.5,597.5 C 1422.26,599.045 1426.59,601.379 1430.5,604.5C 1421.4,620.368 1412.07,636.034 1402.5,651.5C 1398.1,649.643 1394.1,647.309 1390.5,644.5C 1399.76,628.969 1408.76,613.302 1417.5,597.5 Z"/></g>
<g><path style="opacity:1" fill="#f0f5fe" d="M 1449.5,614.5 C 1451.93,615.212 1454.26,616.212 1456.5,617.5C 1457.58,618.365 1457.75,619.365 1457,620.5C 1446,634.5 1435,648.5 1424,662.5C 1423.33,661.5 1423.33,660.5 1424,659.5C 1433.03,644.77 1441.53,629.77 1449.5,614.5 Z"/></g>
<g><path style="opacity:1" fill="#adc9fa" d="M 1378.5,603.5 C 1378.18,609.026 1378.51,614.36 1379.5,619.5C 1379.01,620.473 1378.51,621.473 1378,622.5C 1377.18,615.986 1377.35,609.653 1378.5,603.5 Z"/></g>
<g><path style="opacity:1" fill="#f8fafe" d="M 1335.5,651.5 C 1337.17,651.5 1338.83,651.5 1340.5,651.5C 1337.71,666.129 1335.04,680.796 1332.5,695.5C 1331.17,695.5 1329.83,695.5 1328.5,695.5C 1328.33,681.496 1328.5,667.496 1329,653.5C 1331.28,652.883 1333.44,652.216 1335.5,651.5 Z"/></g>
<g><path style="opacity:1" fill="#fbfcfe" d="M 1299.5,656.5 C 1301.83,656.5 1304.17,656.5 1306.5,656.5C 1306.5,669.833 1306.5,683.167 1306.5,696.5C 1302.17,696.5 1297.83,696.5 1293.5,696.5C 1293.5,683.5 1293.5,670.5 1293.5,657.5C 1295.74,657.795 1297.74,657.461 1299.5,656.5 Z"/></g>
<g><path style="opacity:1" fill="#f9fbfe" d="M 1025.5,689.5 C 1025.5,691.167 1025.5,692.833 1025.5,694.5C 1022.83,694.5 1020.17,694.5 1017.5,694.5C 1014.68,682.873 1012.01,671.207 1009.5,659.5C 1013.83,659.5 1018.17,659.5 1022.5,659.5C 1023.83,669.464 1024.83,679.464 1025.5,689.5 Z"/></g>
<g><path style="opacity:1" fill="#fefefe" d="M 1259.5,659.5 C 1263.5,659.5 1267.5,659.5 1271.5,659.5C 1271.5,671.833 1271.5,684.167 1271.5,696.5C 1267.5,696.5 1263.5,696.5 1259.5,696.5C 1259.5,684.167 1259.5,671.833 1259.5,659.5 Z"/></g>
<g><path style="opacity:1" fill="#fbfcfe" d="M 1045.5,660.5 C 1049.5,660.5 1053.5,660.5 1057.5,660.5C 1058.87,672.134 1059.87,683.8 1060.5,695.5C 1056.5,695.5 1052.5,695.5 1048.5,695.5C 1047.11,683.872 1046.11,672.205 1045.5,660.5 Z"/></g>
<g><path style="opacity:1" fill="#b2cdfa" d="M 1259.5,659.5 C 1259.5,671.833 1259.5,684.167 1259.5,696.5C 1263.5,696.5 1267.5,696.5 1271.5,696.5C 1267.37,697.485 1263.03,697.818 1258.5,697.5C 1258.17,684.656 1258.5,671.989 1259.5,659.5 Z"/></g>
<g><path style="opacity:1" fill="#fafbfe" d="M 1095.5,691.5 C 1095.5,692.833 1095.5,694.167 1095.5,695.5C 1091.5,695.5 1087.5,695.5 1083.5,695.5C 1082.07,684.351 1081.07,673.018 1080.5,661.5C 1084.5,661.5 1088.5,661.5 1092.5,661.5C 1093.98,671.446 1094.98,681.446 1095.5,691.5 Z"/></g>
<g><path style="opacity:1" fill="#a5c4f9" d="M 1162.5,662.5 C 1158.5,662.5 1154.5,662.5 1150.5,662.5C 1150.5,663.833 1150.5,665.167 1150.5,666.5C 1149.55,665.081 1149.22,663.415 1149.5,661.5C 1154.03,661.182 1158.37,661.515 1162.5,662.5 Z"/></g>
<g><path style="opacity:1" fill="#acc9fa" d="M 1236.5,661.5 C 1232.5,661.5 1228.5,661.5 1224.5,661.5C 1224.5,673.167 1224.5,684.833 1224.5,696.5C 1228.5,696.5 1232.5,696.5 1236.5,696.5C 1232.37,697.485 1228.03,697.818 1223.5,697.5C 1223.5,685.167 1223.5,672.833 1223.5,660.5C 1228.03,660.182 1232.37,660.515 1236.5,661.5 Z"/></g>
<g><path style="opacity:1" fill="#fefffe" d="M 1236.5,661.5 C 1236.5,673.167 1236.5,684.833 1236.5,696.5C 1232.5,696.5 1228.5,696.5 1224.5,696.5C 1224.5,684.833 1224.5,673.167 1224.5,661.5C 1228.5,661.5 1232.5,661.5 1236.5,661.5 Z"/></g>
<g><path style="opacity:1" fill="#f8fafe" d="M 1114.5,661.5 C 1118.83,661.5 1123.17,661.5 1127.5,661.5C 1129,673.12 1130,684.786 1130.5,696.5C 1126.17,696.5 1121.83,696.5 1117.5,696.5C 1117.16,684.768 1116.16,673.101 1114.5,661.5 Z"/></g>
<g><path style="opacity:1" fill="#fafcfe" d="M 1162.5,662.5 C 1164.01,673.782 1165.01,685.115 1165.5,696.5C 1161.17,696.5 1156.83,696.5 1152.5,696.5C 1152.16,686.475 1151.5,676.475 1150.5,666.5C 1150.5,665.167 1150.5,663.833 1150.5,662.5C 1154.5,662.5 1158.5,662.5 1162.5,662.5 Z"/></g>
<g><path style="opacity:1" fill="#fcfdfe" d="M 1184.5,661.5 C 1190.17,661.5 1195.83,661.5 1201.5,661.5C 1201.5,673.167 1201.5,684.833 1201.5,696.5C 1196.83,696.5 1192.17,696.5 1187.5,696.5C 1187.11,684.776 1186.11,673.109 1184.5,661.5 Z"/></g>
<g><path style="opacity:1" fill="#a3c3f9" d="M 1025.5,689.5 C 1026.46,691.265 1026.79,693.265 1026.5,695.5C 1023.29,695.81 1020.29,695.477 1017.5,694.5C 1020.17,694.5 1022.83,694.5 1025.5,694.5C 1025.5,692.833 1025.5,691.167 1025.5,689.5 Z"/></g>
<g><path style="opacity:1" fill="#a0c1f9" d="M 1095.5,691.5 C 1096.45,692.919 1096.78,694.585 1096.5,696.5C 1091.97,696.818 1087.63,696.485 1083.5,695.5C 1087.5,695.5 1091.5,695.5 1095.5,695.5C 1095.5,694.167 1095.5,692.833 1095.5,691.5 Z"/></g>
</svg>
