<?xml version="1.0" encoding="UTF-8"?>
<!DOCTYPE svg PUBLIC "-//W3C//DTD SVG 1.1//EN" "http://www.w3.org/Graphics/SVG/1.1/DTD/svg11.dtd">
<svg xmlns="http://www.w3.org/2000/svg" version="1.1" width="2388px" height="1520px" style="shape-rendering:geometricPrecision; text-rendering:geometricPrecision; image-rendering:optimizeQuality; fill-rule:evenodd; clip-rule:evenodd" xmlns:xlink="http://www.w3.org/1999/xlink">
<g><path style="opacity:1" fill="#fefefe" d="M -0.5,-0.5 C 795.5,-0.5 1591.5,-0.5 2387.5,-0.5C 2387.5,506.167 2387.5,1012.83 2387.5,1519.5C 1591.5,1519.5 795.5,1519.5 -0.5,1519.5C -0.5,1012.83 -0.5,506.167 -0.5,-0.5 Z"/></g>
<g><path style="opacity:1" fill="#4586f4" d="M 1069.5,62.5 C 1113.83,62.3333 1158.17,62.5 1202.5,63C 1204.94,63.7739 1206.77,65.2739 1208,67.5C 1208.67,177.167 1208.67,286.833 1208,396.5C 1203.84,424.343 1190.01,445.843 1166.5,461C 1101.21,490.978 1035.87,520.978 970.5,551C 934.152,562.55 904.652,553.05 882,522.5C 861.69,483.381 868.524,449.881 902.5,422C 952.469,398.016 1002.47,374.016 1052.5,350C 1057.88,345.961 1061.71,340.794 1064,334.5C 1065.33,245.557 1065.99,156.557 1066,67.5C 1067,65.6769 1068.16,64.0103 1069.5,62.5 Z"/></g>
<g><path style="opacity:1" fill="#fefefe" d="M 1082.5,78.5 C 1119.17,78.5 1155.83,78.5 1192.5,78.5C 1192.5,87.1667 1192.5,95.8333 1192.5,104.5C 1155.83,104.5 1119.17,104.5 1082.5,104.5C 1082.5,95.8333 1082.5,87.1667 1082.5,78.5 Z"/></g>
<g><path style="opacity:1" fill="#7daaf7" d="M 1082.5,78.5 C 1082.5,87.1667 1082.5,95.8333 1082.5,104.5C 1119.17,104.5 1155.83,104.5 1192.5,104.5C 1155.67,105.498 1118.67,105.832 1081.5,105.5C 1081.17,96.3178 1081.51,87.3178 1082.5,78.5 Z"/></g>
<g><path style="opacity:1" fill="#bcd3fa" d="M 1192.5,121.5 C 1192.17,121.5 1191.83,121.5 1191.5,121.5C 1155.17,121.5 1118.83,121.5 1082.5,121.5C 1082.5,127.833 1082.5,134.167 1082.5,140.5C 1082.5,140.833 1082.5,141.167 1082.5,141.5C 1081.51,134.687 1081.18,127.687 1081.5,120.5C 1118.67,120.168 1155.67,120.502 1192.5,121.5 Z"/></g>
<g><path style="opacity:1" fill="#fefffe" d="M 1191.5,121.5 C 1191.5,127.833 1191.5,134.167 1191.5,140.5C 1155.17,140.5 1118.83,140.5 1082.5,140.5C 1082.5,134.167 1082.5,127.833 1082.5,121.5C 1118.83,121.5 1155.17,121.5 1191.5,121.5 Z"/></g>
<g><path style="opacity:1" fill="#d2e2fc" d="M 1191.5,121.5 C 1191.83,121.5 1192.17,121.5 1192.5,121.5C 1192.5,128.167 1192.5,134.833 1192.5,141.5C 1155.83,141.5 1119.17,141.5 1082.5,141.5C 1082.5,141.167 1082.5,140.833 1082.5,140.5C 1118.83,140.5 1155.17,140.5 1191.5,140.5C 1191.5,134.167 1191.5,127.833 1191.5,121.5 Z"/></g>
<g><path style="opacity:1" fill="#fefefe" d="M 1082.5,157.5 C 1119.17,157.5 1155.83,157.5 1192.5,157.5C 1192.5,164.167 1192.5,170.833 1192.5,177.5C 1155.83,177.5 1119.17,177.5 1082.5,177.5C 1082.5,170.833 1082.5,164.167 1082.5,157.5 Z"/></g>
<g><path style="opacity:1" fill="#7ba8f7" d="M 1082.5,157.5 C 1082.5,164.167 1082.5,170.833 1082.5,177.5C 1119.17,177.5 1155.83,177.5 1192.5,177.5C 1155.67,178.498 1118.67,178.832 1081.5,178.5C 1081.18,171.313 1081.51,164.313 1082.5,157.5 Z"/></g>
<g><path style="opacity:1" fill="#b2cdfa" d="M 1192.5,194.5 C 1155.83,194.5 1119.17,194.5 1082.5,194.5C 1082.83,239.336 1082.5,284.003 1081.5,328.5C 1081.5,283.5 1081.5,238.5 1081.5,193.5C 1118.67,193.168 1155.67,193.502 1192.5,194.5 Z"/></g>
<g><path style="opacity:1" fill="#fefefe" d="M 1192.5,194.5 C 1192.5,251.167 1192.5,307.833 1192.5,364.5C 1170.16,364.333 1147.83,364.5 1125.5,365C 1123.71,365.785 1122.21,366.951 1121,368.5C 1120.5,400.832 1120.33,433.165 1120.5,465.5C 1072.37,486.48 1024.54,508.147 977,530.5C 956.955,498.253 937.789,465.42 919.5,432C 966.289,409.107 1013.29,386.44 1060.5,364C 1072.75,355.333 1079.75,343.5 1081.5,328.5C 1082.5,284.003 1082.83,239.336 1082.5,194.5C 1119.17,194.5 1155.83,194.5 1192.5,194.5 Z"/></g>
<g><path style="opacity:1" fill="#d8e5fc" d="M 1136.5,381.5 C 1154.99,380.503 1173.66,380.17 1192.5,380.5C 1192.81,384.371 1192.48,388.038 1191.5,391.5C 1191.5,388.167 1191.5,384.833 1191.5,381.5C 1173.17,381.5 1154.83,381.5 1136.5,381.5 Z"/></g>
<g><path style="opacity:1" fill="#fefefe" d="M 1136.5,381.5 C 1154.83,381.5 1173.17,381.5 1191.5,381.5C 1191.5,384.833 1191.5,388.167 1191.5,391.5C 1190,412.675 1181,429.842 1164.5,443C 1155.7,448.485 1146.53,453.319 1137,457.5C 1136.5,432.169 1136.33,406.836 1136.5,381.5 Z"/></g>
<g><path style="opacity:1" fill="#fdfdfe" d="M 903.5,441.5 C 905.592,441.561 907.092,442.561 908,444.5C 925.707,475.415 943.54,506.248 961.5,537C 934.472,544.595 912.639,537.095 896,514.5C 881.222,488.306 883.722,463.973 903.5,441.5 Z"/></g>
</svg>
