<?xml version="1.0" encoding="UTF-8"?>
<!DOCTYPE svg PUBLIC "-//W3C//DTD SVG 1.1//EN" "http://www.w3.org/Graphics/SVG/1.1/DTD/svg11.dtd">
<svg xmlns="http://www.w3.org/2000/svg" version="1.1" width="2388px" height="1520px" style="shape-rendering:geometricPrecision; text-rendering:geometricPrecision; image-rendering:optimizeQuality; fill-rule:evenodd; clip-rule:evenodd" xmlns:xlink="http://www.w3.org/1999/xlink">
<g><path style="opacity:1" fill="#fefefe" d="M -0.5,-0.5 C 795.5,-0.5 1591.5,-0.5 2387.5,-0.5C 2387.5,506.167 2387.5,1012.83 2387.5,1519.5C 1591.5,1519.5 795.5,1519.5 -0.5,1519.5C -0.5,1012.83 -0.5,506.167 -0.5,-0.5 Z"/></g>
<g><path style="opacity:1" fill="#4486f4" d="M 1167.5,49.5 C 1185.99,49.0547 1204.33,50.5547 1222.5,54C 1224.83,55 1227.17,56 1229.5,57C 1239.89,68.0156 1251.56,77.3489 1264.5,85C 1271.17,88 1277.83,91 1284.5,94C 1292.51,96.1432 1300.51,98.1432 1308.5,100C 1317.31,108.773 1323.14,119.273 1326,131.5C 1330.63,148.281 1334.3,165.281 1337,182.5C 1350.78,293.069 1358.11,404.069 1359,515.5C 1357.52,518.663 1355.02,520.496 1351.5,521C 1339.17,521.5 1326.84,521.667 1314.5,521.5C 1319.81,579.372 1321.97,637.372 1321,695.5C 1318.57,700.979 1314.4,704.479 1308.5,706C 1291.96,711.591 1274.96,714.924 1257.5,716C 1200.8,720.258 1144.13,719.591 1087.5,714C 1074.98,712.363 1062.98,709.03 1051.5,704C 1047.94,702.108 1045.44,699.275 1044,695.5C 1043.33,672.5 1043.33,649.5 1044,626.5C 1045.44,591.474 1047.27,556.474 1049.5,521.5C 1036.83,521.667 1024.16,521.5 1011.5,521C 1009,519.833 1007.17,518 1006,515.5C 1006.98,411.511 1013.31,307.844 1025,204.5C 1028.23,174.791 1034.56,145.791 1044,117.5C 1046.82,110.698 1050.98,104.865 1056.5,100C 1087.57,94.3012 1113.9,79.9679 1135.5,57C 1145.91,52.8962 1156.57,50.3962 1167.5,49.5 Z"/></g>
<g><path style="opacity:1" fill="#fdfefe" d="M 1170.5,71.5 C 1183.56,71.2522 1196.56,71.9189 1209.5,73.5C 1200.34,114.135 1191.18,154.802 1182,195.5C 1172.9,155.142 1163.73,114.808 1154.5,74.5C 1159.97,73.4913 1165.3,72.4913 1170.5,71.5 Z"/></g>
<g><path style="opacity:1" fill="#f0f5fe" d="M 1228.5,87.5 C 1232.47,88.9492 1235.81,91.4492 1238.5,95C 1241.83,97 1245.17,99 1248.5,101C 1246.83,102.167 1245.17,103.333 1243.5,104.5C 1238.5,101.333 1233.5,98.1667 1228.5,95C 1227.86,92.6062 1227.86,90.1062 1228.5,87.5 Z"/></g>
<g><path style="opacity:1" fill="#f4f7fe" d="M 1133.5,87.5 C 1134.73,88.1522 1135.39,89.3189 1135.5,91C 1135.44,92.4357 1135.11,93.769 1134.5,95C 1130.5,97.6667 1126.5,100.333 1122.5,103C 1120.56,103.743 1118.73,103.576 1117,102.5C 1116.38,101.551 1116.55,100.718 1117.5,100C 1123.81,97.0205 1129.14,92.8538 1133.5,87.5 Z"/></g>
<g><path style="opacity:1" fill="#fefefe" d="M 1087.5,113.5 C 1092.12,113.269 1096.12,114.769 1099.5,118C 1096.58,120.045 1093.74,122.212 1091,124.5C 1089.52,127.702 1089.18,131.036 1090,134.5C 1118,185.167 1146,235.833 1174,286.5C 1177.65,293.121 1180.32,300.121 1182,307.5C 1182.5,437.5 1182.67,567.5 1182.5,697.5C 1150.7,697.733 1119.03,695.9 1087.5,692C 1080.12,690.864 1072.96,689.031 1066,686.5C 1065,634.753 1066.67,583.086 1071,531.5C 1077.42,462.517 1086.08,393.85 1097,325.5C 1100.59,297.936 1101.93,270.269 1101,242.5C 1097.98,200.214 1090.14,158.88 1077.5,118.5C 1080.82,116.834 1084.15,115.167 1087.5,113.5 Z"/></g>
<g><path style="opacity:1" fill="#fefefe" d="M 1271.5,112.5 C 1276.76,114.421 1282.09,116.254 1287.5,118C 1265.56,186.042 1259.06,255.542 1268,326.5C 1278.61,394.557 1287.28,462.89 1294,531.5C 1298.14,583.099 1299.64,634.766 1298.5,686.5C 1286.06,689.969 1273.4,692.469 1260.5,694C 1241.87,695.626 1223.2,696.459 1204.5,696.5C 1204.67,562.833 1204.5,429.166 1204,295.5C 1202.21,287.503 1200.38,279.503 1198.5,271.5C 1223.41,225.34 1248.58,179.34 1274,133.5C 1274.75,130.697 1274.42,128.03 1273,125.5C 1270.29,122.622 1267.46,119.956 1264.5,117.5C 1267.08,116.057 1269.41,114.39 1271.5,112.5 Z"/></g>
<g><path style="opacity:1" fill="#fcfcfe" d="M 1139.5,117.5 C 1141.48,118.848 1142.65,120.848 1143,123.5C 1150.77,157.484 1158.1,191.484 1165,225.5C 1148.5,195.167 1132,164.833 1115.5,134.5C 1123.92,129.303 1131.92,123.636 1139.5,117.5 Z"/></g>
<g><path style="opacity:1" fill="#fafcfe" d="M 1221.5,117.5 C 1222.55,117.351 1223.55,117.517 1224.5,118C 1232.53,123.677 1240.53,129.343 1248.5,135C 1232.13,164.898 1215.63,194.731 1199,224.5C 1198.33,222.833 1198.33,221.167 1199,219.5C 1207.02,185.613 1214.52,151.613 1221.5,117.5 Z"/></g>
<g><path style="opacity:1" fill="#fdfdfe" d="M 1059.5,139.5 C 1060.17,139.833 1060.83,140.167 1061.5,140.5C 1078.04,198.531 1082.87,257.531 1076,317.5C 1066.53,377.957 1058.7,438.624 1052.5,499.5C 1044.17,499.5 1035.83,499.5 1027.5,499.5C 1027.5,495.5 1027.5,491.5 1027.5,487.5C 1030,387.814 1037.17,288.48 1049,189.5C 1051.42,172.571 1054.92,155.904 1059.5,139.5 Z"/></g>
<g><path style="opacity:1" fill="#a0c0f9" d="M 1061.5,140.5 C 1060.83,140.167 1060.17,139.833 1059.5,139.5C 1060.3,137.207 1060.97,137.54 1061.5,140.5 Z"/></g>
<g><path style="opacity:1" fill="#fdfdfe" d="M 1337.5,490.5 C 1337.5,493.5 1337.5,496.5 1337.5,499.5C 1329.17,499.5 1320.83,499.5 1312.5,499.5C 1306.21,438.984 1298.38,378.651 1289,318.5C 1281.07,256.919 1286.4,196.586 1305,137.5C 1309.81,154.57 1313.48,171.904 1316,189.5C 1328.07,289.463 1335.23,389.796 1337.5,490.5 Z"/></g>
<g><path style="opacity:1" fill="#70a3f7" d="M 1027.5,487.5 C 1027.5,491.5 1027.5,495.5 1027.5,499.5C 1035.83,499.5 1044.17,499.5 1052.5,499.5C 1044.02,500.493 1035.35,500.826 1026.5,500.5C 1026.18,495.968 1026.52,491.634 1027.5,487.5 Z"/></g>
<g><path style="opacity:1" fill="#72a4f7" d="M 1337.5,490.5 C 1338.48,493.625 1338.81,496.958 1338.5,500.5C 1329.65,500.826 1320.98,500.493 1312.5,499.5C 1320.83,499.5 1329.17,499.5 1337.5,499.5C 1337.5,496.5 1337.5,493.5 1337.5,490.5 Z"/></g>
</svg>
