<?xml version="1.0" encoding="UTF-8"?>
<!DOCTYPE svg PUBLIC "-//W3C//DTD SVG 1.1//EN" "http://www.w3.org/Graphics/SVG/1.1/DTD/svg11.dtd">
<svg xmlns="http://www.w3.org/2000/svg" version="1.1" width="2388px" height="1520px" style="shape-rendering:geometricPrecision; text-rendering:geometricPrecision; image-rendering:optimizeQuality; fill-rule:evenodd; clip-rule:evenodd" xmlns:xlink="http://www.w3.org/1999/xlink">
<g><path style="opacity:1" fill="#fefefe" d="M -0.5,-0.5 C 795.5,-0.5 1591.5,-0.5 2387.5,-0.5C 2387.5,506.167 2387.5,1012.83 2387.5,1519.5C 1591.5,1519.5 795.5,1519.5 -0.5,1519.5C -0.5,1012.83 -0.5,506.167 -0.5,-0.5 Z"/></g>
<g><path style="opacity:1" fill="#4486f4" d="M 1125.5,48.5 C 1130.07,48.521 1133.9,50.1877 1137,53.5C 1143.78,70.5704 1155.28,83.4038 1171.5,92C 1182.68,95.2435 1193.01,93.5768 1202.5,87C 1208.33,82.5 1213.5,77.3333 1218,71.5C 1222.56,64.8841 1226.72,58.0507 1230.5,51C 1234.3,48.1719 1238.3,47.8386 1242.5,50C 1274.95,74.785 1307.12,99.9517 1339,125.5C 1368.14,205.244 1397.47,284.91 1427,364.5C 1428.32,370.343 1426.49,374.843 1421.5,378C 1398.83,386 1376.17,394 1353.5,402C 1347.42,403.858 1342.92,402.025 1340,396.5C 1331.39,365.34 1322.39,334.34 1313,303.5C 1313.34,439.166 1313.34,574.832 1313,710.5C 1311.92,713.913 1309.76,716.413 1306.5,718C 1271.5,718.667 1236.5,718.667 1201.5,718C 1195.37,711.707 1189.04,705.54 1182.5,699.5C 1175.96,705.54 1169.63,711.707 1163.5,718C 1128.17,718.667 1092.83,718.667 1057.5,718C 1054.86,716.039 1053.03,713.539 1052,710.5C 1051.66,574.832 1051.66,439.166 1052,303.5C 1042.6,334.356 1033.6,365.356 1025,396.5C 1021.72,402.109 1016.89,403.942 1010.5,402C 987.347,394.06 964.347,385.727 941.5,377C 937.953,373.51 936.786,369.343 938,364.5C 967.53,284.91 996.863,205.244 1026,125.5C 1058.82,99.1984 1091.99,73.5318 1125.5,48.5 Z"/></g>
<g><path style="opacity:1" fill="#fafbfe" d="M 1125.5,90.5 C 1137.51,127 1149.35,163.667 1161,200.5C 1161.67,201.833 1161.67,203.167 1161,204.5C 1145.53,193.855 1130.36,182.855 1115.5,171.5C 1121.32,166.757 1127.32,162.257 1133.5,158C 1138.18,152.894 1138.68,147.394 1135,141.5C 1126.67,135.996 1118.51,130.329 1110.5,124.5C 1115.51,113.141 1120.51,101.807 1125.5,90.5 Z"/></g>
<g><path style="opacity:1" fill="#fafbfe" d="M 1238.5,90.5 C 1244.33,101.501 1249.66,112.834 1254.5,124.5C 1246.16,130.662 1237.66,136.662 1229,142.5C 1226.42,148.287 1227.25,153.454 1231.5,158C 1237.68,162.257 1243.68,166.757 1249.5,171.5C 1234.6,182.867 1219.43,193.867 1204,204.5C 1203.33,203.167 1203.33,201.833 1204,200.5C 1215.94,163.941 1227.44,127.274 1238.5,90.5 Z"/></g>
<g><path style="opacity:1" fill="#fefefe" d="M 1073.5,597.5 C 1074.17,571.5 1074.83,545.5 1075.5,519.5C 1091.2,524.941 1106.87,524.775 1122.5,519C 1134.98,512.55 1142.48,502.383 1145,488.5C 1145.67,471.167 1145.67,453.833 1145,436.5C 1143.5,433.667 1141.33,431.5 1138.5,430C 1117.17,429.5 1095.84,429.333 1074.5,429.5C 1074.67,359.499 1074.5,289.499 1074,219.5C 1070.96,213.397 1066.13,211.231 1059.5,213C 1056.67,214.5 1054.5,216.667 1053,219.5C 1037.63,272.085 1022.8,324.752 1008.5,377.5C 993.182,372.511 977.849,367.511 962.5,362.5C 989.694,287.42 1017.19,212.42 1045,137.5C 1063,123.5 1081,109.5 1099,95.5C 1094.55,106.41 1090.05,117.41 1085.5,128.5C 1085.77,132.143 1087.1,135.31 1089.5,138C 1095.67,141.584 1101.67,145.417 1107.5,149.5C 1101.31,154.852 1094.81,159.852 1088,164.5C 1085.04,168.566 1084.71,172.899 1087,177.5C 1114.72,198.22 1142.72,218.554 1171,238.5C 1171.67,385.167 1171.67,531.833 1171,678.5C 1165.48,685.022 1159.64,691.188 1153.5,697C 1126.84,697.5 1100.17,697.667 1073.5,697.5C 1073.5,664.167 1073.5,630.833 1073.5,597.5 Z"/></g>
<g><path style="opacity:1" fill="#fefefe" d="M 1289.5,519.5 C 1290.17,545.5 1290.83,571.5 1291.5,597.5C 1291.5,630.833 1291.5,664.167 1291.5,697.5C 1264.83,697.667 1238.16,697.5 1211.5,697C 1205.36,691.188 1199.52,685.022 1194,678.5C 1193.33,531.833 1193.33,385.167 1194,238.5C 1222.28,218.554 1250.28,198.22 1278,177.5C 1280.19,172.972 1279.86,168.639 1277,164.5C 1270.19,159.852 1263.69,154.852 1257.5,149.5C 1263.83,145.333 1270.17,141.167 1276.5,137C 1278.19,134.425 1279.19,131.592 1279.5,128.5C 1274.95,117.41 1270.45,106.41 1266,95.5C 1284,109.5 1302,123.5 1320,137.5C 1347.81,212.42 1375.31,287.42 1402.5,362.5C 1387.18,367.489 1371.85,372.489 1356.5,377.5C 1342.2,324.752 1327.37,272.085 1312,219.5C 1308.68,213.092 1303.51,210.925 1296.5,213C 1294.29,214.873 1292.46,217.04 1291,219.5C 1290.5,289.499 1290.33,359.499 1290.5,429.5C 1268.83,429.333 1247.16,429.5 1225.5,430C 1223,431.167 1221.17,433 1220,435.5C 1219.33,454.167 1219.33,472.833 1220,491.5C 1225.35,508.179 1236.51,518.679 1253.5,523C 1265.82,524.446 1277.82,523.279 1289.5,519.5 Z"/></g>
<g><path style="opacity:1" fill="#fcfdfe" d="M 1183.5,194.5 C 1182.83,194.5 1182.17,194.5 1181.5,194.5C 1173.65,168.758 1165.48,143.091 1157,117.5C 1156.26,114.083 1155.6,110.749 1155,107.5C 1165.75,114.81 1177.58,117.31 1190.5,115C 1197.41,113.36 1204.07,111.36 1210.5,109C 1201,137.338 1192,165.838 1183.5,194.5 Z"/></g>
<g><path style="opacity:1" fill="#9dbff9" d="M 1181.5,194.5 C 1182.17,194.5 1182.83,194.5 1183.5,194.5C 1182.83,197.167 1182.17,197.167 1181.5,194.5 Z"/></g>
<g><path style="opacity:1" fill="#fefefe" d="M 1074.5,451.5 C 1090.83,451.5 1107.17,451.5 1123.5,451.5C 1123.67,463.171 1123.5,474.838 1123,486.5C 1118.84,498.091 1110.51,503.091 1098,501.5C 1088.49,502.744 1081.16,499.411 1076,491.5C 1074.56,478.24 1074.06,464.907 1074.5,451.5 Z"/></g>
<g><path style="opacity:1" fill="#fdfefe" d="M 1240.5,451.5 C 1257.17,451.5 1273.83,451.5 1290.5,451.5C 1290.67,463.505 1290.5,475.505 1290,487.5C 1285.3,498.358 1276.96,503.025 1265,501.5C 1254.01,502.842 1246.34,498.509 1242,488.5C 1240.56,476.242 1240.06,463.909 1240.5,451.5 Z"/></g>
<g><path style="opacity:1" fill="#d0e0fc" d="M 1075.5,519.5 C 1074.83,545.5 1074.17,571.5 1073.5,597.5C 1073.17,571.158 1073.5,544.825 1074.5,518.5C 1075.11,518.624 1075.44,518.957 1075.5,519.5 Z"/></g>
<g><path style="opacity:1" fill="#d0e1fc" d="M 1289.5,519.5 C 1289.56,518.957 1289.89,518.624 1290.5,518.5C 1291.5,544.825 1291.83,571.158 1291.5,597.5C 1290.83,571.5 1290.17,545.5 1289.5,519.5 Z"/></g>
</svg>
