<?xml version="1.0" encoding="UTF-8"?>
<!DOCTYPE svg PUBLIC "-//W3C//DTD SVG 1.1//EN" "http://www.w3.org/Graphics/SVG/1.1/DTD/svg11.dtd">
<svg xmlns="http://www.w3.org/2000/svg" version="1.1" width="2388px" height="1520px" style="shape-rendering:geometricPrecision; text-rendering:geometricPrecision; image-rendering:optimizeQuality; fill-rule:evenodd; clip-rule:evenodd" xmlns:xlink="http://www.w3.org/1999/xlink">
<g><path style="opacity:1" fill="#fefefe" d="M -0.5,-0.5 C 795.5,-0.5 1591.5,-0.5 2387.5,-0.5C 2387.5,506.167 2387.5,1012.83 2387.5,1519.5C 1591.5,1519.5 795.5,1519.5 -0.5,1519.5C -0.5,1012.83 -0.5,506.167 -0.5,-0.5 Z"/></g>
<g><path style="opacity:1" fill="#4586f4" d="M 1069.5,62.5 C 1113.83,62.3333 1158.17,62.5 1202.5,63C 1204.94,63.7739 1206.77,65.2739 1208,67.5C 1208.67,176.833 1208.67,286.167 1208,395.5C 1203.53,427.95 1186.7,451.45 1157.5,466C 1095.05,494.059 1032.71,522.393 970.5,551C 934.157,562.552 904.657,553.052 882,522.5C 862.367,485.672 867.867,453.172 898.5,425C 904.002,421.415 909.669,418.081 915.5,415C 961.288,393.606 1006.95,371.94 1052.5,350C 1058.78,345.269 1062.95,339.102 1065,331.5C 1065.33,243.5 1065.67,155.5 1066,67.5C 1067,65.6769 1068.16,64.0103 1069.5,62.5 Z"/></g>
<g><path style="opacity:1" fill="#fefefe" d="M 1081.5,78.5 C 1118.5,78.5 1155.5,78.5 1192.5,78.5C 1192.67,182.834 1192.5,287.167 1192,391.5C 1189.28,417.8 1176.45,437.3 1153.5,450C 1091.42,478.14 1029.42,506.473 967.5,535C 940.317,544.985 917.15,539.152 898,517.5C 879.668,487.344 883.501,460.51 909.5,437C 913.841,433.828 918.508,431.161 923.5,429C 969.288,407.606 1014.95,385.94 1060.5,364C 1072,356.171 1078.84,345.338 1081,331.5C 1081.5,247.167 1081.67,162.834 1081.5,78.5 Z"/></g>
</svg>
