<?xml version="1.0" encoding="UTF-8"?>
<!DOCTYPE svg PUBLIC "-//W3C//DTD SVG 1.1//EN" "http://www.w3.org/Graphics/SVG/1.1/DTD/svg11.dtd">
<svg xmlns="http://www.w3.org/2000/svg" version="1.1" width="2388px" height="1520px" style="shape-rendering:geometricPrecision; text-rendering:geometricPrecision; image-rendering:optimizeQuality; fill-rule:evenodd; clip-rule:evenodd" xmlns:xlink="http://www.w3.org/1999/xlink">
<g><path style="opacity:1" fill="#fefefe" d="M -0.5,-0.5 C 795.5,-0.5 1591.5,-0.5 2387.5,-0.5C 2387.5,506.167 2387.5,1012.83 2387.5,1519.5C 1591.5,1519.5 795.5,1519.5 -0.5,1519.5C -0.5,1012.83 -0.5,506.167 -0.5,-0.5 Z"/></g>
<g><path style="opacity:1" fill="#4787f4" d="M 1145.5,123.5 C 1182.03,121.228 1216.69,128.061 1249.5,144C 1275.25,160.012 1286.09,183.179 1282,213.5C 1281.29,234.72 1277.62,255.387 1271,275.5C 1262.45,298.866 1245.95,313.033 1221.5,318C 1229.5,318.333 1237.5,318.667 1245.5,319C 1246.67,319.5 1247.5,320.333 1248,321.5C 1248.67,341.5 1248.67,361.5 1248,381.5C 1247.5,382 1247,382.5 1246.5,383C 1238.17,383.333 1229.83,383.667 1221.5,384C 1207.45,399.024 1190.12,407.69 1169.5,410C 1139.79,413.929 1114.45,405.429 1093.5,384.5C 1085.19,383.668 1076.85,383.168 1068.5,383C 1065.87,380.804 1064.87,377.97 1065.5,374.5C 1048.5,374.667 1031.5,374.5 1014.5,374C 1014,373.5 1013.5,373 1013,372.5C 1012.33,358.5 1012.33,344.5 1013,330.5C 1013.5,329.333 1014.33,328.5 1015.5,328C 1032.16,327.5 1048.83,327.333 1065.5,327.5C 1064.87,324.03 1065.87,321.196 1068.5,319C 1076.83,318.667 1085.17,318.333 1093.5,318C 1071.24,315.069 1055.07,303.569 1045,283.5C 1037.2,264.244 1032.53,244.244 1031,223.5C 1023.58,187 1036.08,160.167 1068.5,143C 1083.52,135.994 1099.18,130.994 1115.5,128C 1125.64,126.465 1135.64,124.965 1145.5,123.5 Z"/></g>
<g><path style="opacity:1" fill="#f8fafe" d="M 1152.5,132.5 C 1180.03,132.028 1206.7,136.528 1232.5,146C 1238.16,148.493 1243.49,151.493 1248.5,155C 1241.98,153.43 1235.32,152.097 1228.5,151C 1179.17,150.333 1129.83,150.333 1080.5,151C 1077.45,151.679 1074.45,152.512 1071.5,153.5C 1070.3,153.154 1070.3,152.654 1071.5,152C 1088.05,144.194 1105.38,138.861 1123.5,136C 1133.29,134.568 1142.95,133.401 1152.5,132.5 Z"/></g>
<g><path style="opacity:1" fill="#fefefe" d="M 1101.5,159.5 C 1136.83,159.333 1172.17,159.5 1207.5,160C 1224,160.382 1237.84,166.549 1249,178.5C 1254.66,187.311 1257.5,196.977 1257.5,207.5C 1257.52,225.754 1253.02,242.754 1244,258.5C 1240.07,264.434 1234.9,268.934 1228.5,272C 1227.17,272.667 1225.83,272.667 1224.5,272C 1216.55,265.383 1210.05,257.55 1205,248.5C 1196,231.833 1187,215.167 1178,198.5C 1174.17,193.673 1170.01,189.173 1165.5,185C 1158.6,181.417 1151.93,181.75 1145.5,186C 1141.96,189.201 1138.8,192.701 1136,196.5C 1126.82,212.181 1118.16,228.181 1110,244.5C 1104.33,255.169 1096.83,264.335 1087.5,272C 1083.84,271.849 1080.51,270.515 1077.5,268C 1064.16,254.691 1057,238.524 1056,219.5C 1051.79,184.57 1066.95,164.57 1101.5,159.5 Z"/></g>
<g><path style="opacity:1" fill="#f8fafe" d="M 1056.5,169.5 C 1057.24,169.369 1057.91,169.536 1058.5,170C 1052.43,176.306 1048.6,183.806 1047,192.5C 1043.66,214.738 1046.66,236.071 1056,256.5C 1058.3,260.304 1060.8,263.97 1063.5,267.5C 1063.17,267.833 1062.83,268.167 1062.5,268.5C 1052.42,259.672 1045.92,248.672 1043,235.5C 1038.54,219.12 1038.54,202.787 1043,186.5C 1046.63,180.045 1051.13,174.379 1056.5,169.5 Z"/></g>
<g><path style="opacity:1" fill="#f3f6fe" d="M 1255.5,170.5 C 1262.26,174.434 1267.09,180.1 1270,187.5C 1276.25,212.519 1272.91,236.186 1260,258.5C 1257,262.833 1253.33,266.5 1249,269.5C 1252.85,262.805 1256.52,255.805 1260,248.5C 1266.12,230.998 1268.12,212.998 1266,194.5C 1264.32,185.613 1260.82,177.613 1255.5,170.5 Z"/></g>
<g><path style="opacity:1" fill="#fdfdfe" d="M 1153.5,191.5 C 1155.99,191.298 1158.32,191.798 1160.5,193C 1163,195.5 1165.5,198 1168,200.5C 1177.91,217.975 1187.57,235.641 1197,253.5C 1203.06,263.558 1210.56,272.391 1219.5,280C 1225.54,284.176 1232.21,285.509 1239.5,284C 1248.34,281.664 1255.84,277.164 1262,270.5C 1254.86,294.632 1238.7,307.132 1213.5,308C 1210.57,306.729 1207.9,305.062 1205.5,303C 1196.69,290.941 1185.36,282.274 1171.5,277C 1154.02,272.708 1138.02,275.708 1123.5,286C 1117.17,292.333 1110.83,298.667 1104.5,305C 1097.05,309.312 1089.38,309.645 1081.5,306C 1065.25,298.602 1054.75,286.436 1050,269.5C 1058.92,280.547 1070.42,285.381 1084.5,284C 1088.11,282.861 1091.45,281.194 1094.5,279C 1100.74,273.429 1106.24,267.262 1111,260.5C 1121.02,244.471 1130.02,227.805 1138,210.5C 1142.3,203.372 1147.47,197.039 1153.5,191.5 Z"/></g>
<g><path style="opacity:1" fill="#f5f8fe" d="M 1147.5,284.5 C 1161.7,282.802 1174.37,286.302 1185.5,295C 1175.83,293.071 1166,291.905 1156,291.5C 1145.82,291.449 1135.98,292.949 1126.5,296C 1132.71,290.566 1139.71,286.733 1147.5,284.5 Z"/></g>
<g><path style="opacity:1" fill="#fdfdfe" d="M 1141.5,301.5 C 1162.79,298.858 1182.79,302.691 1201.5,313C 1223.52,327.719 1229.35,347.219 1219,371.5C 1206.6,388.625 1189.77,398.458 1168.5,401C 1141.13,404.322 1117.96,396.156 1099,376.5C 1083.84,351.955 1088.01,331.122 1111.5,314C 1120.92,308.147 1130.92,303.981 1141.5,301.5 Z"/></g>
<g><path style="opacity:1" fill="#4b89f4" d="M 1151.5,323.5 C 1167.11,322.707 1177.94,329.373 1184,343.5C 1186.63,361.773 1179.13,373.273 1161.5,378C 1145.1,379.619 1134.6,372.452 1130,356.5C 1128.65,339.85 1135.82,328.85 1151.5,323.5 Z"/></g>
<g><path style="opacity:1" fill="#90b7f8" d="M 1238.5,328.5 C 1235.29,328.19 1232.29,328.523 1229.5,329.5C 1228.96,329.44 1228.62,329.107 1228.5,328.5C 1231.98,327.194 1235.31,327.194 1238.5,328.5 Z"/></g>
<g><path style="opacity:1" fill="#fafcfe" d="M 1075.5,328.5 C 1078.9,328.18 1082.23,328.513 1085.5,329.5C 1080.3,340.717 1079.14,352.383 1082,364.5C 1083.11,367.895 1084.61,371.061 1086.5,374C 1082.85,374.499 1079.18,374.665 1075.5,374.5C 1075.5,359.167 1075.5,343.833 1075.5,328.5 Z"/></g>
<g><path style="opacity:1" fill="#fdfdfe" d="M 1238.5,328.5 C 1238.5,343.5 1238.5,358.5 1238.5,373.5C 1235.29,373.81 1232.29,373.477 1229.5,372.5C 1236.17,358.167 1236.17,343.833 1229.5,329.5C 1232.29,328.523 1235.29,328.19 1238.5,328.5 Z"/></g>
<g><path style="opacity:1" fill="#c6dafb" d="M 1238.5,328.5 C 1239.5,343.658 1239.83,358.991 1239.5,374.5C 1235.77,374.823 1232.11,374.489 1228.5,373.5C 1228.62,372.893 1228.96,372.56 1229.5,372.5C 1232.29,373.477 1235.29,373.81 1238.5,373.5C 1238.5,358.5 1238.5,343.5 1238.5,328.5 Z"/></g>
<g><path style="opacity:1" fill="#fbfcfe" d="M 1150.5,333.5 C 1160.65,331.509 1168.49,334.842 1174,343.5C 1177.13,354.079 1173.96,362.246 1164.5,368C 1149.89,371.532 1141.56,365.865 1139.5,351C 1139.76,342.96 1143.43,337.127 1150.5,333.5 Z"/></g>
<g><path style="opacity:1" fill="#fefffe" d="M 1022.5,337.5 C 1036.83,337.5 1051.17,337.5 1065.5,337.5C 1065.5,346.5 1065.5,355.5 1065.5,364.5C 1051.17,364.5 1036.83,364.5 1022.5,364.5C 1022.5,355.5 1022.5,346.5 1022.5,337.5 Z"/></g>
<g><path style="opacity:1" fill="#c9dcfb" d="M 1022.5,337.5 C 1022.5,346.5 1022.5,355.5 1022.5,364.5C 1036.83,364.5 1051.17,364.5 1065.5,364.5C 1051.01,365.496 1036.34,365.829 1021.5,365.5C 1021.17,355.985 1021.51,346.652 1022.5,337.5 Z"/></g>
</svg>
