<?xml version="1.0" encoding="UTF-8"?>
<!DOCTYPE svg PUBLIC "-//W3C//DTD SVG 1.1//EN" "http://www.w3.org/Graphics/SVG/1.1/DTD/svg11.dtd">
<svg xmlns="http://www.w3.org/2000/svg" version="1.1" width="2388px" height="1520px" style="shape-rendering:geometricPrecision; text-rendering:geometricPrecision; image-rendering:optimizeQuality; fill-rule:evenodd; clip-rule:evenodd" xmlns:xlink="http://www.w3.org/1999/xlink">
<g><path style="opacity:1" fill="#fefefe" d="M -0.5,-0.5 C 795.5,-0.5 1591.5,-0.5 2387.5,-0.5C 2387.5,506.167 2387.5,1012.83 2387.5,1519.5C 1591.5,1519.5 795.5,1519.5 -0.5,1519.5C -0.5,1012.83 -0.5,506.167 -0.5,-0.5 Z"/></g>
<g><path style="opacity:1" fill="#4586f4" d="M 914.5,252.5 C 973.55,249.919 1031.88,255.086 1089.5,268C 1105.16,269.957 1120.83,269.957 1136.5,268C 1194.79,254.812 1253.79,249.812 1313.5,253C 1327.9,254.518 1342.24,256.518 1356.5,259C 1363.17,259.333 1369.83,259.667 1376.5,260C 1379,261.167 1380.83,263 1382,265.5C 1382.67,279.167 1382.67,292.833 1382,306.5C 1380.39,309.772 1378.39,312.772 1376,315.5C 1375.21,318.471 1374.54,321.471 1374,324.5C 1372.67,342.5 1371.33,360.5 1370,378.5C 1367.77,411.371 1351.6,434.204 1321.5,447C 1281.07,460.882 1240.4,461.882 1199.5,450C 1170.88,439.043 1150.38,419.543 1138,391.5C 1133.83,377.814 1129.49,364.147 1125,350.5C 1122.49,344.127 1118.99,338.46 1114.5,333.5C 1110.35,337.787 1107.18,342.787 1105,348.5C 1100.17,360.975 1096.17,373.642 1093,386.5C 1080.18,419.315 1057.02,441.149 1023.5,452C 983.187,462.203 943.52,460.203 904.5,446C 881.659,435.486 867.159,417.986 861,393.5C 858.366,368.855 856.032,344.188 854,319.5C 853.625,317 852.792,314.667 851.5,312.5C 849.282,311.076 847.782,309.076 847,306.5C 846.333,292.833 846.333,279.167 847,265.5C 847.785,263.714 848.951,262.214 850.5,261C 871.998,258.728 893.331,255.895 914.5,252.5 Z"/></g>
<g><path style="opacity:1" fill="#fafbfe" d="M 922.5,269.5 C 975.79,267.74 1028.46,272.573 1080.5,284C 1098.39,287.646 1116.39,288.312 1134.5,286C 1189.44,273.266 1245.11,267.932 1301.5,270C 1322.56,271.733 1343.56,273.9 1364.5,276.5C 1364.67,284.84 1364.5,293.173 1364,301.5C 1360.9,305.697 1358.9,310.363 1358,315.5C 1355.83,338.16 1353.83,360.827 1352,383.5C 1347.22,411.285 1331.05,428.452 1303.5,435C 1279.75,440.064 1255.75,441.731 1231.5,440C 1192.37,434.858 1165.54,414.024 1151,377.5C 1147.65,361.464 1142.32,346.131 1135,331.5C 1131.42,324.919 1126.25,320.086 1119.5,317C 1113.66,315.676 1108.32,316.676 1103.5,320C 1095.86,327.438 1090.36,336.271 1087,346.5C 1083.21,358.473 1079.54,370.473 1076,382.5C 1059.67,418.136 1031.83,437.303 992.5,440C 964.671,442.953 937.671,439.62 911.5,430C 893.415,422.246 882.248,408.746 878,389.5C 875.31,364.87 872.977,340.204 871,315.5C 870.09,310.349 868.09,305.682 865,301.5C 864.5,293.173 864.334,284.84 864.5,276.5C 883.945,273.957 903.279,271.624 922.5,269.5 Z"/></g>
<g><path style="opacity:1" fill="#4586f4" d="M 940.5,272.5 C 979.881,271.034 1018.55,275.534 1056.5,286C 1074.49,294.008 1082.32,307.842 1080,327.5C 1076.53,354.591 1067.53,379.591 1053,402.5C 1038.64,421.434 1019.47,431.601 995.5,433C 975.036,435.558 954.703,434.892 934.5,431C 920.247,428.131 908.413,421.297 899,410.5C 891.064,394.424 886.397,377.424 885,359.5C 884.333,346.833 884.333,334.167 885,321.5C 885.711,307.654 889.378,294.654 896,282.5C 896.833,281.667 897.667,280.833 898.5,280C 903.363,278.201 908.363,276.867 913.5,276C 922.651,274.86 931.651,273.693 940.5,272.5 Z"/></g>
<g><path style="opacity:1" fill="#4586f4" d="M 1254.5,272.5 C 1280.2,271.379 1305.53,273.879 1330.5,280C 1337.4,289.353 1341.57,299.853 1343,311.5C 1347.11,341.814 1344.44,371.481 1335,400.5C 1328.4,415.758 1316.9,425.258 1300.5,429C 1269,436.788 1237.67,436.121 1206.5,427C 1190.83,419.66 1178.66,408.493 1170,393.5C 1158.18,370.372 1151.01,345.872 1148.5,320C 1149.88,302.91 1158.54,291.244 1174.5,285C 1200.92,278.275 1227.59,274.109 1254.5,272.5 Z"/></g>
<g><path style="opacity:1" fill="#fefefe" d="M 931.5,290.5 C 970.386,288.273 1008.72,291.773 1046.5,301C 1057.11,303.595 1062.44,310.262 1062.5,321C 1060.49,349.711 1050.99,375.544 1034,398.5C 1023.48,408.239 1010.98,413.739 996.5,415C 973.473,419.319 950.807,417.985 928.5,411C 922.897,408.952 918.064,405.786 914,401.5C 906.326,386.148 902.326,369.815 902,352.5C 899.9,332.639 902.067,313.306 908.5,294.5C 916.359,293.491 924.025,292.157 931.5,290.5 Z"/></g>
<g><path style="opacity:1" fill="#fefefe" d="M 1240.5,290.5 C 1267.31,289.508 1293.98,290.841 1320.5,294.5C 1325.57,308.526 1327.9,323.026 1327.5,338C 1327.95,358.9 1324.45,379.067 1317,398.5C 1311.97,405.606 1305.14,410.106 1296.5,412C 1268.76,419.557 1241.09,419.224 1213.5,411C 1200.78,405.614 1191.28,396.781 1185,384.5C 1173.19,362.256 1167.19,338.59 1167,313.5C 1169.5,308.333 1173.33,304.5 1178.5,302C 1199.07,296.9 1219.74,293.067 1240.5,290.5 Z"/></g>
</svg>
