<?xml version="1.0" encoding="UTF-8"?>
<!DOCTYPE svg PUBLIC "-//W3C//DTD SVG 1.1//EN" "http://www.w3.org/Graphics/SVG/1.1/DTD/svg11.dtd">
<svg xmlns="http://www.w3.org/2000/svg" version="1.1" width="2388px" height="1520px" style="shape-rendering:geometricPrecision; text-rendering:geometricPrecision; image-rendering:optimizeQuality; fill-rule:evenodd; clip-rule:evenodd" xmlns:xlink="http://www.w3.org/1999/xlink">
<g><path style="opacity:1" fill="#fefefe" d="M -0.5,-0.5 C 795.5,-0.5 1591.5,-0.5 2387.5,-0.5C 2387.5,506.167 2387.5,1012.83 2387.5,1519.5C 1591.5,1519.5 795.5,1519.5 -0.5,1519.5C -0.5,1012.83 -0.5,506.167 -0.5,-0.5 Z"/></g>
<g><path style="opacity:1" fill="#4486f4" d="M 1122.5,49.5 C 1162.5,49.3333 1202.5,49.5 1242.5,50C 1244,51.5 1245.5,53 1247,54.5C 1249.63,64.9554 1255.13,73.4554 1263.5,80C 1296.24,102.544 1331.24,121.211 1368.5,136C 1382.83,141.997 1393.66,151.831 1401,165.5C 1413.33,189.164 1421.67,214.164 1426,240.5C 1431.99,276.988 1433.99,313.655 1432,350.5C 1428.44,354.469 1423.94,356.302 1418.5,356C 1394.57,357.639 1370.73,359.805 1347,362.5C 1345.86,386.157 1344.86,409.824 1344,433.5C 1343.5,525.836 1343.5,618.169 1344,710.5C 1343.11,714.112 1340.94,716.612 1337.5,718C 1233.83,718.667 1130.17,718.667 1026.5,718C 1023.86,716.039 1022.03,713.539 1021,710.5C 1021.6,616.506 1021.6,522.506 1021,428.5C 1020.42,406.47 1019.42,384.47 1018,362.5C 991.516,360.405 965.016,357.905 938.5,355C 936.376,353.878 934.543,352.378 933,350.5C 929.712,305.212 933.712,260.545 945,216.5C 950.521,194.594 959.521,174.26 972,155.5C 977.571,149.258 983.738,143.758 990.5,139C 1029.75,123.212 1066.75,103.545 1101.5,80C 1109.88,73.4213 1115.38,64.9213 1118,54.5C 1119.71,52.9625 1121.21,51.2959 1122.5,49.5 Z"/></g>
<g><path style="opacity:1" fill="#fbfcfe" d="M 1141.5,70.5 C 1168.83,70.5 1196.17,70.5 1223.5,70.5C 1219.83,90.7324 1208.83,105.232 1190.5,114C 1186.37,117.131 1182.53,120.631 1179,124.5C 1177.09,122.343 1175.42,120.009 1174,117.5C 1166.92,110.815 1159.92,104.149 1153,97.5C 1147.51,89.1932 1143.68,80.1932 1141.5,70.5 Z"/></g>
<g><path style="opacity:1" fill="#fcfdfe" d="M 1122.5,89.5 C 1123.38,89.3691 1124.04,89.7025 1124.5,90.5C 1128.35,99.7083 1133.35,108.208 1139.5,116C 1133.83,119.5 1128.17,123 1122.5,126.5C 1119.91,117.238 1117.58,107.905 1115.5,98.5C 1117.44,95.2208 1119.78,92.2208 1122.5,89.5 Z"/></g>
<g><path style="opacity:1" fill="#fcfdfe" d="M 1240.5,89.5 C 1244.49,91.4863 1247.49,94.4863 1249.5,98.5C 1247.48,107.919 1245.15,117.252 1242.5,126.5C 1236.83,123 1231.17,119.5 1225.5,116C 1232.44,108.297 1237.44,99.4639 1240.5,89.5 Z"/></g>
<g><path style="opacity:1" fill="#fefefe" d="M 1410.5,300.5 C 1410.5,302.167 1410.5,303.833 1410.5,305.5C 1409.21,305.263 1408.21,305.596 1407.5,306.5C 1388.51,307.695 1369.51,308.695 1350.5,309.5C 1351.17,292.302 1353.34,275.302 1357,258.5C 1359.32,249.324 1355.82,243.99 1346.5,242.5C 1341.09,243.286 1337.59,246.286 1336,251.5C 1330.7,280.936 1327.37,310.603 1326,340.5C 1321.47,459.13 1320.31,577.797 1322.5,696.5C 1229.5,696.5 1136.5,696.5 1043.5,696.5C 1043.5,687.5 1043.5,678.5 1043.5,669.5C 1043.67,591.833 1043.5,514.166 1043,436.5C 1042.44,377.578 1038.44,318.912 1031,260.5C 1030.21,256.45 1029.21,252.45 1028,248.5C 1021.39,240.627 1014.73,240.627 1008,248.5C 1010.56,269.084 1012.73,289.751 1014.5,310.5C 994.523,308.852 974.523,307.519 954.5,306.5C 954.538,264.812 962.704,224.812 979,186.5C 984.015,174.934 991.515,165.434 1001.5,158C 1034.35,144.828 1065.51,128.661 1095,109.5C 1098.58,122.752 1101.92,136.085 1105,149.5C 1108.79,154.153 1113.62,155.653 1119.5,154C 1132.25,146.877 1144.75,139.377 1157,131.5C 1160.17,135.841 1162.84,140.508 1165,145.5C 1160.05,160.372 1156.72,175.706 1155,191.5C 1154.33,208.833 1154.33,226.167 1155,243.5C 1157.76,251.906 1163.26,254.406 1171.5,251C 1173.38,249.457 1174.88,247.624 1176,245.5C 1176.33,226.833 1176.67,208.167 1177,189.5C 1178.25,171.068 1184.25,154.401 1195,139.5C 1198.06,135.938 1201.56,132.938 1205.5,130.5C 1218.96,138.134 1232.3,145.967 1245.5,154C 1251.38,155.653 1256.21,154.153 1260,149.5C 1263.33,136.167 1266.67,122.833 1270,109.5C 1299.7,128.935 1331.2,145.101 1364.5,158C 1375.25,165.429 1383.09,175.262 1388,187.5C 1402.22,223.787 1409.72,261.454 1410.5,300.5 Z"/></g>
<g><path style="opacity:1" fill="#9dbff9" d="M 1410.5,300.5 C 1411.46,302.265 1411.79,304.265 1411.5,306.5C 1410.17,306.5 1408.83,306.5 1407.5,306.5C 1408.21,305.596 1409.21,305.263 1410.5,305.5C 1410.5,303.833 1410.5,302.167 1410.5,300.5 Z"/></g>
<g><path style="opacity:1" fill="#f9fbfe" d="M 961.5,328.5 C 977.801,329.997 994.134,330.997 1010.5,331.5C 1012.26,332.461 1014.26,332.795 1016.5,332.5C 1016.5,334.833 1016.5,337.167 1016.5,339.5C 1014.5,339.5 1012.5,339.5 1010.5,339.5C 993.146,338.386 975.812,337.053 958.5,335.5C 957.081,334.549 955.415,334.216 953.5,334.5C 953.5,332.5 953.5,330.5 953.5,328.5C 956.167,328.5 958.833,328.5 961.5,328.5 Z"/></g>
<g><path style="opacity:1" fill="#f9fafe" d="M 1405.5,328.5 C 1407.5,328.5 1409.5,328.5 1411.5,328.5C 1411.5,330.5 1411.5,332.5 1411.5,334.5C 1410.21,334.263 1409.21,334.596 1408.5,335.5C 1389.82,336.644 1371.15,337.977 1352.5,339.5C 1351.17,339.5 1349.83,339.5 1348.5,339.5C 1348.5,337.5 1348.5,335.5 1348.5,333.5C 1350.4,332.195 1352.73,331.529 1355.5,331.5C 1372.18,330.69 1388.85,329.69 1405.5,328.5 Z"/></g>
<g><path style="opacity:1" fill="#7ba7f7" d="M 961.5,328.5 C 958.833,328.5 956.167,328.5 953.5,328.5C 953.5,330.5 953.5,332.5 953.5,334.5C 955.415,334.216 957.081,334.549 958.5,335.5C 956.5,335.5 954.5,335.5 952.5,335.5C 952.5,332.833 952.5,330.167 952.5,327.5C 955.713,327.19 958.713,327.523 961.5,328.5 Z"/></g>
<g><path style="opacity:1" fill="#79a7f7" d="M 1405.5,328.5 C 1407.61,327.532 1409.94,327.198 1412.5,327.5C 1412.5,330.167 1412.5,332.833 1412.5,335.5C 1411.17,335.5 1409.83,335.5 1408.5,335.5C 1409.21,334.596 1410.21,334.263 1411.5,334.5C 1411.5,332.5 1411.5,330.5 1411.5,328.5C 1409.5,328.5 1407.5,328.5 1405.5,328.5 Z"/></g>
<g><path style="opacity:1" fill="#8fb5f8" d="M 1010.5,331.5 C 1012.83,331.5 1015.17,331.5 1017.5,331.5C 1017.5,334.5 1017.5,337.5 1017.5,340.5C 1014.94,340.802 1012.61,340.468 1010.5,339.5C 1012.5,339.5 1014.5,339.5 1016.5,339.5C 1016.5,337.167 1016.5,334.833 1016.5,332.5C 1014.26,332.795 1012.26,332.461 1010.5,331.5 Z"/></g>
<g><path style="opacity:1" fill="#95b9f9" d="M 1348.5,333.5 C 1348.5,335.5 1348.5,337.5 1348.5,339.5C 1349.83,339.5 1351.17,339.5 1352.5,339.5C 1351.08,340.451 1349.41,340.784 1347.5,340.5C 1347.2,337.941 1347.53,335.607 1348.5,333.5 Z"/></g>
<g><path style="opacity:1" fill="#bed5fb" d="M 1043.5,669.5 C 1043.5,678.5 1043.5,687.5 1043.5,696.5C 1136.5,696.5 1229.5,696.5 1322.5,696.5C 1229.33,697.499 1136,697.833 1042.5,697.5C 1042.17,687.985 1042.51,678.652 1043.5,669.5 Z"/></g>
</svg>
