<?xml version="1.0" encoding="UTF-8"?>
<!DOCTYPE svg PUBLIC "-//W3C//DTD SVG 1.1//EN" "http://www.w3.org/Graphics/SVG/1.1/DTD/svg11.dtd">
<svg xmlns="http://www.w3.org/2000/svg" version="1.1" width="2388px" height="1520px" style="shape-rendering:geometricPrecision; text-rendering:geometricPrecision; image-rendering:optimizeQuality; fill-rule:evenodd; clip-rule:evenodd" xmlns:xlink="http://www.w3.org/1999/xlink">
<g><path style="opacity:1" fill="#fefefe" d="M -0.5,-0.5 C 795.5,-0.5 1591.5,-0.5 2387.5,-0.5C 2387.5,506.167 2387.5,1012.83 2387.5,1519.5C 1591.5,1519.5 795.5,1519.5 -0.5,1519.5C -0.5,1012.83 -0.5,506.167 -0.5,-0.5 Z"/></g>
<g><path style="opacity:1" fill="#4586f4" d="M 945.5,243.5 C 994.756,241.122 1032.09,260.789 1057.5,302.5C 1082.33,284.967 1109.67,279.8 1139.5,287C 1151.12,290.308 1161.78,295.475 1171.5,302.5C 1199.89,256.642 1240.89,237.809 1294.5,246C 1339.68,257.842 1368.18,286.342 1380,331.5C 1387.48,376.405 1373.98,413.571 1339.5,443C 1307.58,466.377 1272.58,472.377 1234.5,461C 1181.49,438.946 1156.66,399.113 1160,341.5C 1160.57,334.241 1161.9,327.241 1164,320.5C 1153.4,309.95 1140.56,303.783 1125.5,302C 1105.89,299.153 1087.89,303.153 1071.5,314C 1069.33,316.167 1067.17,318.333 1065,320.5C 1077.37,365.853 1066.87,405.019 1033.5,438C 999.53,465.775 961.53,473.108 919.5,460C 869.194,437.647 845.027,398.813 847,343.5C 856.923,287.412 889.756,254.078 945.5,243.5 Z"/></g>
<g><path style="opacity:1" fill="#fefefe" d="M 948.5,260.5 C 996.741,259.513 1029.91,281.18 1048,325.5C 1059.12,365.212 1049.62,399.046 1019.5,427C 992.586,448.118 962.586,454.118 929.5,445C 882.591,426.048 861.091,391.215 865,340.5C 875.466,295.531 903.3,268.864 948.5,260.5 Z"/></g>
<g><path style="opacity:1" fill="#fefefe" d="M 1260.5,260.5 C 1308.24,259.436 1341.4,280.77 1360,324.5C 1372.25,372.132 1358.09,409.632 1317.5,437C 1272.34,458.891 1232.5,451.724 1198,415.5C 1173.31,382.227 1169.97,346.894 1188,309.5C 1204.52,281.825 1228.69,265.492 1260.5,260.5 Z"/></g>
</svg>
