<?xml version="1.0" encoding="UTF-8"?>
<!DOCTYPE svg PUBLIC "-//W3C//DTD SVG 1.1//EN" "http://www.w3.org/Graphics/SVG/1.1/DTD/svg11.dtd">
<svg xmlns="http://www.w3.org/2000/svg" version="1.1" width="2388px" height="1520px" style="shape-rendering:geometricPrecision; text-rendering:geometricPrecision; image-rendering:optimizeQuality; fill-rule:evenodd; clip-rule:evenodd" xmlns:xlink="http://www.w3.org/1999/xlink">
<g><path style="opacity:1" fill="#fefefe" d="M -0.5,-0.5 C 795.5,-0.5 1591.5,-0.5 2387.5,-0.5C 2387.5,506.167 2387.5,1012.83 2387.5,1519.5C 1591.5,1519.5 795.5,1519.5 -0.5,1519.5C -0.5,1012.83 -0.5,506.167 -0.5,-0.5 Z"/></g>
<g><path style="opacity:1" fill="#4787f4" d="M 990.5,207.5 C 997.162,207.22 1003,209.22 1008,213.5C 1020.63,237.922 1033.13,262.422 1045.5,287C 1074.34,303.587 1103.34,319.92 1132.5,336C 1152.74,341.143 1173.07,345.81 1193.5,350C 1201.53,353.359 1206.7,359.192 1209,367.5C 1209.67,375.167 1209.67,382.833 1209,390.5C 1207.99,394.843 1205.49,398.01 1201.5,400C 1182.28,403.982 1162.94,407.315 1143.5,410C 1055.83,410.667 968.167,410.667 880.5,410C 875.649,408.131 872.816,404.631 872,399.5C 871.5,385.5 871,371.5 870.5,357.5C 870.567,340.999 873.4,324.999 879,309.5C 879.363,288.16 879.363,266.827 879,245.5C 879.833,244.667 880.667,243.833 881.5,243C 910.125,243.874 937.791,239.208 964.5,229C 970.469,224.033 976.135,218.699 981.5,213C 984.263,210.626 987.263,208.792 990.5,207.5 Z"/></g>
<g><path style="opacity:1" fill="#fbfcfe" d="M 992.5,218.5 C 995.505,218.253 998.005,219.253 1000,221.5C 1003.5,228.5 1007,235.5 1010.5,242.5C 1010.29,243.086 1009.96,243.586 1009.5,244C 1004.92,245.975 1000.25,247.308 995.5,248C 991.417,241.084 986.417,234.918 980.5,229.5C 984.546,225.783 988.546,222.116 992.5,218.5 Z"/></g>
<g><path style="opacity:1" fill="#fdfdfe" d="M 954.5,243.5 C 955.978,243.238 957.311,243.571 958.5,244.5C 966.373,259.08 974.373,273.58 982.5,288C 961.937,305.114 938.27,313.447 911.5,313C 904.323,311.775 897.656,309.275 891.5,305.5C 890.5,288.179 890.167,270.846 890.5,253.5C 906.378,254.208 922.044,252.708 937.5,249C 943.464,247.663 949.131,245.829 954.5,243.5 Z"/></g>
<g><path style="opacity:1" fill="#f8fafe" d="M 1014.5,253.5 C 1016.99,255.28 1018.66,257.78 1019.5,261C 1019.09,261.945 1018.43,262.612 1017.5,263C 1013.85,264.445 1010.18,265.445 1006.5,266C 1004.34,263.851 1003.17,261.351 1003,258.5C 1006.88,256.716 1010.71,255.049 1014.5,253.5 Z"/></g>
<g><path style="opacity:1" fill="#f7f9fe" d="M 968.5,238.5 C 970.527,238.338 972.527,238.505 974.5,239C 979.368,242.948 982.534,247.782 984,253.5C 981.632,255.684 980.965,258.351 982,261.5C 984.553,263.729 987.386,264.062 990.5,262.5C 992.737,264.579 994.403,267.079 995.5,270C 992.557,273.998 992.89,277.665 996.5,281C 998.235,281.651 999.902,281.485 1001.5,280.5C 1001.75,285.774 1001.91,291.108 1002,296.5C 1004.56,302.739 1009.06,304.906 1015.5,303C 1022.76,300.868 1030.1,299.034 1037.5,297.5C 1036.63,303.989 1039.3,306.489 1045.5,305C 1047.81,302.093 1050.47,301.759 1053.5,304C 1053.82,306.042 1053.98,308.209 1054,310.5C 1055.33,314.104 1057.83,315.271 1061.5,314C 1063.81,311.093 1066.47,310.759 1069.5,313C 1069.73,315.369 1069.89,317.869 1070,320.5C 1071.08,322.39 1072.74,323.39 1075,323.5C 1077.9,322.537 1080.73,321.703 1083.5,321C 1084.03,321.692 1084.69,322.192 1085.5,322.5C 1085.24,332.6 1089.24,334.934 1097.5,329.5C 1098.83,330.167 1100.17,330.833 1101.5,331.5C 1101.52,340.368 1105.35,342.701 1113,338.5C 1115.39,339.278 1117.56,340.445 1119.5,342C 1115.92,345.39 1115.59,349.057 1118.5,353C 1120.5,353.667 1122.5,353.667 1124.5,353C 1129.1,346.685 1134.76,345.685 1141.5,350C 1138.19,355.306 1134.19,359.973 1129.5,364C 1125.37,364.854 1121.37,364.52 1117.5,363C 1113.25,356.499 1109.25,349.832 1105.5,343C 1080.83,331.667 1056.17,320.333 1031.5,309C 1022.34,311.165 1013.34,314.165 1004.5,318C 996.515,319.352 991.849,316.019 990.5,308C 992.271,301.135 993.771,294.302 995,287.5C 985.614,271.389 976.78,255.056 968.5,238.5 Z"/></g>
<g><path style="opacity:1" fill="#f8fafe" d="M 1022.5,272.5 C 1023.82,272.33 1024.99,272.663 1026,273.5C 1028.17,277.833 1030.33,282.167 1032.5,286.5C 1026.25,288.751 1019.91,290.751 1013.5,292.5C 1013.53,287.326 1013.2,282.159 1012.5,277C 1015.86,275.388 1019.19,273.888 1022.5,272.5 Z"/></g>
<g><path style="opacity:1" fill="#4988f4" d="M 999.5,302.5 C 1007.82,302.992 1009.49,306.492 1004.5,313C 998,314.5 995.5,312 997,305.5C 998.045,304.627 998.878,303.627 999.5,302.5 Z"/></g>
<g><path style="opacity:1" fill="#fdfefe" d="M 977.5,304.5 C 978.907,310.187 981.074,315.854 984,321.5C 989.628,328.397 996.795,330.897 1005.5,329C 1012.82,326.34 1020.16,323.673 1027.5,321C 1028.83,320.333 1030.17,320.333 1031.5,321C 1053.05,331.274 1074.71,341.274 1096.5,351C 1100.47,357.116 1104.3,363.282 1108,369.5C 1115.14,375.268 1123.31,377.102 1132.5,375C 1136.44,373.114 1139.94,370.614 1143,367.5C 1145.97,361.88 1149.64,356.88 1154,352.5C 1166.03,355.881 1178.19,358.715 1190.5,361C 1195.71,362.581 1198.04,366.081 1197.5,371.5C 1163.46,375.967 1129.29,379.3 1095,381.5C 1059.1,379.078 1023.27,375.911 987.5,372C 978.503,371.441 969.503,370.941 960.5,370.5C 934.103,372.102 907.769,371.435 881.5,368.5C 880.002,350.502 882.502,333.168 889,316.5C 901.305,323.361 914.472,325.861 928.5,324C 946.464,321.296 962.797,314.796 977.5,304.5 Z"/></g>
<g><path style="opacity:1" fill="#fcfdfe" d="M 882.5,379.5 C 907.911,382.498 933.411,383.164 959,381.5C 968.171,381.922 977.338,382.422 986.5,383C 1021.94,386.856 1057.44,390.023 1093,392.5C 1128.01,390.808 1162.84,387.474 1197.5,382.5C 1197.96,385.394 1197.29,387.894 1195.5,390C 1178.24,393.432 1160.91,396.432 1143.5,399C 1056.83,399.667 970.167,399.667 883.5,399C 882.522,392.59 882.189,386.09 882.5,379.5 Z"/></g>
</svg>
