<?xml version="1.0" encoding="UTF-8"?>
<!DOCTYPE svg PUBLIC "-//W3C//DTD SVG 1.1//EN" "http://www.w3.org/Graphics/SVG/1.1/DTD/svg11.dtd">
<svg xmlns="http://www.w3.org/2000/svg" version="1.1" width="2388px" height="1520px" style="shape-rendering:geometricPrecision; text-rendering:geometricPrecision; image-rendering:optimizeQuality; fill-rule:evenodd; clip-rule:evenodd" xmlns:xlink="http://www.w3.org/1999/xlink">
<g><path style="opacity:1" fill="#fefefe" d="M -0.5,-0.5 C 795.5,-0.5 1591.5,-0.5 2387.5,-0.5C 2387.5,506.167 2387.5,1012.83 2387.5,1519.5C 1591.5,1519.5 795.5,1519.5 -0.5,1519.5C -0.5,1012.83 -0.5,506.167 -0.5,-0.5 Z"/></g>
<g><path style="opacity:1" fill="#4485f4" d="M 1362.5,417.5 C 1362.05,413.837 1361.55,410.17 1361,406.5C 1360.5,485.833 1360.33,565.166 1360.5,644.5C 1358.23,655.609 1352.23,664.109 1342.5,670C 1328.81,676.681 1314.48,681.347 1299.5,684C 1290.02,688.487 1281.36,694.153 1273.5,701C 1257.68,710.077 1240.68,715.411 1222.5,717C 1192.45,719.283 1162.45,718.949 1132.5,716C 1122.23,713.88 1112.23,710.88 1102.5,707C 1090.99,700.749 1079.99,693.749 1069.5,686C 1057.17,682.333 1044.83,678.667 1032.5,675C 1020.61,670.494 1011.78,662.661 1006,651.5C 1005.5,649.482 1005,647.482 1004.5,645.5C 1004.67,565.499 1004.5,485.499 1004,405.5C 1003.45,409.17 1002.95,412.837 1002.5,416.5C 993.665,482.543 990.165,548.876 992,615.5C 991.264,618.32 989.598,620.32 987,621.5C 986.667,638.833 986.333,656.167 986,673.5C 984.5,677.667 981.667,680.5 977.5,682C 956.5,682.667 935.5,682.667 914.5,682C 910.64,680.807 908.14,678.307 907,674.5C 906.667,653.5 906.333,632.5 906,611.5C 893.539,567.058 887.706,521.725 888.5,475.5C 889.219,381.836 908.386,292.17 946,206.5C 954.734,188.022 964.734,170.355 976,153.5C 991.41,134.753 1010.24,120.587 1032.5,111C 1054.91,102.529 1077.25,93.8628 1099.5,85C 1109.15,72.688 1119.48,61.0213 1130.5,50C 1164.83,49.3333 1199.17,49.3333 1233.5,50C 1235.59,50.7922 1237.42,51.9588 1239,53.5C 1248.52,64.055 1257.69,74.8883 1266.5,86C 1289.83,95 1313.17,104 1336.5,113C 1364.34,125.508 1385.84,145.008 1401,171.5C 1434.31,233.752 1456.64,299.752 1468,369.5C 1479.25,437.522 1479.25,505.522 1468,573.5C 1466.25,586.482 1463.25,599.148 1459,611.5C 1458.67,632.5 1458.33,653.5 1458,674.5C 1456.86,678.307 1454.36,680.807 1450.5,682C 1429.17,682.667 1407.83,682.667 1386.5,682C 1382.94,680.108 1380.44,677.275 1379,673.5C 1378.67,656.167 1378.33,638.833 1378,621.5C 1375.4,620.32 1373.74,618.32 1373,615.5C 1375.08,549.201 1371.58,483.201 1362.5,417.5 Z"/></g>
<g><path style="opacity:1" fill="#a6c5f9" d="M 1217.5,74.5 C 1217.5,73.5 1217.5,72.5 1217.5,71.5C 1194.17,71.5 1170.83,71.5 1147.5,71.5C 1147.5,72.5 1147.5,73.5 1147.5,74.5C 1146.57,73.4324 1146.23,72.099 1146.5,70.5C 1170.5,70.5 1194.5,70.5 1218.5,70.5C 1218.77,72.099 1218.43,73.4324 1217.5,74.5 Z"/></g>
<g><path style="opacity:1" fill="#fefefe" d="M 1217.5,74.5 C 1215.82,91.5612 1210.32,107.228 1201,121.5C 1193.56,127.731 1187.56,135.065 1183,143.5C 1175.71,133.876 1168.04,124.542 1160,115.5C 1153.51,102.547 1149.34,88.88 1147.5,74.5C 1147.5,73.5 1147.5,72.5 1147.5,71.5C 1170.83,71.5 1194.17,71.5 1217.5,71.5C 1217.5,72.5 1217.5,73.5 1217.5,74.5 Z"/></g>
<g><path style="opacity:1" fill="#fafbfe" d="M 1126.5,85.5 C 1130.13,104.369 1137.46,121.703 1148.5,137.5C 1145.08,142.668 1141.91,148.002 1139,153.5C 1126.32,135.125 1120.32,114.791 1121,92.5C 1123.43,90.5779 1125.26,88.2446 1126.5,85.5 Z"/></g>
<g><path style="opacity:1" fill="#fafcfe" d="M 1237.5,85.5 C 1239.43,87.9374 1241.6,90.2707 1244,92.5C 1244.86,114.577 1238.86,134.577 1226,152.5C 1222.83,147.5 1219.67,142.5 1216.5,137.5C 1227.79,121.964 1234.79,104.63 1237.5,85.5 Z"/></g>
<g><path style="opacity:1" fill="#fefefe" d="M 1171.5,175.5 C 1171.5,349.167 1171.5,522.833 1171.5,696.5C 1166.17,696.5 1160.83,696.5 1155.5,696.5C 1129.64,696.161 1106.97,687.661 1087.5,671C 1083.5,669 1079.5,667 1075.5,665C 1062.45,661.124 1049.45,657.124 1036.5,653C 1032.05,650.886 1028.55,647.719 1026,643.5C 1025.67,523.833 1025.33,404.167 1025,284.5C 1019.86,264.945 1015.19,245.278 1011,225.5C 1008.87,218.187 1004.04,215.02 996.5,216C 991.86,218.296 989.194,221.963 988.5,227C 993.868,247.677 998.868,268.511 1003.5,289.5C 979.731,391.79 968.731,495.457 970.5,600.5C 955.255,600.824 940.089,600.491 925,599.5C 914.313,557.518 909.479,514.851 910.5,471.5C 911.253,383.829 929.086,299.829 964,219.5C 972.561,200.032 982.894,181.699 995,164.5C 1010.41,146.875 1029.25,134.375 1051.5,127C 1067.44,120.855 1083.44,115.022 1099.5,109.5C 1104.06,137.455 1115.73,161.955 1134.5,183C 1138.26,183.738 1141.93,183.405 1145.5,182C 1152.04,173.092 1158.2,163.926 1164,154.5C 1168.19,160.893 1170.69,167.893 1171.5,175.5 Z"/></g>
<g><path style="opacity:1" fill="#fefefe" d="M 1204.5,696.5 C 1201.17,696.5 1197.83,696.5 1194.5,696.5C 1194.5,526.5 1194.5,356.5 1194.5,186.5C 1193.22,175.302 1195.55,164.968 1201.5,155.5C 1207.3,164.47 1213.3,173.304 1219.5,182C 1226.85,185.178 1232.68,183.345 1237,176.5C 1247.69,161.447 1256.03,145.114 1262,127.5C 1263.81,121.608 1264.97,115.608 1265.5,109.5C 1289.36,118.092 1313.02,127.259 1336.5,137C 1357.43,149.268 1373.6,166.101 1385,187.5C 1446.23,307.861 1466.89,434.861 1447,568.5C 1445.4,578.999 1443.07,589.332 1440,599.5C 1424.91,600.491 1409.74,600.824 1394.5,600.5C 1396.22,495.788 1385.22,392.454 1361.5,290.5C 1366.03,269.158 1371.03,247.991 1376.5,227C 1374.29,217.728 1368.62,214.395 1359.5,217C 1356.53,219.1 1354.7,221.934 1354,225.5C 1349.65,245.575 1344.98,265.575 1340,285.5C 1339.67,404.833 1339.33,524.167 1339,643.5C 1335.57,648.306 1331.07,651.806 1325.5,654C 1316.12,657.762 1306.45,660.429 1296.5,662C 1284.58,666.292 1273.91,672.625 1264.5,681C 1245.89,691.367 1225.89,696.533 1204.5,696.5 Z"/></g>
<g><path style="opacity:1" fill="#c2d7fb" d="M 1171.5,175.5 C 1172.5,349.333 1172.83,523.333 1172.5,697.5C 1166.64,697.822 1160.98,697.489 1155.5,696.5C 1160.83,696.5 1166.17,696.5 1171.5,696.5C 1171.5,522.833 1171.5,349.167 1171.5,175.5 Z"/></g>
<g><path style="opacity:1" fill="#a3c3f9" d="M 1194.5,186.5 C 1194.5,356.5 1194.5,526.5 1194.5,696.5C 1197.83,696.5 1201.17,696.5 1204.5,696.5C 1201.04,697.482 1197.37,697.815 1193.5,697.5C 1193.17,526.999 1193.5,356.666 1194.5,186.5 Z"/></g>
<g><path style="opacity:1" fill="#93b8f8" d="M 1004.5,645.5 C 1003.83,569.167 1003.17,492.833 1002.5,416.5C 1002.95,412.837 1003.45,409.17 1004,405.5C 1004.5,485.499 1004.67,565.499 1004.5,645.5 Z"/></g>
<g><path style="opacity:1" fill="#a3c3f9" d="M 1362.5,417.5 C 1361.83,493.167 1361.17,568.833 1360.5,644.5C 1360.33,565.166 1360.5,485.833 1361,406.5C 1361.55,410.17 1362.05,413.837 1362.5,417.5 Z"/></g>
<g><path style="opacity:1" fill="#c6d9fb" d="M 927.5,622.5 C 939.833,622.5 952.167,622.5 964.5,622.5C 964.5,635.167 964.5,647.833 964.5,660.5C 952.167,660.5 939.833,660.5 927.5,660.5C 927.5,647.833 927.5,635.167 927.5,622.5 Z"/></g>
<g><path style="opacity:1" fill="#fefffe" d="M 928.5,623.5 C 940.167,623.5 951.833,623.5 963.5,623.5C 963.5,635.5 963.5,647.5 963.5,659.5C 951.833,659.5 940.167,659.5 928.5,659.5C 928.5,647.5 928.5,635.5 928.5,623.5 Z"/></g>
<g><path style="opacity:1" fill="#c7d9fc" d="M 1400.5,622.5 C 1412.83,622.5 1425.17,622.5 1437.5,622.5C 1437.5,635.167 1437.5,647.833 1437.5,660.5C 1425.17,660.5 1412.83,660.5 1400.5,660.5C 1400.5,647.833 1400.5,635.167 1400.5,622.5 Z"/></g>
<g><path style="opacity:1" fill="#fefffe" d="M 1401.5,623.5 C 1413.17,623.5 1424.83,623.5 1436.5,623.5C 1436.5,635.5 1436.5,647.5 1436.5,659.5C 1424.83,659.5 1413.17,659.5 1401.5,659.5C 1401.5,647.5 1401.5,635.5 1401.5,623.5 Z"/></g>
</svg>
