<?xml version="1.0" encoding="UTF-8"?>
<!DOCTYPE svg PUBLIC "-//W3C//DTD SVG 1.1//EN" "http://www.w3.org/Graphics/SVG/1.1/DTD/svg11.dtd">
<svg xmlns="http://www.w3.org/2000/svg" version="1.1" width="2388px" height="1520px" style="shape-rendering:geometricPrecision; text-rendering:geometricPrecision; image-rendering:optimizeQuality; fill-rule:evenodd; clip-rule:evenodd" xmlns:xlink="http://www.w3.org/1999/xlink">
<g><path style="opacity:1" fill="#fefefe" d="M -0.5,-0.5 C 795.5,-0.5 1591.5,-0.5 2387.5,-0.5C 2387.5,506.167 2387.5,1012.83 2387.5,1519.5C 1591.5,1519.5 795.5,1519.5 -0.5,1519.5C -0.5,1012.83 -0.5,506.167 -0.5,-0.5 Z"/></g>
<g><path style="opacity:1" fill="#4486f4" d="M 822.5,202.5 C 1072.83,214.491 1323.16,214.491 1573.5,202.5C 1582.37,201.512 1588.21,205.178 1591,213.5C 1598.99,424.018 1607.16,634.518 1615.5,845C 1614.77,851.386 1611.44,855.719 1605.5,858C 1491.5,860.833 1377.5,863.167 1263.5,865C 1261.67,863.833 1259.83,862.667 1258,861.5C 1255.7,856.28 1253.7,850.947 1252,845.5C 1235.77,789.392 1219.27,733.392 1202.5,677.5C 1185.73,733.392 1169.23,789.392 1153,845.5C 1151.3,850.947 1149.3,856.28 1147,861.5C 1145.75,862.211 1144.58,863.044 1143.5,864C 1125.23,865.627 1106.9,865.96 1088.5,865C 1011.84,863.133 935.171,861.467 858.5,860C 837.746,859.469 817.08,858.469 796.5,857C 792.361,854.055 790.027,850.055 789.5,845C 797.843,634.521 806.01,424.021 814,213.5C 815.553,208.788 818.386,205.121 822.5,202.5 Z"/></g>
<g><path style="opacity:1" fill="#fdfefe" d="M 840.5,230.5 C 902.827,232.845 965.16,234.845 1027.5,236.5C 1027.5,255.167 1027.5,273.833 1027.5,292.5C 964.464,291.592 901.464,289.592 838.5,286.5C 838.86,267.82 839.526,249.153 840.5,230.5 Z"/></g>
<g><path style="opacity:1" fill="#fdfefe" d="M 1536.5,230.5 C 1545.86,230.168 1555.19,230.502 1564.5,231.5C 1565.57,249.788 1566.24,268.121 1566.5,286.5C 1503.52,288.963 1440.52,290.963 1377.5,292.5C 1377.5,273.833 1377.5,255.167 1377.5,236.5C 1430.67,234.916 1483.67,232.916 1536.5,230.5 Z"/></g>
<g><path style="opacity:1" fill="#fefefe" d="M 1087.5,237.5 C 1102.32,238.496 1117.32,238.829 1132.5,238.5C 1132.5,257.167 1132.5,275.833 1132.5,294.5C 1106.5,294.417 1080.5,294.083 1054.5,293.5C 1054.5,274.833 1054.5,256.167 1054.5,237.5C 1065.5,237.5 1076.5,237.5 1087.5,237.5 Z"/></g>
<g><path style="opacity:1" fill="#fefefe" d="M 1290.5,237.5 C 1310.5,237.5 1330.5,237.5 1350.5,237.5C 1350.5,256.167 1350.5,274.833 1350.5,293.5C 1287.17,294.385 1223.84,294.718 1160.5,294.5C 1160.5,275.833 1160.5,257.167 1160.5,238.5C 1204,238.832 1247.34,238.499 1290.5,237.5 Z"/></g>
<g><path style="opacity:1" fill="#b9d0fa" d="M 1087.5,237.5 C 1102.83,237.5 1118.17,237.5 1133.5,237.5C 1133.83,256.674 1133.5,275.674 1132.5,294.5C 1132.5,275.833 1132.5,257.167 1132.5,238.5C 1117.32,238.829 1102.32,238.496 1087.5,237.5 Z"/></g>
<g><path style="opacity:1" fill="#fdfdfe" d="M 832.5,482.5 C 831.513,477.695 831.179,472.695 831.5,467.5C 833.218,416.169 834.885,364.835 836.5,313.5C 858.191,313.946 879.857,314.946 901.5,316.5C 878.103,371.695 855.103,427.029 832.5,482.5 Z"/></g>
<g><path style="opacity:1" fill="#fcfdfe" d="M 1573.5,474.5 C 1573.81,477.385 1573.47,480.052 1572.5,482.5C 1549.9,427.029 1526.9,371.695 1503.5,316.5C 1525.11,314.546 1546.77,313.546 1568.5,313.5C 1570.31,367.163 1571.97,420.829 1573.5,474.5 Z"/></g>
<g><path style="opacity:1" fill="#fefefe" d="M 1215.5,500.5 C 1216.5,441.336 1216.83,382.002 1216.5,322.5C 1234.34,322.83 1252.01,322.497 1269.5,321.5C 1296.5,321.375 1323.5,321.042 1350.5,320.5C 1350.09,328.917 1350.59,337.251 1352,345.5C 1354.11,350.893 1358.11,353.56 1364,353.5C 1369.41,353.467 1373.41,351.134 1376,346.5C 1377.41,337.582 1377.91,328.582 1377.5,319.5C 1409.86,318.999 1442.19,318.166 1474.5,317C 1509.05,398.654 1543.22,480.487 1577,562.5C 1580.39,629.135 1582.89,695.802 1584.5,762.5C 1475.49,764.362 1366.49,766.696 1257.5,769.5C 1243.84,720.679 1229.67,672.013 1215,623.5C 1210.49,615.556 1203.99,613.389 1195.5,617C 1193.29,618.873 1191.46,621.04 1190,623.5C 1175.33,672.013 1161.16,720.679 1147.5,769.5C 1038.51,766.936 929.507,764.602 820.5,762.5C 822.112,695.801 824.612,629.135 828,562.5C 861.736,481.126 895.569,399.793 929.5,318.5C 934,318.167 938.5,317.833 943,317.5C 971.165,318.299 999.332,318.965 1027.5,319.5C 1027.09,328.582 1027.59,337.582 1029,346.5C 1032.66,353.07 1038.16,355.237 1045.5,353C 1049.24,351.719 1051.74,349.219 1053,345.5C 1054.41,337.251 1054.91,328.917 1054.5,320.5C 1099.49,321.461 1144.49,322.128 1189.5,322.5C 1189.33,382.501 1189.5,442.501 1190,502.5C 1193.89,511.401 1200.39,513.901 1209.5,510C 1212.97,507.71 1214.97,504.544 1215.5,500.5 Z"/></g>
<g><path style="opacity:1" fill="#afcbfa" d="M 1269.5,321.5 C 1252.01,322.497 1234.34,322.83 1216.5,322.5C 1216.83,382.002 1216.5,441.336 1215.5,500.5C 1215.5,440.833 1215.5,381.167 1215.5,321.5C 1233.5,321.5 1251.5,321.5 1269.5,321.5 Z"/></g>
<g><path style="opacity:1" fill="#b1ccfa" d="M 1573.5,474.5 C 1574.64,477.976 1574.81,481.642 1574,485.5C 1573.49,484.473 1572.99,483.473 1572.5,482.5C 1573.47,480.052 1573.81,477.385 1573.5,474.5 Z"/></g>
<g><path style="opacity:1" fill="#a5c3f9" d="M 831.5,467.5 C 831.179,472.695 831.513,477.695 832.5,482.5C 832.013,483.473 831.513,484.473 831,485.5C 830.181,479.319 830.347,473.319 831.5,467.5 Z"/></g>
<g><path style="opacity:1" fill="#fdfefe" d="M 1120.5,795.5 C 1126.74,795.853 1132.74,796.853 1138.5,798.5C 1134.21,811.646 1130.55,824.98 1127.5,838.5C 1024.17,836.183 920.84,834.183 817.5,832.5C 817.972,818.171 818.305,803.837 818.5,789.5C 919.17,791.321 1019.84,793.321 1120.5,795.5 Z"/></g>
<g><path style="opacity:1" fill="#fdfefe" d="M 1266.5,798.5 C 1271.59,796.856 1276.92,795.856 1282.5,795.5C 1383.83,793.439 1485.17,791.439 1586.5,789.5C 1586.69,803.837 1587.03,818.171 1587.5,832.5C 1484.16,834.307 1380.83,836.307 1277.5,838.5C 1274.45,824.98 1270.79,811.646 1266.5,798.5 Z"/></g>
<g><path style="opacity:1" fill="#adc9fa" d="M 1120.5,795.5 C 1126.83,795.5 1133.17,795.5 1139.5,795.5C 1139.74,796.791 1139.4,797.791 1138.5,798.5C 1132.74,796.853 1126.74,795.853 1120.5,795.5 Z"/></g>
<g><path style="opacity:1" fill="#c7dafb" d="M 1282.5,795.5 C 1276.92,795.856 1271.59,796.856 1266.5,798.5C 1265.6,797.791 1265.26,796.791 1265.5,795.5C 1271.17,795.5 1276.83,795.5 1282.5,795.5 Z"/></g>
</svg>
