<?xml version="1.0" encoding="UTF-8"?>
<!DOCTYPE svg PUBLIC "-//W3C//DTD SVG 1.1//EN" "http://www.w3.org/Graphics/SVG/1.1/DTD/svg11.dtd">
<svg xmlns="http://www.w3.org/2000/svg" version="1.1" width="2388px" height="1520px" style="shape-rendering:geometricPrecision; text-rendering:geometricPrecision; image-rendering:optimizeQuality; fill-rule:evenodd; clip-rule:evenodd" xmlns:xlink="http://www.w3.org/1999/xlink">
<g><path style="opacity:1" fill="#fefefe" d="M -0.5,-0.5 C 795.5,-0.5 1591.5,-0.5 2387.5,-0.5C 2387.5,506.167 2387.5,1012.83 2387.5,1519.5C 1591.5,1519.5 795.5,1519.5 -0.5,1519.5C -0.5,1012.83 -0.5,506.167 -0.5,-0.5 Z"/></g>
<g><path style="opacity:1" fill="#4787f4" d="M 1072.5,193.5 C 1107.83,193.333 1143.17,193.5 1178.5,194C 1179.33,194.833 1180.17,195.667 1181,196.5C 1181.33,209.167 1181.67,221.833 1182,234.5C 1194.36,253.242 1203.03,273.575 1208,295.5C 1212.11,312.818 1207.94,327.651 1195.5,340C 1192.66,341.92 1189.66,343.587 1186.5,345C 1151.43,350.799 1119.09,363.466 1089.5,383C 1075.5,392.667 1061.5,402.333 1047.5,412C 1039.91,415.863 1031.91,418.53 1023.5,420C 984.157,425.919 944.824,425.919 905.5,420C 894.003,418.581 883.67,414.414 874.5,407.5C 873.139,405.972 871.972,404.305 871,402.5C 868.82,390.355 872.653,380.521 882.5,373C 886.007,370.746 889.673,368.746 893.5,367C 900.662,365.53 907.662,363.53 914.5,361C 953.239,341.311 989.239,317.644 1022.5,290C 1044.83,270.836 1059.67,247.003 1067,218.5C 1068.12,211.551 1068.79,204.551 1069,197.5C 1069.69,195.65 1070.86,194.316 1072.5,193.5 Z"/></g>
<g><path style="opacity:1" fill="#fefefe" d="M 1103.5,221.5 C 1104.49,216.36 1104.82,211.026 1104.5,205.5C 1108.5,205.5 1112.5,205.5 1116.5,205.5C 1116.18,211.026 1116.51,216.36 1117.5,221.5C 1119.85,225.879 1123.02,226.546 1127,223.5C 1128.42,217.285 1128.92,210.952 1128.5,204.5C 1132.83,204.5 1137.17,204.5 1141.5,204.5C 1141.33,210.176 1141.5,215.843 1142,221.5C 1145.6,226.721 1149.26,226.721 1153,221.5C 1153.5,215.843 1153.67,210.176 1153.5,204.5C 1159.17,204.5 1164.83,204.5 1170.5,204.5C 1170.33,215.172 1170.5,225.839 1171,236.5C 1182.95,255.075 1191.62,275.075 1197,296.5C 1197.67,303.833 1197.67,311.167 1197,318.5C 1195.08,325.528 1190.91,330.694 1184.5,334C 1150.47,339.897 1118.8,351.897 1089.5,370C 1072.35,382.412 1054.68,394.079 1036.5,405C 1023.83,409.043 1010.83,411.21 997.5,411.5C 994.906,400.06 988.573,391.227 978.5,385C 972.779,381.473 966.779,378.473 960.5,376C 950.157,372.502 939.823,369.168 929.5,366C 970.759,343.958 1008.59,317.124 1043,285.5C 1059.25,267.999 1070.59,247.666 1077,224.5C 1078.81,217.951 1079.64,211.284 1079.5,204.5C 1083.83,204.5 1088.17,204.5 1092.5,204.5C 1092.08,210.952 1092.58,217.285 1094,223.5C 1097.83,226.251 1101,225.585 1103.5,221.5 Z"/></g>
<g><path style="opacity:1" fill="#d9e6fd" d="M 1117.5,221.5 C 1116.51,216.36 1116.18,211.026 1116.5,205.5C 1112.5,205.5 1108.5,205.5 1104.5,205.5C 1104.82,211.026 1104.49,216.36 1103.5,221.5C 1103.5,215.833 1103.5,210.167 1103.5,204.5C 1108.17,204.5 1112.83,204.5 1117.5,204.5C 1117.5,210.167 1117.5,215.833 1117.5,221.5 Z"/></g>
<g><path style="opacity:1" fill="#fcfdfe" d="M 901.5,375.5 C 929.201,375.267 954.534,382.767 977.5,398C 981.908,401.988 984.908,406.821 986.5,412.5C 954.381,415.301 922.714,412.801 891.5,405C 879.591,399.929 878.257,392.596 887.5,383C 892.101,380.202 896.768,377.702 901.5,375.5 Z"/></g>
</svg>
