<?xml version="1.0" encoding="UTF-8"?>
<!DOCTYPE svg PUBLIC "-//W3C//DTD SVG 1.1//EN" "http://www.w3.org/Graphics/SVG/1.1/DTD/svg11.dtd">
<svg xmlns="http://www.w3.org/2000/svg" version="1.1" width="2388px" height="1520px" style="shape-rendering:geometricPrecision; text-rendering:geometricPrecision; image-rendering:optimizeQuality; fill-rule:evenodd; clip-rule:evenodd" xmlns:xlink="http://www.w3.org/1999/xlink">
<g><path style="opacity:1" fill="#fefefe" d="M -0.5,-0.5 C 795.5,-0.5 1591.5,-0.5 2387.5,-0.5C 2387.5,506.167 2387.5,1012.83 2387.5,1519.5C 1591.5,1519.5 795.5,1519.5 -0.5,1519.5C -0.5,1012.83 -0.5,506.167 -0.5,-0.5 Z"/></g>
<g><path style="opacity:1" fill="#4385f4" d="M 1403.5,344.5 C 1403.44,343.957 1403.11,343.624 1402.5,343.5C 1401.5,465.832 1401.17,588.165 1401.5,710.5C 1400.48,714.362 1398.14,717.195 1394.5,719C 1253.17,719.667 1111.83,719.667 970.5,719C 966.857,717.195 964.524,714.362 963.5,710.5C 963.833,588.165 963.5,465.832 962.5,343.5C 961.893,343.624 961.56,343.957 961.5,344.5C 944.282,351.774 927.282,359.608 910.5,368C 905.495,368.917 901.328,367.417 898,363.5C 876.333,302.5 854.667,241.5 833,180.5C 831.936,175.122 833.769,170.956 838.5,168C 921.848,127.742 1005.35,87.9084 1089,48.5C 1093.98,48.8206 1097.65,51.1539 1100,55.5C 1098.85,102.351 1121.68,127.851 1168.5,132C 1192.31,134.193 1214.98,130.193 1236.5,120C 1250.83,110.998 1259.66,98.1649 1263,81.5C 1264.04,72.8641 1264.7,64.1975 1265,55.5C 1267.22,51.3012 1270.72,48.9678 1275.5,48.5C 1359.39,87.7767 1443.06,127.61 1526.5,168C 1531.23,170.956 1533.06,175.122 1532,180.5C 1510.33,241.5 1488.67,302.5 1467,363.5C 1463.67,367.417 1459.51,368.917 1454.5,368C 1437.48,360.155 1420.48,352.322 1403.5,344.5 Z"/></g>
<g><path style="opacity:1" fill="#fefefe" d="M 1076.5,78.5 C 1086.78,122.932 1114.78,148.099 1160.5,154C 1180.32,155.394 1199.99,154.394 1219.5,151C 1257.54,141.131 1280.21,116.964 1287.5,78.5C 1360.72,113.61 1433.72,148.944 1506.5,184.5C 1487.76,236.384 1469.43,288.384 1451.5,340.5C 1432.3,332.567 1413.3,324.067 1394.5,315C 1388.11,313.058 1383.28,314.891 1380,320.5C 1379.5,445.833 1379.33,571.166 1379.5,696.5C 1248.17,696.5 1116.83,696.5 985.5,696.5C 985.667,571.166 985.5,445.833 985,320.5C 981.268,314.954 976.101,313.121 969.5,315C 951.091,324.186 932.425,332.686 913.5,340.5C 895.207,288.117 877.04,235.784 859,183.5C 931.515,148.325 1004.01,113.325 1076.5,78.5 Z"/></g>
<g><path style="opacity:1" fill="#4486f4" d="M 1023.5,227.5 C 1067.17,227.333 1110.83,227.5 1154.5,228C 1157.54,229.031 1160.04,230.865 1162,233.5C 1163.15,250.578 1163.65,267.745 1163.5,285C 1163.33,301.5 1163.17,318 1163,334.5C 1157.68,371.826 1136.51,394.326 1099.5,402C 1057.06,404.2 1029.56,385.033 1017,344.5C 1016.67,341.833 1016.33,339.167 1016,336.5C 1015.33,302.5 1015.33,268.5 1016,234.5C 1017.74,231.254 1020.24,228.921 1023.5,227.5 Z"/></g>
<g><path style="opacity:1" fill="#fdfefe" d="M 1038.5,250.5 C 1072.5,250.5 1106.5,250.5 1140.5,250.5C 1140.5,256.833 1140.5,263.167 1140.5,269.5C 1106.5,269.5 1072.5,269.5 1038.5,269.5C 1038.5,263.167 1038.5,256.833 1038.5,250.5 Z"/></g>
<g><path style="opacity:1" fill="#fefefe" d="M 1038.5,292.5 C 1072.5,292.5 1106.5,292.5 1140.5,292.5C 1140.67,306.504 1140.5,320.504 1140,334.5C 1134.75,363.412 1117.42,378.412 1088,379.5C 1061.99,377.498 1045.66,363.831 1039,338.5C 1038.5,323.17 1038.33,307.837 1038.5,292.5 Z"/></g>
<g><path style="opacity:1" fill="#bbd3fb" d="M 961.5,344.5 C 961.56,343.957 961.893,343.624 962.5,343.5C 963.5,465.832 963.833,588.165 963.5,710.5C 962.833,588.5 962.167,466.5 961.5,344.5 Z"/></g>
<g><path style="opacity:1" fill="#bad3fb" d="M 1403.5,344.5 C 1402.83,466.5 1402.17,588.5 1401.5,710.5C 1401.17,588.165 1401.5,465.832 1402.5,343.5C 1403.11,343.624 1403.44,343.957 1403.5,344.5 Z"/></g>
</svg>
