<?xml version="1.0" encoding="UTF-8"?>
<!DOCTYPE svg PUBLIC "-//W3C//DTD SVG 1.1//EN" "http://www.w3.org/Graphics/SVG/1.1/DTD/svg11.dtd">
<svg xmlns="http://www.w3.org/2000/svg" version="1.1" width="2388px" height="1520px" style="shape-rendering:geometricPrecision; text-rendering:geometricPrecision; image-rendering:optimizeQuality; fill-rule:evenodd; clip-rule:evenodd" xmlns:xlink="http://www.w3.org/1999/xlink">
<g><path style="opacity:1" fill="#fefefe" d="M -0.5,-0.5 C 795.5,-0.5 1591.5,-0.5 2387.5,-0.5C 2387.5,506.167 2387.5,1012.83 2387.5,1519.5C 1591.5,1519.5 795.5,1519.5 -0.5,1519.5C -0.5,1012.83 -0.5,506.167 -0.5,-0.5 Z"/></g>
<g><path style="opacity:1" fill="#4486f4" d="M 1582.5,890.5 C 1579.71,889.523 1576.71,889.19 1573.5,889.5C 1573.5,892.167 1573.5,894.833 1573.5,897.5C 1570.78,907.05 1564.44,910.55 1554.5,908C 1548.14,903.001 1545.81,896.501 1547.5,888.5C 1541.34,888.034 1535.34,888.701 1529.5,890.5C 1526.47,901.85 1519.47,905.517 1508.5,901.5C 1505.53,899.203 1503.86,896.203 1503.5,892.5C 1496.81,893.469 1490.14,893.469 1483.5,892.5C 1483.67,898.509 1483.5,904.509 1483,910.5C 1478.74,917.54 1472.58,920.04 1464.5,918C 1460.42,915.688 1457.92,912.188 1457,907.5C 1456.5,901.175 1456.33,894.842 1456.5,888.5C 1448.8,888.791 1441.13,889.458 1433.5,890.5C 1434.31,898.155 1434.48,905.822 1434,913.5C 1430.58,921.249 1424.74,924.082 1416.5,922C 1412.21,919.708 1409.38,916.208 1408,911.5C 1407.43,906.166 1406.93,900.833 1406.5,895.5C 1400.89,895.951 1395.56,894.951 1390.5,892.5C 1390.95,898.083 1390.45,903.749 1389,909.5C 1380.13,918.068 1372.13,917.401 1365,907.5C 1364.28,901.402 1363.11,895.402 1361.5,889.5C 1354.78,888.383 1348.11,888.717 1341.5,890.5C 1341.83,907.367 1334.16,913.201 1318.5,908C 1317.33,906.167 1316.17,904.333 1315,902.5C 1314.5,897.177 1314.33,891.844 1314.5,886.5C 1311.19,886.057 1307.85,885.724 1304.5,885.5C 1297.21,886.658 1289.88,887.491 1282.5,888C 1281.68,897.089 1281.18,906.256 1281,915.5C 1277.75,924.044 1271.58,927.211 1262.5,925C 1259.43,922.718 1256.93,919.884 1255,916.5C 1254.67,907.167 1254.33,897.833 1254,888.5C 1251.53,886.702 1249.86,884.368 1249,881.5C 1234.32,793.783 1219.49,706.116 1204.5,618.5C 1203.83,613.167 1203.17,613.167 1202.5,618.5C 1187.67,706.151 1172.84,793.818 1158,881.5C 1156.73,885.94 1153.89,888.94 1149.5,890.5C 1148.67,898.145 1148.17,905.812 1148,913.5C 1141.18,924.22 1133.18,925.22 1124,916.5C 1123.39,914.846 1122.89,913.179 1122.5,911.5C 1122.5,906.167 1122.5,900.833 1122.5,895.5C 1121.21,895.263 1120.21,895.596 1119.5,896.5C 1115.72,897.403 1111.89,898.069 1108,898.5C 1103.17,897.766 1098.33,897.1 1093.5,896.5C 1094.82,910.685 1088.48,916.852 1074.5,915C 1067,909.438 1064.33,901.938 1066.5,892.5C 1055.76,893.648 1045.09,895.315 1034.5,897.5C 1034.67,902.844 1034.5,908.177 1034,913.5C 1030.22,921.305 1024.05,924.138 1015.5,922C 1011.96,920.093 1009.46,917.26 1008,913.5C 1007.5,907.175 1007.33,900.842 1007.5,894.5C 1000.14,893.664 992.81,892.664 985.5,891.5C 984.821,903.523 978.488,908.357 966.5,906C 962.881,904.215 960.548,901.382 959.5,897.5C 959.5,895.833 959.5,894.167 959.5,892.5C 956.615,892.194 953.948,892.527 951.5,893.5C 945.19,894.19 938.857,894.524 932.5,894.5C 931.791,893.596 930.791,893.263 929.5,893.5C 929.5,897.167 929.5,900.833 929.5,904.5C 926.209,914.602 919.542,917.769 909.5,914C 906.335,911.49 904.335,908.324 903.5,904.5C 903.5,899.167 903.5,893.833 903.5,888.5C 901.585,888.216 899.919,888.549 898.5,889.5C 891.125,890.341 883.791,891.508 876.5,893C 875.683,901.088 875.183,909.255 875,917.5C 870.757,925.694 864.257,928.194 855.5,925C 852.894,923.062 851.061,920.562 850,917.5C 849.5,907.839 849.334,898.172 849.5,888.5C 839.447,887.338 829.447,887.838 819.5,890C 818.151,895.425 816.985,900.925 816,906.5C 811.848,914.99 805.348,917.49 796.5,914C 792.331,910.662 790.331,906.329 790.5,901C 790.868,895.427 791.701,889.927 793,884.5C 801.081,640.504 809.081,396.504 817,152.5C 819.523,143.977 825.19,140.31 834,141.5C 1080,153.424 1326,153.424 1572,141.5C 1581.07,140.358 1587.07,144.025 1590,152.5C 1598.43,403.326 1606.6,654.16 1614.5,905C 1616.49,915.889 1612.15,922.389 1601.5,924.5C 1595.79,924.23 1591.62,921.563 1589,916.5C 1587.86,907.87 1587.36,899.203 1587.5,890.5C 1585.83,890.5 1584.17,890.5 1582.5,890.5 Z"/></g>
<g><path style="opacity:1" fill="#fdfefe" d="M 843.5,169.5 C 886.505,170.834 929.505,172.167 972.5,173.5C 972.5,190.5 972.5,207.5 972.5,224.5C 929.146,223.833 885.812,222.499 842.5,220.5C 842.273,203.481 842.607,186.481 843.5,169.5 Z"/></g>
<g><path style="opacity:1" fill="#fdfefe" d="M 1451.5,224.5 C 1445.83,224.5 1440.17,224.5 1434.5,224.5C 1434.5,207.5 1434.5,190.5 1434.5,173.5C 1477.49,171.92 1520.49,170.587 1563.5,169.5C 1564.03,186.495 1564.37,203.495 1564.5,220.5C 1526.83,221.646 1489.16,222.979 1451.5,224.5 Z"/></g>
<g><path style="opacity:1" fill="#5b93f5" d="M 1434.5,173.5 C 1434.5,190.5 1434.5,207.5 1434.5,224.5C 1440.17,224.5 1445.83,224.5 1451.5,224.5C 1445.69,225.49 1439.69,225.823 1433.5,225.5C 1433.17,207.992 1433.5,190.659 1434.5,173.5 Z"/></g>
<g><path style="opacity:1" fill="#fdfefe" d="M 999.5,175.5 C 1009.5,175.5 1019.5,175.5 1029.5,175.5C 1029.5,205.833 1029.5,236.167 1029.5,266.5C 1019.5,266.5 1009.5,266.5 999.5,266.5C 999.5,236.167 999.5,205.833 999.5,175.5 Z"/></g>
<g><path style="opacity:1" fill="#fdfdfe" d="M 1399.5,174.5 C 1402.17,174.5 1404.83,174.5 1407.5,174.5C 1407.5,205.167 1407.5,235.833 1407.5,266.5C 1397.5,266.5 1387.5,266.5 1377.5,266.5C 1377.5,236.167 1377.5,205.833 1377.5,175.5C 1385.02,175.825 1392.35,175.492 1399.5,174.5 Z"/></g>
<g><path style="opacity:1" fill="#fefefe" d="M 1189.5,177.5 C 1189.5,194.5 1189.5,211.5 1189.5,228.5C 1171.5,228.5 1153.5,228.5 1135.5,228.5C 1109.16,228.275 1082.83,227.942 1056.5,227.5C 1056.5,210.5 1056.5,193.5 1056.5,176.5C 1100.83,176.935 1145.17,177.269 1189.5,177.5 Z"/></g>
<g><path style="opacity:1" fill="#fefefe" d="M 1265.5,228.5 C 1249.5,228.5 1233.5,228.5 1217.5,228.5C 1217.5,211.5 1217.5,194.5 1217.5,177.5C 1261.83,177.177 1306.17,176.843 1350.5,176.5C 1350.5,193.5 1350.5,210.5 1350.5,227.5C 1322.17,228.01 1293.84,228.343 1265.5,228.5 Z"/></g>
<g><path style="opacity:1" fill="#a0c1f9" d="M 1217.5,177.5 C 1217.5,194.5 1217.5,211.5 1217.5,228.5C 1233.5,228.5 1249.5,228.5 1265.5,228.5C 1249.34,229.496 1233.01,229.83 1216.5,229.5C 1216.17,211.992 1216.5,194.659 1217.5,177.5 Z"/></g>
<g><path style="opacity:1" fill="#a0c1f9" d="M 1189.5,177.5 C 1190.5,194.659 1190.83,211.992 1190.5,229.5C 1171.99,229.83 1153.66,229.497 1135.5,228.5C 1153.5,228.5 1171.5,228.5 1189.5,228.5C 1189.5,211.5 1189.5,194.5 1189.5,177.5 Z"/></g>
<g><path style="opacity:1" fill="#fefefe" d="M 962.5,251.5 C 964.948,252.473 967.615,252.806 970.5,252.5C 970.5,253.833 970.5,255.167 970.5,256.5C 961.182,307.674 933.515,345.174 887.5,369C 871.413,376.984 854.413,381.484 836.5,382.5C 838.299,337.516 839.633,292.516 840.5,247.5C 881.151,249.233 921.817,250.566 962.5,251.5 Z"/></g>
<g><path style="opacity:1" fill="#fdfefe" d="M 1556.5,247.5 C 1559.5,247.5 1562.5,247.5 1565.5,247.5C 1565.19,250.385 1565.53,253.052 1566.5,255.5C 1568.12,297.824 1569.46,340.157 1570.5,382.5C 1519.98,377.001 1481.48,352.668 1455,309.5C 1445.74,292.879 1439.57,275.213 1436.5,256.5C 1436.5,255.167 1436.5,253.833 1436.5,252.5C 1437.79,252.737 1438.79,252.404 1439.5,251.5C 1478.5,250.237 1517.5,248.903 1556.5,247.5 Z"/></g>
<g><path style="opacity:1" fill="#bbd2fb" d="M 962.5,251.5 C 965.5,251.5 968.5,251.5 971.5,251.5C 971.784,253.415 971.451,255.081 970.5,256.5C 970.5,255.167 970.5,253.833 970.5,252.5C 967.615,252.806 964.948,252.473 962.5,251.5 Z"/></g>
<g><path style="opacity:1" fill="#aec9fa" d="M 1439.5,251.5 C 1438.79,252.404 1437.79,252.737 1436.5,252.5C 1436.5,253.833 1436.5,255.167 1436.5,256.5C 1435.55,255.081 1435.22,253.415 1435.5,251.5C 1436.83,251.5 1438.17,251.5 1439.5,251.5 Z"/></g>
<g><path style="opacity:1" fill="#fefefe" d="M 1141.5,255.5 C 1157.32,256.496 1173.32,256.83 1189.5,256.5C 1189.17,317.336 1189.5,378.002 1190.5,438.5C 1194.07,449.617 1201.07,452.45 1211.5,447C 1214.07,444.687 1215.74,441.854 1216.5,438.5C 1217.5,378.002 1217.83,317.336 1217.5,256.5C 1233.68,256.83 1249.68,256.496 1265.5,255.5C 1293.84,255.343 1322.17,255.01 1350.5,254.5C 1350.33,264.172 1350.5,273.839 1351,283.5C 1353.96,291.986 1359.96,295.652 1369,294.5C 1385.48,293.297 1401.98,292.631 1418.5,292.5C 1437.09,344.26 1472.09,380.094 1523.5,400C 1539.02,405.714 1555.02,409.214 1571.5,410.5C 1576.33,561.506 1581.33,712.506 1586.5,863.5C 1555.05,860.384 1523.71,861.384 1492.5,866.5C 1479.7,864.562 1466.87,862.895 1454,861.5C 1437.64,863.283 1421.31,865.283 1405,867.5C 1393.43,865.142 1381.93,862.475 1370.5,859.5C 1359.5,860.833 1348.5,862.167 1337.5,863.5C 1334.1,863.439 1330.76,862.939 1327.5,862C 1307.63,751.607 1288.13,641.107 1269,530.5C 1267.57,525.402 1264.4,521.902 1259.5,520C 1239.17,519.333 1218.83,519.333 1198.5,520C 1193.95,521.588 1191.11,524.755 1190,529.5C 1171.32,641.398 1152.49,753.231 1133.5,865C 1125.07,867.919 1116.41,869.752 1107.5,870.5C 1094.32,868.64 1081.15,866.64 1068,864.5C 1055.72,866.889 1043.39,868.889 1031,870.5C 1014.09,868.654 997.259,866.321 980.5,863.5C 966.669,864.859 952.836,866.192 939,867.5C 927,865.5 915,863.5 903,861.5C 893.191,863.029 883.358,864.362 873.5,865.5C 862.256,864.32 851.09,862.654 840,860.5C 833.508,861.309 827.008,861.975 820.5,862.5C 825.432,711.83 830.432,561.163 835.5,410.5C 891.087,404.636 935.253,379.303 968,334.5C 976.707,321.418 983.541,307.418 988.5,292.5C 1005.17,293.083 1021.83,293.75 1038.5,294.5C 1047.37,295.488 1053.21,291.822 1056,283.5C 1056.5,273.839 1056.67,264.172 1056.5,254.5C 1084.83,255.206 1113.16,255.539 1141.5,255.5 Z"/></g>
<g><path style="opacity:1" fill="#afcafa" d="M 1556.5,247.5 C 1559.62,246.521 1562.96,246.187 1566.5,246.5C 1566.5,249.5 1566.5,252.5 1566.5,255.5C 1565.53,253.052 1565.19,250.385 1565.5,247.5C 1562.5,247.5 1559.5,247.5 1556.5,247.5 Z"/></g>
<g><path style="opacity:1" fill="#b5cffb" d="M 1141.5,255.5 C 1157.83,255.5 1174.17,255.5 1190.5,255.5C 1190.5,316.5 1190.5,377.5 1190.5,438.5C 1189.5,378.002 1189.17,317.336 1189.5,256.5C 1173.32,256.83 1157.32,256.496 1141.5,255.5 Z"/></g>
<g><path style="opacity:1" fill="#b0ccfa" d="M 1265.5,255.5 C 1249.68,256.496 1233.68,256.83 1217.5,256.5C 1217.83,317.336 1217.5,378.002 1216.5,438.5C 1216.5,377.5 1216.5,316.5 1216.5,255.5C 1232.83,255.5 1249.17,255.5 1265.5,255.5 Z"/></g>
<g><path style="opacity:1" fill="#fdfdfe" d="M 1219.5,547.5 C 1227.65,546.507 1235.98,546.174 1244.5,546.5C 1262.74,650.84 1281.07,755.174 1299.5,859.5C 1290.44,860.032 1281.44,861.032 1272.5,862.5C 1255.14,757.325 1237.47,652.325 1219.5,547.5 Z"/></g>
<g><path style="opacity:1" fill="#b6cffa" d="M 1204.5,618.5 C 1203.83,618.5 1203.17,618.5 1202.5,618.5C 1203.17,613.167 1203.83,613.167 1204.5,618.5 Z"/></g>
<g><path style="opacity:1" fill="#bcd3fb" d="M 898.5,889.5 C 899.919,888.549 901.585,888.216 903.5,888.5C 903.5,893.833 903.5,899.167 903.5,904.5C 902.513,899.695 902.179,894.695 902.5,889.5C 901.167,889.5 899.833,889.5 898.5,889.5 Z"/></g>
<g><path style="opacity:1" fill="#a7c6f9" d="M 1582.5,890.5 C 1579.83,890.5 1577.17,890.5 1574.5,890.5C 1574.8,893.059 1574.47,895.393 1573.5,897.5C 1573.5,894.833 1573.5,892.167 1573.5,889.5C 1576.71,889.19 1579.71,889.523 1582.5,890.5 Z"/></g>
<g><path style="opacity:1" fill="#91b6f8" d="M 951.5,893.5 C 953.948,892.527 956.615,892.194 959.5,892.5C 959.5,894.167 959.5,895.833 959.5,897.5C 958.566,896.432 958.232,895.099 958.5,893.5C 956.167,893.5 953.833,893.5 951.5,893.5 Z"/></g>
<g><path style="opacity:1" fill="#a4c3fa" d="M 932.5,894.5 C 930.881,897.548 929.881,900.881 929.5,904.5C 929.5,900.833 929.5,897.167 929.5,893.5C 930.791,893.263 931.791,893.596 932.5,894.5 Z"/></g>
<g><path style="opacity:1" fill="#7ba9f7" d="M 1119.5,896.5 C 1120.21,895.596 1121.21,895.263 1122.5,895.5C 1122.5,900.833 1122.5,906.167 1122.5,911.5C 1122.14,906.251 1121.14,901.251 1119.5,896.5 Z"/></g>
</svg>
