<?xml version="1.0" encoding="UTF-8"?>
<!DOCTYPE svg PUBLIC "-//W3C//DTD SVG 1.1//EN" "http://www.w3.org/Graphics/SVG/1.1/DTD/svg11.dtd">
<svg xmlns="http://www.w3.org/2000/svg" version="1.1" width="2388px" height="1520px" style="shape-rendering:geometricPrecision; text-rendering:geometricPrecision; image-rendering:optimizeQuality; fill-rule:evenodd; clip-rule:evenodd" xmlns:xlink="http://www.w3.org/1999/xlink">
<g><path style="opacity:1" fill="#fefefe" d="M -0.5,-0.5 C 795.5,-0.5 1591.5,-0.5 2387.5,-0.5C 2387.5,506.167 2387.5,1012.83 2387.5,1519.5C 1591.5,1519.5 795.5,1519.5 -0.5,1519.5C -0.5,1012.83 -0.5,506.167 -0.5,-0.5 Z"/></g>
<g><path style="opacity:1" fill="#4686f4" d="M 1325.5,227.5 C 1331.9,226.053 1336.73,228.053 1340,233.5C 1361.12,277.564 1382.62,321.397 1404.5,365C 1416.17,369.279 1428.17,372.279 1440.5,374C 1507.9,382.442 1575.56,385.776 1643.5,384C 1654.54,382.929 1665.54,381.929 1676.5,381C 1679.17,382.25 1681.34,384.083 1683,386.5C 1683.98,410.588 1683.65,434.588 1682,458.5C 1680.27,460.617 1678.1,462.117 1675.5,463C 1472.42,463.998 1269.42,463.664 1066.5,462C 1064.62,460.457 1063.12,458.624 1062,456.5C 1061.33,433.167 1061.33,409.833 1062,386.5C 1064.33,382.833 1067.67,380.833 1072,380.5C 1105.92,386.204 1139.08,383.371 1171.5,372C 1177.7,370.076 1183.03,366.909 1187.5,362.5C 1182.73,349.344 1178.06,336.178 1173.5,323C 1173.5,319.667 1174.83,317 1177.5,315C 1227.06,286.059 1276.39,256.892 1325.5,227.5 Z"/></g>
<g><path style="opacity:1" fill="#fdfefe" d="M 1417.5,440.5 C 1399.34,441.497 1381.01,441.83 1362.5,441.5C 1341.21,384.15 1319.21,326.984 1296.5,270C 1305.81,263.676 1315.47,257.842 1325.5,252.5C 1356.72,314.948 1387.39,377.614 1417.5,440.5 Z"/></g>
<g><path style="opacity:1" fill="#fcfdfe" d="M 1276.5,280.5 C 1278.41,280.574 1279.58,281.574 1280,283.5C 1300.47,336.419 1320.64,389.419 1340.5,442.5C 1327.5,442.667 1314.5,442.5 1301.5,442C 1282.95,394.673 1264.62,347.339 1246.5,300C 1247.34,298.233 1248.67,296.899 1250.5,296C 1259.4,291.059 1268.06,285.892 1276.5,280.5 Z"/></g>
<g><path style="opacity:1" fill="#fdfdfe" d="M 1277.5,439.5 C 1265.55,441.48 1253.21,442.146 1240.5,441.5C 1226.23,403.7 1211.57,366.033 1196.5,328.5C 1206.17,321.997 1216.17,315.997 1226.5,310.5C 1228.2,311.364 1229.36,312.697 1230,314.5C 1245.68,356.249 1261.52,397.916 1277.5,439.5 Z"/></g>
<g><path style="opacity:1" fill="#fefefe" d="M 1217.5,440.5 C 1172.67,441.499 1127.67,441.832 1082.5,441.5C 1082.5,428.833 1082.5,416.167 1082.5,403.5C 1122.17,407.897 1159.84,401.231 1195.5,383.5C 1203.63,402.212 1210.96,421.212 1217.5,440.5 Z"/></g>
<g><path style="opacity:1" fill="#fefefe" d="M 1662.5,403.5 C 1662.5,416.167 1662.5,428.833 1662.5,441.5C 1588.83,441.5 1515.17,441.5 1441.5,441.5C 1433.21,424.925 1424.88,408.259 1416.5,391.5C 1497.88,403.792 1579.88,407.792 1662.5,403.5 Z"/></g>
<g><path style="opacity:1" fill="#dce8fc" d="M 1277.5,439.5 C 1278.4,440.209 1278.74,441.209 1278.5,442.5C 1265.66,442.829 1252.99,442.495 1240.5,441.5C 1253.21,442.146 1265.55,441.48 1277.5,439.5 Z"/></g>
<g><path style="opacity:1" fill="#d8e5fc" d="M 1082.5,403.5 C 1082.5,416.167 1082.5,428.833 1082.5,441.5C 1127.67,441.832 1172.67,441.499 1217.5,440.5C 1218.04,440.56 1218.38,440.893 1218.5,441.5C 1172.84,442.5 1127.17,442.833 1081.5,442.5C 1081.17,428.753 1081.5,415.753 1082.5,403.5 Z"/></g>
<g><path style="opacity:1" fill="#dbe7fc" d="M 1417.5,440.5 C 1418.04,440.56 1418.38,440.893 1418.5,441.5C 1399.67,442.828 1381,442.828 1362.5,441.5C 1381.01,441.83 1399.34,441.497 1417.5,440.5 Z"/></g>
<g><path style="opacity:1" fill="#dae6fc" d="M 1662.5,403.5 C 1663.5,416.323 1663.83,429.323 1663.5,442.5C 1589.33,442.833 1515.33,442.499 1441.5,441.5C 1515.17,441.5 1588.83,441.5 1662.5,441.5C 1662.5,428.833 1662.5,416.167 1662.5,403.5 Z"/></g>
</svg>
