<?xml version="1.0" encoding="UTF-8"?>
<!DOCTYPE svg PUBLIC "-//W3C//DTD SVG 1.1//EN" "http://www.w3.org/Graphics/SVG/1.1/DTD/svg11.dtd">
<svg xmlns="http://www.w3.org/2000/svg" version="1.1" width="2388px" height="1520px" style="shape-rendering:geometricPrecision; text-rendering:geometricPrecision; image-rendering:optimizeQuality; fill-rule:evenodd; clip-rule:evenodd" xmlns:xlink="http://www.w3.org/1999/xlink">
<g><path style="opacity:1" fill="#fefefe" d="M -0.5,-0.5 C 795.5,-0.5 1591.5,-0.5 2387.5,-0.5C 2387.5,506.167 2387.5,1012.83 2387.5,1519.5C 1591.5,1519.5 795.5,1519.5 -0.5,1519.5C -0.5,1012.83 -0.5,506.167 -0.5,-0.5 Z"/></g>
<g><path style="opacity:1" fill="#4586f4" d="M 958.5,246.5 C 1063.18,246.027 1167.85,246.527 1272.5,248C 1297.81,250.99 1321.14,259.323 1342.5,273C 1353.25,282.348 1360.59,293.848 1364.5,307.5C 1368.18,307.335 1371.85,307.501 1375.5,308C 1383.58,311.5 1384.58,316.5 1378.5,323C 1375.65,324.289 1372.65,324.789 1369.5,324.5C 1372.94,363.018 1363.44,398.018 1341,429.5C 1316.24,461.418 1285.08,469.918 1247.5,455C 1231.82,447.634 1217.48,438.301 1204.5,427C 1182.28,407.132 1163.45,384.632 1148,359.5C 1138.27,343.135 1133.1,325.468 1132.5,306.5C 1119.83,306.5 1107.17,306.5 1094.5,306.5C 1093.34,325.48 1087.84,343.147 1078,359.5C 1060.73,387.481 1039.56,412.315 1014.5,434C 994.59,450.808 971.59,460.308 945.5,462.5C 918,459.832 896.833,446.832 882,423.5C 862.335,393.341 854.168,360.341 857.5,324.5C 849.58,324.411 846.08,320.411 847,312.5C 851.047,307.846 856.214,306.179 862.5,307.5C 867.349,290.815 877.015,277.648 891.5,268C 912.619,256.645 934.953,249.478 958.5,246.5 Z"/></g>
<g><path style="opacity:1" fill="#b6d0fa" d="M 1161.5,265.5 C 1129.5,264.167 1097.5,264.167 1065.5,265.5C 1064.53,265.013 1063.53,264.513 1062.5,264C 1096.17,263.333 1129.83,263.333 1163.5,264C 1162.96,264.717 1162.29,265.217 1161.5,265.5 Z"/></g>
<g><path style="opacity:1" fill="#fefefe" d="M 954.5,264.5 C 990.55,261.671 1025.22,267.171 1058.5,281C 1073.5,288.608 1079.33,300.774 1076,317.5C 1071.7,334.097 1064.7,349.431 1055,363.5C 1036.54,389.626 1014.37,412.126 988.5,431C 946.662,455.918 914.162,447.084 891,404.5C 878.552,381.71 872.885,357.377 874,331.5C 876.488,303.62 890.654,284.787 916.5,275C 929.093,270.79 941.76,267.29 954.5,264.5 Z"/></g>
<g><path style="opacity:1" fill="#fdfefe" d="M 1065.5,265.5 C 1097.5,264.167 1129.5,264.167 1161.5,265.5C 1150.66,269.67 1142.66,277.003 1137.5,287.5C 1121.51,288.666 1105.51,288.833 1089.5,288C 1084.53,277.197 1076.53,269.697 1065.5,265.5 Z"/></g>
<g><path style="opacity:1" fill="#fefefe" d="M 1227.5,264.5 C 1262.4,260.982 1295.4,267.149 1326.5,283C 1340.71,293.554 1349.21,307.721 1352,325.5C 1355.4,360.959 1346.4,392.959 1325,421.5C 1305.97,444.949 1282.47,450.783 1254.5,439C 1210.79,415.286 1177.95,381.119 1156,336.5C 1151.17,326.33 1149.17,315.663 1150,304.5C 1151.98,295.373 1156.81,288.207 1164.5,283C 1184.74,273.857 1205.74,267.691 1227.5,264.5 Z"/></g>
</svg>
